<?xml version="1.0" encoding="UTF-8" standalone="no"?>
<!-- Created with Inkscape (http://www.inkscape.org/) -->

<svg
   xmlns:dc="http://purl.org/dc/elements/1.1/"
   xmlns:cc="http://creativecommons.org/ns#"
   xmlns:rdf="http://www.w3.org/1999/02/22-rdf-syntax-ns#"
   xmlns:svg="http://www.w3.org/2000/svg"
   xmlns="http://www.w3.org/2000/svg"
   xmlns:sodipodi="http://sodipodi.sourceforge.net/DTD/sodipodi-0.dtd"
   xmlns:inkscape="http://www.inkscape.org/namespaces/inkscape"
   width="60.471382mm"
   height="60.471375mm"
   viewBox="0 0 214.26868 214.26864"
   id="svg2"
   version="1.1"
   inkscape:version="0.91 r13725"
   sodipodi:docname="closebtn.svg">
  <defs
     id="defs4" />
  <sodipodi:namedview
     id="base"
     pagecolor="#ffffff"
     bordercolor="#666666"
     borderopacity="1.0"
     inkscape:pageopacity="0.0"
     inkscape:pageshadow="2"
     inkscape:zoom="1.4"
     inkscape:cx="29.171773"
     inkscape:cy="144.57308"
     inkscape:document-units="px"
     inkscape:current-layer="layer1"
     showgrid="false"
     fit-margin-top="1"
     fit-margin-left="1"
     fit-margin-bottom="1"
     fit-margin-right="1"
     inkscape:window-width="1440"
     inkscape:window-height="837"
     inkscape:window-x="-8"
     inkscape:window-y="-8"
     inkscape:window-maximized="1" />
  <metadata
     id="metadata7">
    <rdf:RDF>
      <cc:Work
         rdf:about="">
        <dc:format>image/svg+xml</dc:format>
        <dc:type
           rdf:resource="http://purl.org/dc/dcmitype/StillImage" />
        <dc:title></dc:title>
      </cc:Work>
    </rdf:RDF>
  </metadata>
  <g
     inkscape:label="Livello 1"
     inkscape:groupmode="layer"
     id="layer1"
     transform="translate(-285.78963,-361.41992)">
    <g
       id="g4169"
       transform="matrix(1.0571997,0,0,1.0571997,-14.981886,-41.372381)" />
    <path
       style="opacity:1;fill:#b40000;fill-opacity:1;fill-rule:evenodd;stroke:#692c2c;stroke-width:2;stroke-linecap:round;stroke-linejoin:round;stroke-miterlimit:4;stroke-dasharray:none;stroke-opacity:1"
       d="m 392.92396,365.01327 a 103.54063,103.54063 0 0 0 -36.38477,6.66015 103.54063,103.54063 0 0 0 -60.375,60.375 103.54063,103.54063 0 0 0 -6.78125,36.50586 103.54063,103.54063 0 0 0 0.0801,2.23438 103.54063,103.54063 0 0 0 3.17774,22.92969 103.54063,103.54063 0 0 0 8.89257,23.14648 103.54063,103.54063 0 0 0 47.54883,45.25976 103.54063,103.54063 0 0 0 17.15625,6.32813 103.54063,103.54063 0 0 0 24.06836,3.54883 103.54063,103.54063 0 0 0 2.61719,0.0937 103.54063,103.54063 0 0 0 35.88086,-6.55274 103.54063,103.54063 0 0 0 61.19727,-61.19921 103.54063,103.54063 0 0 0 6.46289,-35.78907 103.54063,103.54063 0 0 0 -0.14844,-2.5625 103.54063,103.54063 0 0 0 -3.55859,-24.06054 103.54063,103.54063 0 0 0 -9.11719,-22.91993 103.54063,103.54063 0 0 0 -9.17969,-13.9082 103.54063,103.54063 0 0 0 -15.78125,-16.25781 103.54063,103.54063 0 0 0 -17.42969,-11.69727 103.54063,103.54063 0 0 0 -23.1875,-8.85156 103.54063,103.54063 0 0 0 -22.93359,-3.17383 103.54063,103.54063 0 0 0 -2.20508,-0.10937 z"
       id="path4205"
       inkscape:connector-curvature="0" />
    <path
       style="opacity:0.24899998;fill:#ffffff;fill-opacity:1;fill-rule:evenodd;stroke:#a72c2c;stroke-width:8.84745216;stroke-linecap:round;stroke-linejoin:round;stroke-miterlimit:4;stroke-dasharray:none;stroke-opacity:1"
       d="m 392.92442,370.60156 a 85.008789,66.191269 0 0 0 -85.00977,66.19141 85.008789,66.191269 0 0 0 0.11523,2.51367 100.04044,84.683296 0 0 1 2.69336,-3.71875 100.04044,84.683296 0 0 1 6.05079,-6.74024 100.04044,84.683296 0 0 1 6.8164,-6.19335 100.04044,84.683296 0 0 1 7.51367,-5.58594 100.04044,84.683296 0 0 1 8.13282,-4.92383 100.04044,84.683296 0 0 1 8.67382,-4.21289 100.04044,84.683296 0 0 1 9.12891,-3.45703 100.04044,84.683296 0 0 1 9.49023,-2.66992 100.04044,84.683296 0 0 1 9.75586,-1.85352 100.04044,84.683296 0 0 1 9.92774,-1.01953 100.04044,84.683296 0 0 1 7.07617,-0.21289 100.04044,84.683296 0 0 1 9.98828,0.42383 100.04044,84.683296 0 0 1 9.88672,1.26562 100.04044,84.683296 0 0 1 9.68945,2.09375 100.04044,84.683296 0 0 1 9.39258,2.90235 100.04044,84.683296 0 0 1 9.00586,3.68164 100.04044,84.683296 0 0 1 8.52344,4.42382 100.04044,84.683296 0 0 1 7.96094,5.12305 100.04044,84.683296 0 0 1 7.3164,5.77149 100.04044,84.683296 0 0 1 6.60156,6.35937 100.04044,84.683296 0 0 1 5.81641,6.88477 100.04044,84.683296 0 0 1 0.37109,0.54687 85.008789,66.191269 0 0 0 0.0899,-1.40234 85.008789,66.191269 0 0 0 -85.00781,-66.19141 z"
       id="path5798"
       inkscape:connector-curvature="0" />
    <path
       inkscape:connector-curvature="0"
       id="path5807"
       d="m 339.63265,384.38912 a 66.191269,85.008789 56.282141 0 0 -33.96643,102.24601 66.191269,85.008789 56.282141 0 0 1.4912,2.02686 84.683296,100.04044 56.282141 0 1 0.17599,-4.58828 84.683296,100.04044 56.282141 0 1 1.2914,-8.96522 84.683296,100.04044 56.282141 0 1 2.2318,-8.93532 84.683296,100.04044 56.282141 0 1 3.14895,-8.81715 84.683296,100.04044 56.282141 0 1 4.03149,-8.61011 84.683296,100.04044 56.282141 0 1 4.87613,-8.31907 84.683296,100.04044 56.282141 0 1 5.67425,-7.94298 84.683296,100.04044 56.282141 0 1 6.41171,-7.48886 84.683296,100.04044 56.282141 0 1 7.08584,-6.95723 84.683296,100.04044 56.282141 0 1 7.69177,-6.35895 84.683296,100.04044 56.282141 0 1 5.76764,-4.10509 84.683296,100.04044 56.282141 0 1 8.54334,-5.192 84.683296,100.04044 56.282141 0 1 8.92613,-4.43543 84.683296,100.04044 56.282141 0 1 9.22175,-3.63711 84.683296,100.04044 56.282141 0 1 9.42368,-2.79974 84.683296,100.04044 56.282141 0 1 9.5346,-1.93687 84.683296,100.04044 56.282141 0 1 9.54531,-1.05174 84.683296,100.04044 56.282141 0 1 9.46559,-0.15789 84.683296,100.04044 56.282141 0 1 9.28942,0.73926 84.683296,100.04044 56.282141 0 1 9.02116,1.62505 84.683296,100.04044 56.282141 0 1 8.65974,2.49791 84.683296,100.04044 56.282141 0 1 0.61224,0.24888 66.191269,85.008789 56.282141 0 0 -0.70367,-1.21634 66.191269,85.008789 56.282141 0 0 -107.45099,-7.86862 z"
       style="opacity:0.24899998;fill:#ffffff;fill-opacity:1;fill-rule:evenodd;stroke:#a72c2c;stroke-width:8.84745216;stroke-linecap:round;stroke-linejoin:round;stroke-miterlimit:4;stroke-dasharray:none;stroke-opacity:1" />
    <path
       style="opacity:0.24899998;fill:#ffffff;fill-opacity:1;fill-rule:evenodd;stroke:#a72c2c;stroke-width:7.18972492;stroke-linecap:round;stroke-linejoin:round;stroke-miterlimit:4;stroke-dasharray:none;stroke-opacity:1"
       d="m 353.05235,380.33902 a 53.78916,69.080884 64.246586 0 0 -38.84859,78.46243 53.78916,69.080884 64.246586 0 0 0.9719,1.79911 68.816378,81.296089 64.246586 0 1 0.65825,-3.67281 68.816378,81.296089 64.246586 0 1 2.04878,-7.06974 68.816378,81.296089 64.246586 0 1 2.80222,-6.9398 68.816378,81.296089 64.246586 0 1 3.52705,-6.74142 68.816378,81.296089 64.246586 0 1 4.21399,-6.47544 68.816378,81.296089 64.246586 0 1 4.86098,-6.14609 68.816378,81.296089 64.246586 0 1 5.46096,-5.75356 68.816378,81.296089 64.246586 0 1 6.00333,-5.30505 68.816378,81.296089 64.246586 0 1 6.486,-4.80129 68.816378,81.296089 64.246586 0 1 6.90629,-4.25157 68.816378,81.296089 64.246586 0 1 5.10398,-2.65433 68.816378,81.296089 64.246586 0 1 7.46024,-3.21653 68.816378,81.296089 64.246586 0 1 7.68311,-2.56455 68.816378,81.296089 64.246586 0 1 7.83113,-1.88878 68.816378,81.296089 64.246586 0 1 7.89936,-1.19213 68.816378,81.296089 64.246586 0 1 7.89148,-0.48522 68.816378,81.296089 64.246586 0 1 7.80042,0.22835 68.816378,81.296089 64.246586 0 1 7.63563,0.93872 68.816378,81.296089 64.246586 0 1 7.39283,1.64092 68.816378,81.296089 64.246586 0 1 7.07719,2.32358 68.816378,81.296089 64.246586 0 1 6.68806,2.98537 68.816378,81.296089 64.246586 0 1 0.4647,0.26923 53.78916,69.080884 64.246586 0 0 -0.42935,-1.05813 53.78916,69.080884 64.246586 0 0 -85.58991,-18.43129 z"
       id="path5809"
       inkscape:connector-curvature="0" />
    <g
       id="g5825"
       transform="translate(0,-0.50507627)">
      <path
         style="opacity:0.24899998;fill:#550000;fill-opacity:1;fill-rule:evenodd;stroke:#a72c2c;stroke-width:8.84745216;stroke-linecap:round;stroke-linejoin:round;stroke-miterlimit:4;stroke-dasharray:none;stroke-opacity:1"
         d="m 393.97969,566.52396 a 85.008789,66.191269 0 0 0 85.00977,-66.19141 85.008789,66.191269 0 0 0 -0.11522,-2.51367 100.04044,84.683296 0 0 1 -2.69336,3.71874 100.04044,84.683296 0 0 1 -6.05079,6.74025 100.04044,84.683296 0 0 1 -6.81641,6.19335 100.04044,84.683296 0 0 1 -7.51366,5.58593 100.04044,84.683296 0 0 1 -8.13283,4.92383 100.04044,84.683296 0 0 1 -8.67382,4.21291 100.04044,84.683296 0 0 1 -9.12891,3.45702 100.04044,84.683296 0 0 1 -9.49022,2.66992 100.04044,84.683296 0 0 1 -9.75587,1.85353 100.04044,84.683296 0 0 1 -9.92773,1.01952 100.04044,84.683296 0 0 1 -7.07618,0.21289 100.04044,84.683296 0 0 1 -9.98827,-0.42384 100.04044,84.683296 0 0 1 -9.88672,-1.26562 100.04044,84.683296 0 0 1 -9.68945,-2.09374 100.04044,84.683296 0 0 1 -9.39258,-2.90236 100.04044,84.683296 0 0 1 -9.00587,-3.68163 100.04044,84.683296 0 0 1 -8.52343,-4.42383 100.04044,84.683296 0 0 1 -7.96094,-5.12305 100.04044,84.683296 0 0 1 -7.31641,-5.77148 100.04044,84.683296 0 0 1 -6.60155,-6.35938 100.04044,84.683296 0 0 1 -5.81642,-6.88476 100.04044,84.683296 0 0 1 -0.37107,-0.54688 85.008789,66.191269 0 0 0 -0.0899,1.40235 85.008789,66.191269 0 0 0 85.00782,66.19141 z"
         id="path5811"
         inkscape:connector-curvature="0" />
      <path
         inkscape:connector-curvature="0"
         id="path5813"
         d="m 447.27147,552.73641 a 66.191269,85.008789 56.282141 0 0 33.96642,-102.24602 66.191269,85.008789 56.282141 0 0 -1.49119,-2.02686 84.683296,100.04044 56.282141 0 1 -0.176,4.58828 84.683296,100.04044 56.282141 0 1 -1.29139,8.96521 84.683296,100.04044 56.282141 0 1 -2.23181,8.93533 84.683296,100.04044 56.282141 0 1 -3.14895,8.81715 84.683296,100.04044 56.282141 0 1 -4.03148,8.6101 84.683296,100.04044 56.282141 0 1 -4.87613,8.31907 84.683296,100.04044 56.282141 0 1 -5.67425,7.94298 84.683296,100.04044 56.282141 0 1 -6.41171,7.48887 84.683296,100.04044 56.282141 0 1 -7.08582,6.95726 84.683296,100.04044 56.282141 0 1 -7.69176,6.35896 84.683296,100.04044 56.282141 0 1 -5.76764,4.10508 84.683296,100.04044 56.282141 0 1 -8.54333,5.19201 84.683296,100.04044 56.282141 0 1 -8.92613,4.43543 84.683296,100.04044 56.282141 0 1 -9.22176,3.6371 84.683296,100.04044 56.282141 0 1 -9.42367,2.79975 84.683296,100.04044 56.282141 0 1 -9.5346,1.93686 84.683296,100.04044 56.282141 0 1 -9.54533,1.05173 84.683296,100.04044 56.282141 0 1 -9.46557,0.1579 84.683296,100.04044 56.282141 0 1 -9.28943,-0.73925 84.683296,100.04044 56.282141 0 1 -9.02116,-1.62505 84.683296,100.04044 56.282141 0 1 -8.65974,-2.49792 84.683296,100.04044 56.282141 0 1 -0.61224,-0.24888 66.191269,85.008789 56.282141 0 0 0.70367,1.21634 66.191269,85.008789 56.282141 0 0 107.45099,7.86863 z"
         style="opacity:0.24899998;fill:#550000;fill-opacity:1;fill-rule:evenodd;stroke:#a72c2c;stroke-width:8.84745216;stroke-linecap:round;stroke-linejoin:round;stroke-miterlimit:4;stroke-dasharray:none;stroke-opacity:1" />
      <path
         style="opacity:0.24899998;fill:#550000;fill-opacity:1;fill-rule:evenodd;stroke:#a72c2c;stroke-width:7.18972492;stroke-linecap:round;stroke-linejoin:round;stroke-miterlimit:4;stroke-dasharray:none;stroke-opacity:1"
         d="m 433.85177,556.78649 a 53.78916,69.080884 64.246586 0 0 38.84859,-78.46242 53.78916,69.080884 64.246586 0 0 -0.97191,-1.79911 68.816378,81.296089 64.246586 0 1 -0.65824,3.6728 68.816378,81.296089 64.246586 0 1 -2.04879,7.06975 68.816378,81.296089 64.246586 0 1 -2.80221,6.93979 68.816378,81.296089 64.246586 0 1 -3.52705,6.74142 68.816378,81.296089 64.246586 0 1 -4.214,6.47545 68.816378,81.296089 64.246586 0 1 -4.86098,6.14609 68.816378,81.296089 64.246586 0 1 -5.46095,5.75355 68.816378,81.296089 64.246586 0 1 -6.00334,5.30506 68.816378,81.296089 64.246586 0 1 -6.48599,4.8013 68.816378,81.296089 64.246586 0 1 -6.90629,4.25155 68.816378,81.296089 64.246586 0 1 -5.10399,2.65434 68.816378,81.296089 64.246586 0 1 -7.46023,3.21652 68.816378,81.296089 64.246586 0 1 -7.68311,2.56456 68.816378,81.296089 64.246586 0 1 -7.83113,1.88877 68.816378,81.296089 64.246586 0 1 -7.89936,1.19214 68.816378,81.296089 64.246586 0 1 -7.89148,0.48522 68.816378,81.296089 64.246586 0 1 -7.80042,-0.22834 68.816378,81.296089 64.246586 0 1 -7.63563,-0.93872 68.816378,81.296089 64.246586 0 1 -7.39283,-1.64094 68.816378,81.296089 64.246586 0 1 -7.07719,-2.32358 68.816378,81.296089 64.246586 0 1 -6.68807,-2.98536 68.816378,81.296089 64.246586 0 1 -0.46469,-0.26922 53.78916,69.080884 64.246586 0 0 0.42934,1.05812 53.78916,69.080884 64.246586 0 0 85.58991,18.43129 z"
         id="path5815"
         inkscape:connector-curvature="0" />
    </g>
    <g
       id="g4151"
       transform="matrix(1.2773738,0,0,1.2773738,-59.341041,-32.466923)"
       style="fill:#ececec;stroke:#550000;stroke-opacity:1;stroke-width:0.3914281;stroke-miterlimit:4;stroke-dasharray:none">
      <path
         style="opacity:1;fill:#ececec;fill-opacity:1;fill-rule:evenodd;stroke:#550000;stroke-width:0.5;stroke-linecap:round;stroke-linejoin:round;stroke-miterlimit:4;stroke-dasharray:none;stroke-opacity:1"
         d="M 63.138672 49.578125 C 59.79908 49.701813 56.411556 51.104069 53.757812 53.757812 C 48.450325 59.0653 48.145836 67.305992 53.074219 72.234375 L 87.972656 107.13477 L 53.757812 141.34961 C 48.450325 146.6571 48.450322 155.20228 53.757812 160.50977 C 59.065303 165.81726 67.612434 165.81725 72.919922 160.50977 L 107.13477 126.29492 L 142.0332 161.19531 C 146.96159 166.1237 155.20228 165.81725 160.50977 160.50977 C 165.81725 155.20228 166.1237 146.96159 161.19531 142.0332 L 126.29492 107.13477 L 160.50977 72.919922 C 165.81725 67.612434 165.81726 59.065303 160.50977 53.757812 C 155.20228 48.450322 146.6571 48.450325 141.34961 53.757812 L 107.13477 87.972656 L 72.234375 53.074219 C 69.770184 50.610027 66.478264 49.454437 63.138672 49.578125 z "
         transform="matrix(0.7828562,0,0,0.7828562,270.18769,308.35676)"
         id="rect4138" />
    </g>
  </g>
</svg>
