<?xml version="1.0" encoding="UTF-8" standalone="no"?>
<!-- Created with Inkscape (http://www.inkscape.org/) -->

<svg
   xmlns:dc="http://purl.org/dc/elements/1.1/"
   xmlns:cc="http://creativecommons.org/ns#"
   xmlns:rdf="http://www.w3.org/1999/02/22-rdf-syntax-ns#"
   xmlns:svg="http://www.w3.org/2000/svg"
   xmlns="http://www.w3.org/2000/svg"
   xmlns:sodipodi="http://sodipodi.sourceforge.net/DTD/sodipodi-0.dtd"
   xmlns:inkscape="http://www.inkscape.org/namespaces/inkscape"
   width="210mm"
   height="297mm"
   viewBox="0 0 744.09448819 1052.3622047"
   id="svg4814"
   version="1.1"
   inkscape:version="0.91 r13725"
   sodipodi:docname="clouds.svg">
  <defs
     id="defs4816">
    <filter
       inkscape:collect="always"
       style="color-interpolation-filters:sRGB"
       id="filter6048"
       x="-0.17113101"
       width="1.342262"
       y="-0.29275866"
       height="1.5855173">
      <feGaussianBlur
         inkscape:collect="always"
         stdDeviation="10.235744"
         id="feGaussianBlur6050" />
    </filter>
    <filter
       inkscape:collect="always"
       style="color-interpolation-filters:sRGB"
       id="filter6080"
       x="-0.066550946"
       width="1.1331019"
       y="-0.11385059"
       height="1.2277012">
      <feGaussianBlur
         inkscape:collect="always"
         stdDeviation="5.0309742"
         id="feGaussianBlur6082" />
    </filter>
    <filter
       inkscape:collect="always"
       style="color-interpolation-filters:sRGB"
       id="filter6092"
       x="-0.17126743"
       width="1.3425349"
       y="-0.29236026"
       height="1.5847205">
      <feGaussianBlur
         inkscape:collect="always"
         stdDeviation="11.112096"
         id="feGaussianBlur6094" />
    </filter>
    <filter
       inkscape:collect="always"
       style="color-interpolation-filters:sRGB"
       id="filter6096"
       x="-0.072825632"
       width="1.1456513"
       y="-0.099225104"
       height="1.1984502">
      <feGaussianBlur
         inkscape:collect="always"
         stdDeviation="5.5053143"
         id="feGaussianBlur6098" />
    </filter>
    <filter
       inkscape:collect="always"
       style="color-interpolation-filters:sRGB"
       id="filter6110"
       x="-0.15357351"
       width="1.307147"
       y="-0.36393815"
       height="1.7278763">
      <feGaussianBlur
         inkscape:collect="always"
         stdDeviation="9.049959"
         id="feGaussianBlur6112" />
    </filter>
    <filter
       inkscape:collect="always"
       style="color-interpolation-filters:sRGB"
       id="filter6114"
       x="-0.065736804"
       width="1.1314736"
       y="-0.11631498"
       height="1.23263">
      <feGaussianBlur
         inkscape:collect="always"
         stdDeviation="4.9694285"
         id="feGaussianBlur6116" />
    </filter>
    <filter
       inkscape:collect="always"
       style="color-interpolation-filters:sRGB"
       id="filter6124"
       x="-0.17576435"
       width="1.3515287"
       y="-0.2801259"
       height="1.5602518">
      <feGaussianBlur
         inkscape:collect="always"
         stdDeviation="10.043782"
         id="feGaussianBlur6126" />
    </filter>
    <filter
       inkscape:collect="always"
       style="color-interpolation-filters:sRGB"
       id="filter6132"
       x="-0.069857225"
       width="1.1397145"
       y="-0.10532289"
       height="1.2106458">
      <feGaussianBlur
         inkscape:collect="always"
         stdDeviation="5.2809151"
         id="feGaussianBlur6134" />
    </filter>
    <filter
       inkscape:collect="always"
       style="color-interpolation-filters:sRGB"
       id="filter6142"
       x="-0.17688163"
       width="1.3537633"
       y="-0.27733398"
       height="1.554668">
      <feGaussianBlur
         inkscape:collect="always"
         stdDeviation="10.234976"
         id="feGaussianBlur6144" />
    </filter>
    <filter
       inkscape:collect="always"
       style="color-interpolation-filters:sRGB"
       id="filter6146"
       x="-0.0687873"
       width="1.1375746"
       y="-0.1078521"
       height="1.2157042">
      <feGaussianBlur
         inkscape:collect="always"
         stdDeviation="5.2000244"
         id="feGaussianBlur6148" />
    </filter>
  </defs>
  <sodipodi:namedview
     id="base"
     pagecolor="#ffffff"
     bordercolor="#666666"
     borderopacity="1.0"
     inkscape:pageopacity="0.0"
     inkscape:pageshadow="2"
     inkscape:zoom="0.7"
     inkscape:cx="215.99591"
     inkscape:cy="583.81267"
     inkscape:document-units="px"
     inkscape:current-layer="layer1"
     showgrid="false"
     inkscape:window-width="1440"
     inkscape:window-height="837"
     inkscape:window-x="-8"
     inkscape:window-y="-8"
     inkscape:window-maximized="1" />
  <metadata
     id="metadata4819">
    <rdf:RDF>
      <cc:Work
         rdf:about="">
        <dc:format>image/svg+xml</dc:format>
        <dc:type
           rdf:resource="http://purl.org/dc/dcmitype/StillImage" />
        <dc:title></dc:title>
      </cc:Work>
    </rdf:RDF>
  </metadata>
  <g
     inkscape:label="Livello 1"
     inkscape:groupmode="layer"
     id="layer1">
    <rect
       style="opacity:1;fill:#00ffff;fill-opacity:1;stroke:none;stroke-width:0.60000002;stroke-miterlimit:4;stroke-dasharray:none;stroke-opacity:1"
       id="rect5362"
       width="562.85712"
       height="545.71429"
       x="60.35714"
       y="334.50507"
       sodipodi:insensitive="true" />
    <g
       id="g6086"
       transform="translate(-44.285714,-37.142857)">
      <path
         inkscape:connector-curvature="0"
         id="path5364"
         d="m 195.06237,392.49845 a 40.322579,36.738352 0 0 0 -38.40928,25.59615 24.439174,29.408986 0 0 0 -5.10326,-0.66208 24.439174,29.408986 0 0 0 -24.43823,29.41052 24.439174,29.408986 0 0 0 24.43823,29.40783 24.439174,29.408986 0 0 0 7.72061,-1.54398 17.857143,13.863528 0 0 0 17.3569,10.67647 17.857143,13.863528 0 0 0 17.70885,-12.17754 36.578338,38.124706 0 0 0 34.42424,25.34687 36.578338,38.124706 0 0 0 25.28913,-10.59872 31.394008,28.420236 0 0 0 23.09725,9.2129 31.394008,28.420236 0 0 0 31.39479,-28.41873 31.394008,28.420236 0 0 0 -18.45508,-25.86421 40.898617,30.846353 0 0 0 4.05411,-13.30067 40.898617,30.846353 0 0 0 -40.89966,-30.84728 40.898617,30.846353 0 0 0 -26.71253,7.54028 40.322579,36.738352 0 0 0 -31.46607,-13.77781 z"
         style="opacity:1;fill:#ffffff;fill-opacity:1;stroke:none;stroke-width:0.60000002;stroke-miterlimit:4;stroke-dasharray:none;stroke-opacity:1;filter:url(#filter6080)" />
      <path
         style="opacity:1;fill:#cccccc;fill-opacity:1;stroke:none;stroke-width:0.60000002;stroke-miterlimit:4;stroke-dasharray:none;stroke-opacity:1;filter:url(#filter6048)"
         d="m 195.16078,409.64131 a 31.903707,29.067823 0 0 0 -30.38989,20.25198 19.336567,23.268741 0 0 0 -4.03776,-0.52385 19.336567,23.268741 0 0 0 -19.33582,23.26996 19.336567,23.268741 0 0 0 19.33582,23.26782 19.336567,23.268741 0 0 0 6.10864,-1.2216 14.128785,10.968989 0 0 0 13.73299,8.44734 14.128785,10.968989 0 0 0 14.01145,-9.63501 28.941218,30.164723 0 0 0 27.23687,20.05475 28.941218,30.164723 0 0 0 20.00906,-8.38584 24.839314,22.48643 0 0 0 18.27483,7.28936 24.839314,22.48643 0 0 0 24.83993,-22.48524 24.839314,22.48643 0 0 0 -14.60188,-20.46408 32.359475,24.406004 0 0 0 3.20766,-10.52364 32.359475,24.406004 0 0 0 -32.36031,-24.40674 32.359475,24.406004 0 0 0 -21.13526,5.96595 31.903707,29.067823 0 0 0 -24.89633,-10.90116 z"
         id="path6038"
         inkscape:connector-curvature="0" />
    </g>
    <g
       id="g6100"
       transform="translate(5.7142857,-10)">
      <path
         inkscape:connector-curvature="0"
         id="path5396"
         d="m 450.96163,363.48793 a 54.176867,40.763083 0 0 0 -47.28073,20.90275 39.057743,31.251696 0 0 0 -13.19479,-1.87998 39.057743,31.251696 0 0 0 -39.05726,31.25382 39.057743,31.251696 0 0 0 12.53332,22.88677 32.758106,24.457847 0 0 0 -12.53332,19.23456 32.758106,24.457847 0 0 0 32.75613,24.45837 32.758106,24.457847 0 0 0 12.47133,-1.86513 44.097452,40.763083 0 0 0 36.66635,18.16823 44.097452,40.763083 0 0 0 27.9123,-9.23644 41.577596,40.763083 0 0 0 22.48624,6.52051 41.577596,40.763083 0 0 0 41.57563,-40.76521 41.577596,40.763083 0 0 0 -3.65526,-16.58549 32.758106,33.969234 0 0 0 11.21728,-25.53583 32.758106,33.969234 0 0 0 -32.75957,-33.96976 32.758106,33.969234 0 0 0 -7.6895,0.99199 54.176867,40.763083 0 0 0 -41.44815,-14.57916 z"
         style="opacity:1;fill:#ffffff;fill-opacity:1;stroke:none;stroke-width:0.60000002;stroke-miterlimit:4;stroke-dasharray:none;stroke-opacity:1;filter:url(#filter6096)" />
      <path
         style="opacity:1;fill:#cccccc;fill-opacity:1;stroke:none;stroke-width:0.60000002;stroke-miterlimit:4;stroke-dasharray:none;stroke-opacity:1;filter:url(#filter6092)"
         d="m 446.85473,399.20221 a 46.498316,27.924418 0 0 0 -40.57958,14.31926 33.522044,21.40872 0 0 0 -11.32467,-1.28787 33.522044,21.40872 0 0 0 -33.52163,21.41018 33.522044,21.40872 0 0 0 10.75696,15.67839 28.115262,16.754649 0 0 0 -10.75696,13.17648 28.115262,16.754649 0 0 0 28.11357,16.75501 28.115262,16.754649 0 0 0 10.70375,-1.27769 37.847469,27.924418 0 0 0 31.46959,12.44599 37.847469,27.924418 0 0 0 23.95625,-6.32734 35.684755,27.924418 0 0 0 19.29925,4.46682 35.684755,27.924418 0 0 0 35.68306,-27.92588 35.684755,27.924418 0 0 0 -3.13719,-11.36175 28.115262,23.270347 0 0 0 9.62743,-17.49311 28.115262,23.270347 0 0 0 -28.11651,-23.27071 28.115262,23.270347 0 0 0 -6.59966,0.67955 46.498316,27.924418 0 0 0 -35.57366,-9.98733 z"
         id="path6090"
         inkscape:connector-curvature="0" />
    </g>
    <g
       id="g6118"
       transform="translate(-112.85714,-28.571429)">
      <path
         inkscape:connector-curvature="0"
         id="path5378"
         d="m 287.93382,540.09073 a 34.017908,30.924417 0 0 0 -28.4799,14.05746 30.868102,25.227815 0 0 0 -13.72717,-2.66548 30.868102,25.227815 0 0 0 -30.82096,24.43928 23.308567,17.90361 0 0 0 -0.67722,-0.0252 23.308567,17.90361 0 0 0 -23.3106,17.90621 23.308567,17.90361 0 0 0 23.10597,17.89361 20.158761,20.34501 0 0 0 19.73204,16.28551 20.158761,20.34501 0 0 0 12.648,-4.51275 26.458373,22.786413 0 0 0 22.63094,11.02065 26.458373,22.786413 0 0 0 21.46651,-9.50067 24.56849,31.738218 0 0 0 22,17.6387 24.56849,31.738218 0 0 0 19.68818,-12.81127 24.56849,27.669217 0 0 0 15.59075,6.30337 24.56849,27.669217 0 0 0 24.56761,-27.67122 24.56849,27.669217 0 0 0 -14.00488,-24.94279 27.718296,17.90361 0 0 0 2.66504,-7.60935 27.718296,17.90361 0 0 0 -27.71741,-17.90303 27.718296,17.90361 0 0 0 -13.48113,2.28469 34.017908,30.924417 0 0 0 -31.87577,-20.18774 z"
         style="opacity:1;fill:#ffffff;fill-opacity:1;stroke:none;stroke-width:0.60000002;stroke-miterlimit:4;stroke-dasharray:none;stroke-opacity:1;filter:url(#filter6114)" />
      <path
         style="opacity:1;fill:#cccccc;fill-opacity:1;stroke:none;stroke-width:0.60000002;stroke-miterlimit:4;stroke-dasharray:none;stroke-opacity:1;filter:url(#filter6110)"
         d="m 285.1161,572.94786 a 26.517956,17.999056 0 0 0 -22.20092,8.18192 24.06259,14.683441 0 0 0 -10.70073,-1.5514 24.06259,14.683441 0 0 0 -24.02584,14.22449 18.169711,10.420506 0 0 0 -0.52791,-0.0147 18.169711,10.420506 0 0 0 -18.1713,10.42202 18.169711,10.420506 0 0 0 18.01178,10.41469 15.714345,11.841483 0 0 0 15.3817,9.47871 15.714345,11.841483 0 0 0 9.85949,-2.62657 20.625077,13.262462 0 0 0 17.64148,6.41439 20.625077,13.262462 0 0 0 16.73377,-5.52971 19.151858,18.472715 0 0 0 17.14965,10.26632 19.151858,18.472715 0 0 0 15.34751,-7.45659 19.151858,16.104419 0 0 0 12.15345,3.66877 19.151858,16.104419 0 0 0 19.15117,-16.10558 19.151858,16.104419 0 0 0 -10.91721,-14.51755 21.607224,10.420506 0 0 0 2.07747,-4.4289 21.607224,10.420506 0 0 0 -21.60653,-10.42017 21.607224,10.420506 0 0 0 -10.50894,1.32977 26.517956,17.999056 0 0 0 -24.84809,-11.74995 z"
         id="path6104"
         inkscape:connector-curvature="0" />
    </g>
    <g
       id="g6136">
      <path
         inkscape:connector-curvature="0"
         id="path5410"
         d="m 476.38405,536.31186 a 38.877857,24.067244 0 0 0 -38.51338,20.9753 26.844234,22.215918 0 0 0 -20.72726,21.60557 26.844234,22.215918 0 0 0 10.2105,17.40644 25.918571,24.067244 0 0 0 -6.50747,15.91562 25.918571,24.067244 0 0 0 25.91857,24.06833 25.918571,24.067244 0 0 0 0.0936,-0.003 39.803519,19.438929 0 0 0 -0.0936,0.92892 39.803519,19.438929 0 0 0 39.80171,19.43893 39.803519,19.438929 0 0 0 29.82407,-6.59354 47.208825,34.249542 0 0 0 23.86583,4.74076 47.208825,34.249542 0 0 0 47.20775,-34.24845 47.208825,34.249542 0 0 0 -0.52647,-4.86227 52.762808,35.175204 0 0 0 11.63551,-21.98269 52.762808,35.175204 0 0 0 -30.31257,-31.78568 40.729184,22.215918 0 0 0 -40.03965,-18.19869 40.729184,22.215918 0 0 0 -20.00335,2.89306 38.877857,24.067244 0 0 0 -31.83379,-10.29908 z"
         style="opacity:1;fill:#ffffff;fill-opacity:1;stroke:none;stroke-width:0.60000002;stroke-miterlimit:4;stroke-dasharray:none;stroke-opacity:1;filter:url(#filter6132)" />
      <path
         style="opacity:1;fill:#cccccc;fill-opacity:1;stroke:none;stroke-width:0.60000002;stroke-miterlimit:4;stroke-dasharray:none;stroke-opacity:1;filter:url(#filter6124)"
         d="m 483.35242,564.88316 a 29.388061,17.210122 0 0 0 -29.11255,14.99912 20.291756,15.886266 0 0 0 -15.66789,15.44981 20.291756,15.886266 0 0 0 7.71819,12.44708 19.59204,17.210122 0 0 0 -4.91904,11.38102 19.59204,17.210122 0 0 0 19.59204,17.2109 19.59204,17.210122 0 0 0 0.0707,-0.002 30.087776,13.900484 0 0 0 -0.0707,0.66426 30.087776,13.900484 0 0 0 30.08641,13.90049 30.087776,13.900484 0 0 0 22.54423,-4.71494 35.685502,24.491329 0 0 0 18.04036,3.39004 35.685502,24.491329 0 0 0 35.68469,-24.49055 35.685502,24.491329 0 0 0 -0.39796,-3.47693 39.883799,25.153256 0 0 0 8.79537,-15.71949 39.883799,25.153256 0 0 0 -22.9135,-22.72946 30.787493,15.886266 0 0 0 -30.26627,-13.01361 30.787493,15.886266 0 0 0 -15.12068,2.06879 29.388061,17.210122 0 0 0 -24.0634,-7.36472 z"
         id="path6122"
         inkscape:connector-curvature="0" />
    </g>
    <g
       id="g6150">
      <path
         inkscape:connector-curvature="0"
         id="path5428"
         d="m 234.25362,716.64844 a 35.49681,16.912077 0 0 0 -35.49488,16.91068 35.49681,16.912077 0 0 0 1.04881,4.00619 44.371014,20.472516 0 0 0 -18.60887,6.18209 24.650564,17.802187 0 0 0 -5.11999,-0.39673 24.650564,17.802187 0 0 0 -24.65096,17.8015 24.650564,17.802187 0 0 0 11.82265,15.17532 28.594652,20.472516 0 0 0 -5.90459,12.42015 28.594652,20.472516 0 0 0 23.81245,20.15993 37.468856,15.13186 0 0 0 -0.14829,1.20235 37.468856,15.13186 0 0 0 37.46847,15.13152 37.468856,15.13186 0 0 0 9.53901,-0.50869 46.343061,25.813171 0 0 0 32.86073,7.63025 46.343061,25.813171 0 0 0 44.78045,-19.29103 39.4409,29.373608 0 0 0 27.19881,-27.88511 39.4409,29.373608 0 0 0 -16.95342,-24.11988 48.315104,18.692297 0 0 0 7.09358,-9.70393 48.315104,18.692297 0 0 0 -48.31511,-18.6923 48.315104,18.692297 0 0 0 -4.98788,0.11926 35.49681,16.912077 0 0 0 -35.44097,-16.14157 z"
         style="opacity:1;fill:#ffffff;fill-opacity:1;stroke:none;stroke-width:0.60000002;stroke-miterlimit:4;stroke-dasharray:none;stroke-opacity:1;filter:url(#filter6146)" />
      <path
         style="opacity:1;fill:#cccccc;fill-opacity:1;stroke:none;stroke-width:0.60000002;stroke-miterlimit:4;stroke-dasharray:none;stroke-opacity:1;filter:url(#filter6142)"
         d="m 234.82537,740.93415 a 27.170418,12.945056 0 0 0 -27.16894,12.94399 27.170418,12.945056 0 0 0 0.80279,3.06647 33.963023,15.670332 0 0 0 -14.24383,4.73197 18.868347,13.626375 0 0 0 -3.91901,-0.30367 18.868347,13.626375 0 0 0 -18.86865,13.62585 18.868347,13.626375 0 0 0 9.04944,11.61568 21.88728,15.670332 0 0 0 -4.51956,9.50679 21.88728,15.670332 0 0 0 18.22682,15.43107 28.679886,11.58242 0 0 0 -0.1135,0.92032 28.679886,11.58242 0 0 0 28.67959,11.58216 28.679886,11.58242 0 0 0 7.30147,-0.38937 35.472492,19.758244 0 0 0 25.15267,5.84044 35.472492,19.758244 0 0 0 34.27642,-14.76598 30.189353,22.483519 0 0 0 20.81886,-21.34418 30.189353,22.483519 0 0 0 -12.9767,-18.46214 36.981958,14.307695 0 0 0 5.42966,-7.4277 36.981958,14.307695 0 0 0 -36.98197,-14.3077 36.981958,14.307695 0 0 0 -3.81788,0.0913 27.170418,12.945056 0 0 0 -27.12768,-12.35528 z"
         id="path6140"
         inkscape:connector-curvature="0" />
    </g>
  </g>
</svg>
