<?xml version="1.0" encoding="UTF-8" standalone="no"?>
<!-- Created with Inkscape (http://www.inkscape.org/) -->

<svg
   xmlns:dc="http://purl.org/dc/elements/1.1/"
   xmlns:cc="http://creativecommons.org/ns#"
   xmlns:rdf="http://www.w3.org/1999/02/22-rdf-syntax-ns#"
   xmlns:svg="http://www.w3.org/2000/svg"
   xmlns="http://www.w3.org/2000/svg"
   xmlns:sodipodi="http://sodipodi.sourceforge.net/DTD/sodipodi-0.dtd"
   xmlns:inkscape="http://www.inkscape.org/namespaces/inkscape"
   width="60.35746mm"
   height="44.728931mm"
   viewBox="0 0 213.86502 158.48834"
   id="svg8032"
   version="1.1"
   inkscape:version="0.91 r13725"
   sodipodi:docname="cloud4.svg">
  <defs
     id="defs8034" />
  <sodipodi:namedview
     id="base"
     pagecolor="#ffffff"
     bordercolor="#666666"
     borderopacity="1.0"
     inkscape:pageopacity="0.0"
     inkscape:pageshadow="2"
     inkscape:zoom="2.8"
     inkscape:cx="75.615825"
     inkscape:cy="60.239087"
     inkscape:document-units="px"
     inkscape:current-layer="layer1"
     showgrid="false"
     fit-margin-left="1"
     fit-margin-top="1"
     fit-margin-right="1"
     fit-margin-bottom="1"
     inkscape:window-width="1440"
     inkscape:window-height="837"
     inkscape:window-x="-8"
     inkscape:window-y="-8"
     inkscape:window-maximized="1" />
  <metadata
     id="metadata8037">
    <rdf:RDF>
      <cc:Work
         rdf:about="">
        <dc:format>image/svg+xml</dc:format>
        <dc:type
           rdf:resource="http://purl.org/dc/dcmitype/StillImage" />
        <dc:title />
      </cc:Work>
    </rdf:RDF>
  </metadata>
  <g
     inkscape:label="Livello 1"
     inkscape:groupmode="layer"
     id="layer1"
     transform="translate(-195.92464,-487.40375)">
    <path
       style="opacity:1;fill:#e5e6e8;fill-opacity:0.63137257;stroke:#1f1f1f;stroke-width:6;stroke-miterlimit:4;stroke-dasharray:none;stroke-opacity:0.54901963"
       d="m 271.38278,503.62172 a 38.877857,24.067244 0 0 0 -38.51338,20.9753 26.844234,22.215918 0 0 0 -20.72726,21.60557 26.844234,22.215918 0 0 0 10.2105,17.40644 25.918571,24.067244 0 0 0 -6.50747,15.91562 25.918571,24.067244 0 0 0 25.91857,24.06833 25.918571,24.067244 0 0 0 0.0936,-0.003 39.803519,19.438929 0 0 0 -0.0936,0.92892 39.803519,19.438929 0 0 0 39.80171,19.43893 39.803519,19.438929 0 0 0 29.82407,-6.59354 47.208825,34.249542 0 0 0 23.86583,4.74076 47.208825,34.249542 0 0 0 47.20775,-34.24845 47.208825,34.249542 0 0 0 -0.52647,-4.86227 52.762808,35.175204 0 0 0 11.63551,-21.98269 52.762808,35.175204 0 0 0 -30.31257,-31.78568 40.729184,22.215918 0 0 0 -40.03965,-18.19869 40.729184,22.215918 0 0 0 -20.00335,2.89306 38.877857,24.067244 0 0 0 -31.83379,-10.29908 z"
       id="path5410"
       inkscape:connector-curvature="0" />
    <path
       style="opacity:1;fill:#ececec;fill-opacity:1;fill-rule:evenodd;stroke:none;stroke-width:6;stroke-linecap:round;stroke-linejoin:round;stroke-miterlimit:4;stroke-dasharray:none;stroke-opacity:0.54901961"
       d="M 75.535156 22.060547 A 31.964285 20.535715 0 0 0 45.873047 34.986328 A 39.464287 19.642857 0 0 1 47.851562 33.691406 A 39.464287 19.642857 0 0 1 50.541016 32.253906 A 39.464287 19.642857 0 0 1 53.503906 30.958984 A 39.464287 19.642857 0 0 1 56.712891 29.816406 A 39.464287 19.642857 0 0 1 60.134766 28.839844 A 39.464287 19.642857 0 0 1 63.736328 28.037109 A 39.464287 19.642857 0 0 1 67.478516 27.417969 A 39.464287 19.642857 0 0 1 71.328125 26.988281 A 39.464287 19.642857 0 0 1 75.244141 26.751953 A 39.464287 19.642857 0 0 1 78.035156 26.703125 A 39.464287 19.642857 0 0 1 81.974609 26.800781 A 39.464287 19.642857 0 0 1 85.876953 27.09375 A 39.464287 19.642857 0 0 1 89.697266 27.580078 A 39.464287 19.642857 0 0 1 93.404297 28.253906 A 39.464287 19.642857 0 0 1 96.955078 29.107422 A 39.464287 19.642857 0 0 1 100.31836 30.132812 A 39.464287 19.642857 0 0 1 101.34375 30.521484 A 31.964285 20.535715 0 0 0 75.535156 22.060547 z "
       id="path5307"
       transform="translate(195.92464,487.40375)" />
    <path
       style="opacity:1;fill:#ececec;fill-opacity:1;fill-rule:evenodd;stroke:none;stroke-width:6;stroke-linecap:round;stroke-linejoin:round;stroke-miterlimit:4;stroke-dasharray:none;stroke-opacity:0.54901961"
       d="m 323.60266,516.9629 a 33.035717,17.142859 0 0 0 -20.61133,3.75 42.678574,21.607141 0 0 1 0.62305,-0.10547 42.678574,21.607141 0 0 1 4.16406,-0.47265 42.678574,21.607141 0 0 1 4.23437,-0.25977 42.678574,21.607141 0 0 1 3.01953,-0.0547 42.678574,21.607141 0 0 1 4.25977,0.10743 42.678574,21.607141 0 0 1 4.21875,0.32421 42.678574,21.607141 0 0 1 4.13281,0.53321 42.678574,21.607141 0 0 1 4.00781,0.74023 42.678574,21.607141 0 0 1 3.8418,0.93946 42.678574,21.607141 0 0 1 3.63672,1.1289 42.678574,21.607141 0 0 1 3.39648,1.3086 42.678574,21.607141 0 0 1 3.1211,1.4707 42.678574,21.607141 0 0 1 2.8164,1.62305 42.678574,21.607141 0 0 1 2.48047,1.75781 42.678574,21.607141 0 0 1 2.12305,1.87304 42.678574,21.607141 0 0 1 1.74219,1.97071 42.678574,21.607141 0 0 1 1.3457,2.05078 42.678574,21.607141 0 0 1 0.22266,0.5 33.035717,17.142859 0 0 0 0.26172,-2.04297 33.035717,17.142859 0 0 0 -33.03711,-17.14258 z"
       id="path5314"
       inkscape:connector-curvature="0" />
    <path
       style="opacity:1;fill:#ececec;fill-opacity:1;fill-rule:evenodd;stroke:none;stroke-width:6;stroke-linecap:round;stroke-linejoin:round;stroke-miterlimit:4;stroke-dasharray:none;stroke-opacity:0.54901961"
       d="M 35.929688 43.816406 A 17.321428 14.821428 0 0 0 22.142578 58.310547 A 17.321428 14.821428 0 0 0 30.640625 71.044922 A 23.392857 19.821428 0 0 1 30.136719 70.447266 A 23.392857 19.821428 0 0 1 28.972656 68.728516 A 23.392857 19.821428 0 0 1 28.017578 66.919922 A 23.392857 19.821428 0 0 1 27.28125 65.041016 A 23.392857 19.821428 0 0 1 26.769531 63.107422 A 23.392857 19.821428 0 0 1 26.486328 61.140625 A 23.392857 19.821428 0 0 1 26.427734 59.738281 A 23.392857 19.821428 0 0 1 26.544922 57.759766 A 23.392857 19.821428 0 0 1 26.894531 55.800781 A 23.392857 19.821428 0 0 1 27.472656 53.880859 A 23.392857 19.821428 0 0 1 28.275391 52.019531 A 23.392857 19.821428 0 0 1 29.292969 50.236328 A 23.392857 19.821428 0 0 1 30.513672 48.546875 A 23.392857 19.821428 0 0 1 31.929688 46.96875 A 23.392857 19.821428 0 0 1 33.523438 45.519531 A 23.392857 19.821428 0 0 1 35.279297 44.210938 A 23.392857 19.821428 0 0 1 35.929688 43.816406 z "
       id="path5326"
       transform="translate(195.92464,487.40375)" />
    <path
       style="opacity:1;fill:#ececec;fill-opacity:1;fill-rule:evenodd;stroke:none;stroke-width:6;stroke-linecap:round;stroke-linejoin:round;stroke-miterlimit:4;stroke-dasharray:none;stroke-opacity:0.54901961"
       d="M 33.261719 77.986328 A 22.142857 18.75 0 0 0 26.427734 91.523438 A 22.142857 18.75 0 0 0 45.677734 110.0918 A 28.928572 25.714285 0 0 1 43.666016 108.99609 A 28.928572 25.714285 0 0 1 41.363281 107.44141 A 28.928572 25.714285 0 0 1 39.248047 105.68945 A 28.928572 25.714285 0 0 1 37.339844 103.75781 A 28.928572 25.714285 0 0 1 35.658203 101.66797 A 28.928572 25.714285 0 0 1 34.21875 99.4375 A 28.928572 25.714285 0 0 1 33.037109 97.091797 A 28.928572 25.714285 0 0 1 32.125 94.652344 A 28.928572 25.714285 0 0 1 31.492188 92.144531 A 28.928572 25.714285 0 0 1 31.144531 89.59375 A 28.928572 25.714285 0 0 1 31.072266 87.773438 A 28.928572 25.714285 0 0 1 31.216797 85.207031 A 28.928572 25.714285 0 0 1 31.648438 82.666016 A 28.928572 25.714285 0 0 1 32.363281 80.175781 A 28.928572 25.714285 0 0 1 33.261719 77.986328 z "
       id="path5333"
       transform="translate(195.92464,487.40375)" />
    <path
       style="opacity:1;fill:#ececec;fill-opacity:1;fill-rule:evenodd;stroke:none;stroke-width:6;stroke-linecap:round;stroke-linejoin:round;stroke-miterlimit:4;stroke-dasharray:none;stroke-opacity:0.54901961"
       d="m 386.82545,561.756 a 28.952399,20.43576 8.5876205 0 0 0.30177,-1.57017 28.952399,20.43576 8.5876205 0 0 -26.2662,-24.17434 28.952399,20.43576 8.5876205 0 0 -2.34584,-0.23928 40.675061,22.679595 27.30094 0 1 2.08666,0.99676 40.675061,22.679595 27.30094 0 1 3.57964,1.92324 40.675061,22.679595 27.30094 0 1 3.44869,2.10915 40.675061,22.679595 27.30094 0 1 3.28268,2.27437 40.675061,22.679595 27.30094 0 1 3.08211,2.41494 40.675061,22.679595 27.30094 0 1 2.85225,2.53357 40.675061,22.679595 27.30094 0 1 2.5934,2.62834 40.675061,22.679595 27.30094 0 1 2.30802,2.69356 40.675061,22.679595 27.30094 0 1 2.00149,2.73197 40.675061,22.679595 27.30094 0 1 1.67353,2.74553 40.675061,22.679595 27.30094 0 1 1.32856,2.72882 40.675061,22.679595 27.30094 0 1 0.0733,0.20354 z"
       id="path5342"
       inkscape:connector-curvature="0" />
  </g>
</svg>
