<?xml version="1.0" encoding="UTF-8" standalone="no"?>
<!-- Created with Inkscape (http://www.inkscape.org/) -->

<svg
   xmlns:dc="http://purl.org/dc/elements/1.1/"
   xmlns:cc="http://creativecommons.org/ns#"
   xmlns:rdf="http://www.w3.org/1999/02/22-rdf-syntax-ns#"
   xmlns:svg="http://www.w3.org/2000/svg"
   xmlns="http://www.w3.org/2000/svg"
   xmlns:sodipodi="http://sodipodi.sourceforge.net/DTD/sodipodi-0.dtd"
   xmlns:inkscape="http://www.inkscape.org/namespaces/inkscape"
   width="60.247787mm"
   height="44.305508mm"
   viewBox="0 0 213.47641 156.98802"
   id="svg8643"
   version="1.1"
   inkscape:version="0.91 r13725"
   sodipodi:docname="cloud5.svg">
  <defs
     id="defs8645" />
  <sodipodi:namedview
     id="base"
     pagecolor="#ffffff"
     bordercolor="#666666"
     borderopacity="1.0"
     inkscape:pageopacity="0.0"
     inkscape:pageshadow="2"
     inkscape:zoom="2.8"
     inkscape:cx="103.66296"
     inkscape:cy="86.372769"
     inkscape:document-units="px"
     inkscape:current-layer="layer1"
     showgrid="false"
     fit-margin-top="1"
     fit-margin-left="1"
     fit-margin-right="1"
     fit-margin-bottom="1"
     inkscape:window-width="1440"
     inkscape:window-height="837"
     inkscape:window-x="-8"
     inkscape:window-y="-8"
     inkscape:window-maximized="1" />
  <metadata
     id="metadata8648">
    <rdf:RDF>
      <cc:Work
         rdf:about="">
        <dc:format>image/svg+xml</dc:format>
        <dc:type
           rdf:resource="http://purl.org/dc/dcmitype/StillImage" />
        <dc:title />
      </cc:Work>
    </rdf:RDF>
  </metadata>
  <g
     inkscape:label="Livello 1"
     inkscape:groupmode="layer"
     id="layer1"
     transform="translate(-141.83322,-513.86819)">
    <path
       style="opacity:1;fill:#e5e6e8;fill-opacity:0.63137257;stroke:#1f1f1f;stroke-width:6;stroke-miterlimit:4;stroke-dasharray:none;stroke-opacity:0.54901963"
       d="m 240.68248,529.89156 a 35.49681,16.912077 0 0 0 -35.49488,16.91068 35.49681,16.912077 0 0 0 1.04881,4.00619 44.371014,20.472516 0 0 0 -18.60887,6.18209 24.650564,17.802187 0 0 0 -5.11999,-0.39673 24.650564,17.802187 0 0 0 -24.65096,17.8015 24.650564,17.802187 0 0 0 11.82265,15.17532 28.594652,20.472516 0 0 0 -5.90459,12.42015 28.594652,20.472516 0 0 0 23.81245,20.15993 37.468856,15.13186 0 0 0 -0.14829,1.20235 37.468856,15.13186 0 0 0 37.46847,15.13152 37.468856,15.13186 0 0 0 9.53901,-0.50869 46.343061,25.813171 0 0 0 32.86073,7.63025 46.343061,25.813171 0 0 0 44.78045,-19.29103 39.4409,29.373608 0 0 0 27.19881,-27.88511 39.4409,29.373608 0 0 0 -16.95342,-24.11988 48.315104,18.692297 0 0 0 7.09358,-9.70393 48.315104,18.692297 0 0 0 -48.31511,-18.6923 48.315104,18.692297 0 0 0 -4.98788,0.11926 35.49681,16.912077 0 0 0 -35.44097,-16.14157 z"
       id="path5428"
       inkscape:connector-curvature="0" />
    <path
       style="opacity:1;fill:#008000;fill-opacity:1;fill-rule:evenodd;stroke:none;stroke-width:6;stroke-linecap:round;stroke-linejoin:round;stroke-miterlimit:4;stroke-dasharray:none;stroke-opacity:0.54901961"
       d="M 99.072266 52.697266 A 39.107143 12.142857 0 0 1 97.775391 52.677734 A 29.107143 15.535714 0 0 0 98.75 52.703125 A 29.107143 15.535714 0 0 0 99.072266 52.697266 z "
       id="path5897"
       transform="translate(141.83322,513.86819)" />
    <path
       style="opacity:1;fill:#ececec;fill-opacity:1;fill-rule:evenodd;stroke:none;stroke-width:6;stroke-linecap:round;stroke-linejoin:round;stroke-miterlimit:4;stroke-dasharray:none;stroke-opacity:0.54901961"
       d="M 98.75 21.630859 A 29.107143 15.535714 0 0 0 71.210938 32.185547 A 39.107143 12.142857 0 0 1 72.21875 31.849609 A 39.107143 12.142857 0 0 1 75.154297 31.046875 A 39.107143 12.142857 0 0 1 78.333984 30.341797 A 39.107143 12.142857 0 0 1 81.724609 29.738281 A 39.107143 12.142857 0 0 1 85.292969 29.242188 A 39.107143 12.142857 0 0 1 89.003906 28.859375 A 39.107143 12.142857 0 0 1 92.816406 28.59375 A 39.107143 12.142857 0 0 1 96.697266 28.447266 A 39.107143 12.142857 0 0 1 99.464844 28.416016 A 39.107143 12.142857 0 0 1 103.36914 28.476562 A 39.107143 12.142857 0 0 1 107.23438 28.658203 A 39.107143 12.142857 0 0 1 111.02148 28.958984 A 39.107143 12.142857 0 0 1 114.69336 29.375 A 39.107143 12.142857 0 0 1 118.21289 29.902344 A 39.107143 12.142857 0 0 1 121.54492 30.537109 A 39.107143 12.142857 0 0 1 124.6582 31.271484 A 39.107143 12.142857 0 0 1 125.94531 31.644531 A 29.107143 15.535714 0 0 0 98.75 21.630859 z "
       id="path5890"
       transform="translate(141.83322,513.86819)" />
    <path
       style="opacity:1;fill:#ececec;fill-opacity:1;fill-rule:evenodd;stroke:none;stroke-width:6;stroke-linecap:round;stroke-linejoin:round;stroke-miterlimit:4;stroke-dasharray:none;stroke-opacity:0.54901961"
       d="M 43.273438 48.429688 A 20 12.5 0 0 0 42.857422 48.416016 A 20 12.5 0 0 0 22.857422 60.916016 A 20 12.5 0 0 0 29.544922 70.228516 A 20.535715 17.321428 0 0 1 29.320312 69.65625 A 20.535715 17.321428 0 0 1 28.871094 67.96875 A 20.535715 17.321428 0 0 1 28.623047 66.248047 A 20.535715 17.321428 0 0 1 28.572266 65.023438 A 20.535715 17.321428 0 0 1 28.673828 63.294922 A 20.535715 17.321428 0 0 1 28.980469 61.582031 A 20.535715 17.321428 0 0 1 29.488281 59.904297 A 20.535715 17.321428 0 0 1 30.193359 58.279297 A 20.535715 17.321428 0 0 1 31.085938 56.71875 A 20.535715 17.321428 0 0 1 32.158203 55.244141 A 20.535715 17.321428 0 0 1 33.400391 53.865234 A 20.535715 17.321428 0 0 1 34.798828 52.597656 A 20.535715 17.321428 0 0 1 36.341797 51.455078 A 20.535715 17.321428 0 0 1 38.011719 50.447266 A 20.535715 17.321428 0 0 1 39.792969 49.585938 A 20.535715 17.321428 0 0 1 41.666016 48.878906 A 20.535715 17.321428 0 0 1 43.273438 48.429688 z "
       id="path5904"
       transform="translate(141.83322,513.86819)" />
    <path
       style="opacity:1;fill:#ececec;fill-opacity:1;fill-rule:evenodd;stroke:none;stroke-width:6;stroke-linecap:round;stroke-linejoin:round;stroke-miterlimit:4;stroke-dasharray:none;stroke-opacity:0.54901961"
       d="M 35.535156 75.443359 A 21.607143 15.535714 0 0 0 27.5 87.523438 A 21.607143 15.535714 0 0 0 49.107422 103.05859 A 21.607143 15.535714 0 0 0 52.679688 102.8418 A 26.25 17.321428 0 0 1 51.392578 102.71484 A 26.25 17.321428 0 0 1 48.849609 102.28516 A 26.25 17.321428 0 0 1 46.384766 101.69141 A 26.25 17.321428 0 0 1 44.021484 100.93945 A 26.25 17.321428 0 0 1 41.785156 100.0332 A 26.25 17.321428 0 0 1 39.697266 98.986328 A 26.25 17.321428 0 0 1 37.777344 97.806641 A 26.25 17.321428 0 0 1 36.044922 96.505859 A 26.25 17.321428 0 0 1 34.517578 95.097656 A 26.25 17.321428 0 0 1 33.212891 93.595703 A 26.25 17.321428 0 0 1 32.140625 92.013672 A 26.25 17.321428 0 0 1 31.314453 90.371094 A 26.25 17.321428 0 0 1 30.738281 88.681641 A 26.25 17.321428 0 0 1 30.423828 86.962891 A 26.25 17.321428 0 0 1 30.357422 85.738281 A 26.25 17.321428 0 0 1 30.488281 84.007812 A 26.25 17.321428 0 0 1 30.880859 82.296875 A 26.25 17.321428 0 0 1 31.529297 80.619141 A 26.25 17.321428 0 0 1 32.429688 78.992188 A 26.25 17.321428 0 0 1 33.570312 77.433594 A 26.25 17.321428 0 0 1 34.941406 75.957031 A 26.25 17.321428 0 0 1 35.535156 75.443359 z "
       id="path5918"
       transform="translate(141.83322,513.86819)" />
    <path
       style="opacity:1;fill:#808000;fill-opacity:1;fill-rule:evenodd;stroke:none;stroke-width:6;stroke-linecap:round;stroke-linejoin:round;stroke-miterlimit:4;stroke-dasharray:none;stroke-opacity:0.54901961"
       d="M 158.93555 60.890625 A 15.892857 8.9285717 0 0 1 158.78711 60.886719 A 31.526735 12.272727 0 0 1 158.41016 60.970703 A 30.085512 12.111244 0 0 0 158.93555 60.890625 z "
       id="path5932"
       transform="translate(141.83322,513.86819)" />
    <path
       style="opacity:1;fill:#ececec;fill-opacity:1;fill-rule:evenodd;stroke:none;stroke-width:6;stroke-linecap:round;stroke-linejoin:round;stroke-miterlimit:4;stroke-dasharray:none;stroke-opacity:0.54901961"
       d="M 149.20117 37.345703 A 30.085512 12.111244 0 0 0 138.59766 38.128906 A 31.526735 12.272727 0 0 1 140.84375 38.021484 A 31.526735 12.272727 0 0 1 143.07422 37.990234 A 31.526735 12.272727 0 0 1 146.22266 38.052734 A 31.526735 12.272727 0 0 1 149.33789 38.236328 A 31.526735 12.272727 0 0 1 152.39258 38.539062 A 31.526735 12.272727 0 0 1 155.35156 38.960938 A 31.526735 12.272727 0 0 1 158.18945 39.494141 A 31.526735 12.272727 0 0 1 160.87695 40.134766 A 31.526735 12.272727 0 0 1 163.38477 40.876953 A 31.526735 12.272727 0 0 1 165.69141 41.712891 A 31.526735 12.272727 0 0 1 167.77148 42.634766 A 31.526735 12.272727 0 0 1 169.60352 43.632812 A 31.526735 12.272727 0 0 1 171.17188 44.697266 A 31.526735 12.272727 0 0 1 172.45898 45.816406 A 31.526735 12.272727 0 0 1 173.45312 46.980469 A 31.526735 12.272727 0 0 1 174.05469 48.027344 A 15.892857 8.9285717 0 0 1 174.63477 48.751953 A 15.892857 8.9285717 0 0 1 175.13477 49.599609 A 15.892857 8.9285717 0 0 1 175.48242 50.470703 A 15.892857 8.9285717 0 0 1 175.67383 51.355469 A 15.892857 8.9285717 0 0 1 175.71484 51.988281 A 15.892857 8.9285717 0 0 1 175.63477 52.878906 A 15.892857 8.9285717 0 0 1 175.39844 53.761719 A 15.892857 8.9285717 0 0 1 175.00391 54.626953 A 15.892857 8.9285717 0 0 1 174.45898 55.464844 A 15.892857 8.9285717 0 0 1 173.76953 56.269531 A 15.892857 8.9285717 0 0 1 173.36914 56.634766 A 30.085512 12.111244 0 0 0 179.28516 49.457031 A 30.085512 12.111244 0 0 0 149.20117 37.345703 z "
       id="path5920"
       transform="translate(141.83322,513.86819)" />
  </g>
</svg>
