<?xml version="1.0" encoding="UTF-8" standalone="no"?>
<!-- Created with Inkscape (http://www.inkscape.org/) -->

<svg
   xmlns:dc="http://purl.org/dc/elements/1.1/"
   xmlns:cc="http://creativecommons.org/ns#"
   xmlns:rdf="http://www.w3.org/1999/02/22-rdf-syntax-ns#"
   xmlns:svg="http://www.w3.org/2000/svg"
   xmlns="http://www.w3.org/2000/svg"
   xmlns:sodipodi="http://sodipodi.sourceforge.net/DTD/sodipodi-0.dtd"
   xmlns:inkscape="http://www.inkscape.org/namespaces/inkscape"
   width="59.935493mm"
   height="37.670238mm"
   viewBox="0 0 212.36986 133.47722"
   id="svg7436"
   version="1.1"
   inkscape:version="0.91 r13725"
   sodipodi:docname="cloud3.svg">
  <defs
     id="defs7438" />
  <sodipodi:namedview
     id="base"
     pagecolor="#ffffff"
     bordercolor="#666666"
     borderopacity="1.0"
     inkscape:pageopacity="0.0"
     inkscape:pageshadow="2"
     inkscape:zoom="2.8"
     inkscape:cx="71.128391"
     inkscape:cy="46.548121"
     inkscape:document-units="px"
     inkscape:current-layer="layer1"
     showgrid="false"
     fit-margin-left="1"
     fit-margin-top="1"
     fit-margin-right="1"
     fit-margin-bottom="1"
     inkscape:window-width="1440"
     inkscape:window-height="837"
     inkscape:window-x="-8"
     inkscape:window-y="-8"
     inkscape:window-maximized="1" />
  <metadata
     id="metadata7441">
    <rdf:RDF>
      <cc:Work
         rdf:about="">
        <dc:format>image/svg+xml</dc:format>
        <dc:type
           rdf:resource="http://purl.org/dc/dcmitype/StillImage" />
        <dc:title />
      </cc:Work>
    </rdf:RDF>
  </metadata>
  <g
     inkscape:label="Livello 1"
     inkscape:groupmode="layer"
     id="layer1"
     transform="translate(-245.24365,-537.05217)">
    <path
       style="opacity:1;fill:#e5e6e8;fill-opacity:0.63137257;stroke:#1f1f1f;stroke-width:6;stroke-miterlimit:4;stroke-dasharray:none;stroke-opacity:0.54901963"
       d="m 287.93382,540.09073 a 34.017908,30.924417 0 0 0 -28.4799,14.05746 30.868102,25.227815 0 0 0 -13.72717,-2.66548 30.868102,25.227815 0 0 0 -30.82096,24.43928 23.308567,17.90361 0 0 0 -0.67722,-0.0252 23.308567,17.90361 0 0 0 -23.3106,17.90621 23.308567,17.90361 0 0 0 23.10597,17.89361 20.158761,20.34501 0 0 0 19.73204,16.28551 20.158761,20.34501 0 0 0 12.648,-4.51275 26.458373,22.786413 0 0 0 22.63094,11.02065 26.458373,22.786413 0 0 0 21.46651,-9.50067 24.56849,31.738218 0 0 0 22,17.6387 24.56849,31.738218 0 0 0 19.68818,-12.81127 24.56849,27.669217 0 0 0 15.59075,6.30337 24.56849,27.669217 0 0 0 24.56761,-27.67122 24.56849,27.669217 0 0 0 -14.00488,-24.94279 27.718296,17.90361 0 0 0 2.66504,-7.60935 27.718296,17.90361 0 0 0 -27.71741,-17.90303 27.718296,17.90361 0 0 0 -13.48113,2.28469 34.017908,30.924417 0 0 0 -31.87577,-20.18774 z"
       id="path5378"
       inkscape:connector-curvature="0"
       transform="matrix(-1,0,0,1,633.06154,12.431393)" />
    <path
       style="opacity:1;fill:#ececec;fill-opacity:1;fill-rule:evenodd;stroke:none;stroke-width:6;stroke-linecap:round;stroke-linejoin:round;stroke-miterlimit:4;stroke-dasharray:none;stroke-opacity:0.54901961"
       d="M 54.107422 38.121094 A 20.892859 15 0 0 0 33.214844 53.121094 A 20.892859 15 0 0 0 35.083984 59.275391 A 22.857143 16.607143 0 0 1 35.056641 59.117188 A 22.857143 16.607143 0 0 1 35 57.941406 A 22.857143 16.607143 0 0 1 35.113281 56.283203 A 22.857143 16.607143 0 0 1 35.455078 54.642578 A 22.857143 16.607143 0 0 1 36.021484 53.033203 A 22.857143 16.607143 0 0 1 36.804688 51.474609 A 22.857143 16.607143 0 0 1 37.798828 49.980469 A 22.857143 16.607143 0 0 1 38.992188 48.564453 A 22.857143 16.607143 0 0 1 40.375 47.242188 A 22.857143 16.607143 0 0 1 41.931641 46.027344 A 22.857143 16.607143 0 0 1 43.648438 44.933594 A 22.857143 16.607143 0 0 1 45.507812 43.966797 A 22.857143 16.607143 0 0 1 47.488281 43.140625 A 22.857143 16.607143 0 0 1 49.574219 42.462891 A 22.857143 16.607143 0 0 1 51.742188 41.939453 A 22.857143 16.607143 0 0 1 53.972656 41.576172 A 22.857143 16.607143 0 0 1 56.240234 41.375 A 22.857143 16.607143 0 0 1 57.857422 41.333984 A 22.857143 16.607143 0 0 1 60.138672 41.417969 A 22.857143 16.607143 0 0 1 62.398438 41.666016 A 22.857143 16.607143 0 0 1 64.611328 42.076172 A 22.857143 16.607143 0 0 1 66.757812 42.644531 A 22.857143 16.607143 0 0 1 68.816406 43.367188 A 22.857143 16.607143 0 0 1 70.763672 44.234375 A 22.857143 16.607143 0 0 1 71.087891 44.414062 A 20.892859 15 0 0 0 54.107422 38.121094 z "
       id="path4733"
       transform="translate(245.24365,537.05217)" />
    <path
       style="opacity:1;fill:#ececec;fill-opacity:1;fill-rule:evenodd;stroke:none;stroke-width:6;stroke-linecap:round;stroke-linejoin:round;stroke-miterlimit:4;stroke-dasharray:none;stroke-opacity:0.54901961"
       d="m 342.83846,560.06439 a 15.178572,25.535713 84.284684 0 0 -23.23244,13.14263 13.75,32.67857 84.284684 0 1 1.47944,-1.02548 13.75,32.67857 84.284684 0 1 2.11552,-1.22065 13.75,32.67857 84.284684 0 1 2.35049,-1.14799 13.75,32.67857 84.284684 0 1 2.56543,-1.05957 13.75,32.67857 84.284684 0 1 2.74988,-0.96222 13.75,32.67857 84.284684 0 1 2.91158,-0.85672 13.75,32.67857 84.284684 0 1 3.04102,-0.74011 13.75,32.67857 84.284684 0 1 3.1417,-0.61672 13.75,32.67857 84.284684 0 1 3.20954,-0.48805 13.75,32.67857 84.284684 0 1 2.29771,-0.26334 13.75,32.67857 84.284684 0 1 3.25231,-0.25675 13.75,32.67857 84.284684 0 1 3.23484,-0.11766 13.75,32.67857 84.284684 0 1 3.18217,0.0231 13.75,32.67857 84.284684 0 1 3.10018,0.1647 13.75,32.67857 84.284684 0 1 2.98631,0.30176 13.75,32.67857 84.284684 0 1 2.84269,0.43587 13.75,32.67857 84.284684 0 1 1.93335,0.41108 15.178572,25.535713 84.284684 0 0 -23.16171,-5.72384 z"
       id="path4740"
       inkscape:connector-curvature="0" />
    <path
       style="opacity:1;fill:#ececec;fill-opacity:1;fill-rule:evenodd;stroke:none;stroke-width:6;stroke-linecap:round;stroke-linejoin:round;stroke-miterlimit:4;stroke-dasharray:none;stroke-opacity:0.54901961"
       d="M 26.902344 67.96875 A 21.25 21.25 0 0 0 20.357422 83.298828 A 21.25 21.25 0 0 0 39.75 104.45703 A 23.75 26.964287 0 0 1 39.144531 104.20508 A 23.75 26.964287 0 0 1 37.005859 103.0332 A 23.75 26.964287 0 0 1 34.982422 101.625 A 23.75 26.964287 0 0 1 33.091797 99.994141 A 23.75 26.964287 0 0 1 31.355469 98.15625 A 23.75 26.964287 0 0 1 29.789062 96.130859 A 23.75 26.964287 0 0 1 28.408203 93.939453 A 23.75 26.964287 0 0 1 27.226562 91.601562 A 23.75 26.964287 0 0 1 26.257812 89.140625 A 23.75 26.964287 0 0 1 25.507812 86.583984 A 23.75 26.964287 0 0 1 24.988281 83.953125 A 23.75 26.964287 0 0 1 24.703125 81.277344 A 23.75 26.964287 0 0 1 24.642578 79.371094 A 23.75 26.964287 0 0 1 24.761719 76.677734 A 23.75 26.964287 0 0 1 25.117188 74.013672 A 23.75 26.964287 0 0 1 25.703125 71.402344 A 23.75 26.964287 0 0 1 26.517578 68.869141 A 23.75 26.964287 0 0 1 26.902344 67.96875 z "
       id="path4752"
       transform="translate(245.24365,537.05217)" />
    <path
       style="opacity:1;fill:#ececec;fill-opacity:1;fill-rule:evenodd;stroke:none;stroke-width:6;stroke-linecap:round;stroke-linejoin:round;stroke-miterlimit:4;stroke-dasharray:none;stroke-opacity:0.54901961"
       d="M 143.75 32.048828 A 23.035713 19.285715 0 0 0 131.91992 34.810547 A 27.321428 23.214285 0 0 1 133.39258 34.529297 A 27.321428 23.214285 0 0 1 136.10352 34.25 A 27.321428 23.214285 0 0 1 138.03516 34.191406 A 27.321428 23.214285 0 0 1 140.76367 34.306641 A 27.321428 23.214285 0 0 1 143.46289 34.654297 A 27.321428 23.214285 0 0 1 146.10938 35.228516 A 27.321428 23.214285 0 0 1 148.67578 36.023438 A 27.321428 23.214285 0 0 1 151.13477 37.033203 A 27.321428 23.214285 0 0 1 153.46289 38.246094 A 27.321428 23.214285 0 0 1 155.63672 39.650391 A 27.321428 23.214285 0 0 1 157.63477 41.232422 A 27.321428 23.214285 0 0 1 159.4375 42.974609 A 27.321428 23.214285 0 0 1 161.02539 44.863281 A 27.321428 23.214285 0 0 1 162.38477 46.875 A 27.321428 23.214285 0 0 1 163.5 48.994141 A 27.321428 23.214285 0 0 1 164.36133 51.195312 A 27.321428 23.214285 0 0 1 164.95898 53.460938 A 27.321428 23.214285 0 0 1 165.28906 55.763672 A 27.321428 23.214285 0 0 1 165.35742 57.40625 A 27.321428 23.214285 0 0 1 165.32031 58.035156 A 23.035713 19.285715 0 0 0 166.78516 51.333984 A 23.035713 19.285715 0 0 0 143.75 32.048828 z "
       id="path4754"
       transform="translate(245.24365,537.05217)" />
  </g>
</svg>
