<?xml version="1.0" encoding="UTF-8" standalone="no"?>
<!-- Created with Inkscape (http://www.inkscape.org/) -->

<svg
   xmlns:dc="http://purl.org/dc/elements/1.1/"
   xmlns:cc="http://creativecommons.org/ns#"
   xmlns:rdf="http://www.w3.org/1999/02/22-rdf-syntax-ns#"
   xmlns:svg="http://www.w3.org/2000/svg"
   xmlns="http://www.w3.org/2000/svg"
   xmlns:sodipodi="http://sodipodi.sourceforge.net/DTD/sodipodi-0.dtd"
   xmlns:inkscape="http://www.inkscape.org/namespaces/inkscape"
   width="61.636887mm"
   height="49.079128mm"
   viewBox="0 0 218.39842 173.90242"
   id="svg6795"
   version="1.1"
   inkscape:version="0.91 r13725"
   sodipodi:docname="cloud2.svg">
  <defs
     id="defs6797" />
  <sodipodi:namedview
     id="base"
     pagecolor="#ffffff"
     bordercolor="#666666"
     borderopacity="1.0"
     inkscape:pageopacity="0.0"
     inkscape:pageshadow="2"
     inkscape:zoom="2.8"
     inkscape:cx="105.01677"
     inkscape:cy="83.963186"
     inkscape:document-units="px"
     inkscape:current-layer="layer1"
     showgrid="false"
     fit-margin-left="1"
     fit-margin-top="1"
     fit-margin-right="1"
     fit-margin-bottom="1"
     inkscape:window-width="1440"
     inkscape:window-height="837"
     inkscape:window-x="-8"
     inkscape:window-y="-8"
     inkscape:window-maximized="1" />
  <metadata
     id="metadata6800">
    <rdf:RDF>
      <cc:Work
         rdf:about="">
        <dc:format>image/svg+xml</dc:format>
        <dc:type
           rdf:resource="http://purl.org/dc/dcmitype/StillImage" />
        <dc:title />
      </cc:Work>
    </rdf:RDF>
  </metadata>
  <g
     inkscape:label="Livello 1"
     inkscape:groupmode="layer"
     id="layer1"
     transform="translate(-199.37222,-342.55385)">
    <path
       style="opacity:1;fill:#e5e6e8;fill-opacity:0.62980771;stroke:#1f1f1f;stroke-width:6;stroke-miterlimit:4;stroke-dasharray:none;stroke-opacity:0.54807693"
       d="m 319.11734,359.30991 a 54.176867,40.763083 0 0 0 -47.28073,20.90275 39.057743,31.251696 0 0 0 -13.19479,-1.87998 39.057743,31.251696 0 0 0 -39.05726,31.25382 39.057743,31.251696 0 0 0 12.53332,22.88677 32.758106,24.457847 0 0 0 -12.53332,19.23456 32.758106,24.457847 0 0 0 32.75613,24.45837 32.758106,24.457847 0 0 0 12.47133,-1.86513 44.097452,40.763083 0 0 0 36.66635,18.16823 44.097452,40.763083 0 0 0 27.9123,-9.23644 41.577596,40.763083 0 0 0 22.48624,6.52051 41.577596,40.763083 0 0 0 41.57563,-40.76521 41.577596,40.763083 0 0 0 -3.65526,-16.58549 32.758106,33.969234 0 0 0 11.21728,-25.53583 32.758106,33.969234 0 0 0 -32.75957,-33.96976 32.758106,33.969234 0 0 0 -7.6895,0.99199 54.176867,40.763083 0 0 0 -41.44815,-14.57916 z"
       id="path5396"
       inkscape:connector-curvature="0" />
    <path
       style="opacity:1;fill:#ececec;fill-opacity:1;fill-rule:evenodd;stroke:none;stroke-width:6;stroke-linecap:round;stroke-linejoin:round;stroke-miterlimit:4;stroke-dasharray:none;stroke-opacity:0.54901961"
       d="m 255.80135,383.95647 a 27.142857,19.821428 0 0 0 -27.14258,19.82031 27.142857,19.821428 0 0 0 1.84375,7.18359 31.428572,22.5 0 0 1 0.0977,-1.39257 31.428572,22.5 0 0 1 0.4707,-2.22461 31.428572,22.5 0 0 1 0.77734,-2.17969 31.428572,22.5 0 0 1 1.07618,-2.11133 31.428572,22.5 0 0 1 1.36718,-2.02539 31.428572,22.5 0 0 1 1.64063,-1.91797 31.428572,22.5 0 0 1 1.90234,-1.79101 31.428572,22.5 0 0 1 2.14063,-1.64454 31.428572,22.5 0 0 1 2.36132,-1.48437 31.428572,22.5 0 0 1 2.55469,-1.30859 31.428572,22.5 0 0 1 2.72461,-1.11914 31.428572,22.5 0 0 1 2.86719,-0.91797 31.428572,22.5 0 0 1 2.98242,-0.70899 31.428572,22.5 0 0 1 3.06445,-0.49414 31.428572,22.5 0 0 1 3.11914,-0.26953 31.428572,22.5 0 0 1 2.22266,-0.0566 31.428572,22.5 0 0 1 3.13867,0.11133 31.428572,22.5 0 0 1 3.10547,0.33594 31.428572,22.5 0 0 1 3.04492,0.55664 31.428572,22.5 0 0 1 2.95118,0.77148 31.428572,22.5 0 0 1 2.82812,0.97852 31.428572,22.5 0 0 1 1.26563,0.55664 27.142857,19.821428 0 0 0 -22.4043,-8.66797 z"
       id="path4142"
       inkscape:connector-curvature="0" />
    <path
       style="opacity:1;fill:#ececec;fill-opacity:1;fill-rule:evenodd;stroke:none;stroke-width:6;stroke-linecap:round;stroke-linejoin:round;stroke-miterlimit:4;stroke-dasharray:none;stroke-opacity:0.54901961"
       d="m 238.1744,436.82143 a 20.892857,17.678572 0 0 0 -10.94532,15.52734 20.892857,17.678572 0 0 0 20.89258,17.67969 20.892857,17.678572 0 0 0 7.85742,-1.3125 19.107143,19.821428 0 0 1 -1.50586,0.19141 19.107143,19.821428 0 0 1 -1.35156,0.0488 19.107143,19.821428 0 0 1 -1.90625,-0.0996 19.107143,19.821428 0 0 1 -1.88867,-0.29492 19.107143,19.821428 0 0 1 -1.85156,-0.49023 19.107143,19.821428 0 0 1 -1.79297,-0.67969 19.107143,19.821428 0 0 1 -1.7207,-0.86133 19.107143,19.821428 0 0 1 -1.62891,-1.03711 19.107143,19.821428 0 0 1 -1.51953,-1.19726 19.107143,19.821428 0 0 1 -1.39844,-1.35157 19.107143,19.821428 0 0 1 -1.25977,-1.48828 19.107143,19.821428 0 0 1 -1.11132,-1.61132 19.107143,19.821428 0 0 1 -0.94922,-1.71875 19.107143,19.821428 0 0 1 -0.78125,-1.8086 19.107143,19.821428 0 0 1 -0.60156,-1.88086 19.107143,19.821428 0 0 1 -0.41797,-1.93359 19.107143,19.821428 0 0 1 -0.23047,-1.9668 19.107143,19.821428 0 0 1 -0.0488,-1.40234 19.107143,19.821428 0 0 1 0.0957,-1.97852 19.107143,19.821428 0 0 1 0.28516,-1.95898 19.107143,19.821428 0 0 1 0.47266,-1.91992 19.107143,19.821428 0 0 1 0.65625,-1.86133 19.107143,19.821428 0 0 1 0.83007,-1.78321 19.107143,19.821428 0 0 1 0.99805,-1.68945 19.107143,19.821428 0 0 1 0.82227,-1.12109 z"
       id="path4157"
       inkscape:connector-curvature="0" />
    <path
       style="opacity:1;fill:#ececec;fill-opacity:1;fill-rule:evenodd;stroke:none;stroke-width:6;stroke-linecap:round;stroke-linejoin:round;stroke-miterlimit:4;stroke-dasharray:none;stroke-opacity:0.54901961"
       d="M 119.46484 26.044922 A 37.67857 18.571428 0 0 0 82.908203 40.212891 A 41.785717 17.5 0 0 1 82.972656 40.15625 A 41.785717 17.5 0 0 1 85.15625 38.664062 A 41.785717 17.5 0 0 1 87.683594 37.271484 A 41.785717 17.5 0 0 1 90.53125 35.992188 A 41.785717 17.5 0 0 1 93.667969 34.837891 A 41.785717 17.5 0 0 1 97.066406 33.820312 A 41.785717 17.5 0 0 1 100.68945 32.949219 A 41.785717 17.5 0 0 1 104.50195 32.234375 A 41.785717 17.5 0 0 1 108.46484 31.683594 A 41.785717 17.5 0 0 1 112.54102 31.300781 A 41.785717 17.5 0 0 1 116.6875 31.089844 A 41.785717 17.5 0 0 1 119.64258 31.044922 A 41.785717 17.5 0 0 1 123.81445 31.132812 A 41.785717 17.5 0 0 1 127.94531 31.394531 A 41.785717 17.5 0 0 1 131.99219 31.826172 A 41.785717 17.5 0 0 1 135.91406 32.425781 A 41.785717 17.5 0 0 1 139.67578 33.1875 A 41.785717 17.5 0 0 1 143.23633 34.101562 A 41.785717 17.5 0 0 1 146.5625 35.160156 A 41.785717 17.5 0 0 1 149.61719 36.353516 A 41.785717 17.5 0 0 1 152.375 37.667969 A 41.785717 17.5 0 0 1 154.80469 39.089844 A 41.785717 17.5 0 0 1 155.86914 39.867188 A 37.67857 18.571428 0 0 0 119.46484 26.044922 z "
       id="path4159"
       transform="translate(199.37222,342.55385)" />
    <path
       style="opacity:1;fill:#ececec;fill-opacity:1;fill-rule:evenodd;stroke:none;stroke-width:6;stroke-linecap:round;stroke-linejoin:round;stroke-miterlimit:4;stroke-dasharray:none;stroke-opacity:0.54901961"
       d="M 184.67383 80.677734 A 22.67857 20.714285 0 0 0 194.64258 63.544922 A 22.67857 20.714285 0 0 0 171.96484 42.830078 A 22.67857 20.714285 0 0 0 170.53516 42.876953 A 29.821428 26.785713 0 0 1 173.04688 43.966797 A 29.821428 26.785713 0 0 1 175.58789 45.367188 A 29.821428 26.785713 0 0 1 177.96094 46.986328 A 29.821428 26.785713 0 0 1 180.14258 48.8125 A 29.821428 26.785713 0 0 1 182.10938 50.824219 A 29.821428 26.785713 0 0 1 183.84375 53.001953 A 29.821428 26.785713 0 0 1 185.32617 55.324219 A 29.821428 26.785713 0 0 1 186.54492 57.767578 A 29.821428 26.785713 0 0 1 187.48438 60.308594 A 29.821428 26.785713 0 0 1 188.13672 62.921875 A 29.821428 26.785713 0 0 1 188.49609 65.580078 A 29.821428 26.785713 0 0 1 188.57227 67.474609 A 29.821428 26.785713 0 0 1 188.42188 70.148438 A 29.821428 26.785713 0 0 1 187.97656 72.794922 A 29.821428 26.785713 0 0 1 187.24023 75.388672 A 29.821428 26.785713 0 0 1 186.2168 77.904297 A 29.821428 26.785713 0 0 1 184.91992 80.316406 A 29.821428 26.785713 0 0 1 184.67383 80.677734 z "
       id="path4171"
       transform="translate(199.37222,342.55385)" />
  </g>
</svg>
