<?xml version="1.0" encoding="UTF-8" standalone="no"?>
<!-- Created with Inkscape (http://www.inkscape.org/) -->

<svg
   xmlns:dc="http://purl.org/dc/elements/1.1/"
   xmlns:cc="http://creativecommons.org/ns#"
   xmlns:rdf="http://www.w3.org/1999/02/22-rdf-syntax-ns#"
   xmlns:svg="http://www.w3.org/2000/svg"
   xmlns="http://www.w3.org/2000/svg"
   xmlns:sodipodi="http://sodipodi.sourceforge.net/DTD/sodipodi-0.dtd"
   xmlns:inkscape="http://www.inkscape.org/namespaces/inkscape"
   width="272.00555mm"
   height="244.08157mm"
   viewBox="0 0 963.79921 864.85597"
   id="svg2"
   version="1.1"
   inkscape:version="0.91 r13725"
   sodipodi:docname="moon.svg">
  <defs
     id="defs4">
    <filter
       inkscape:collect="always"
       style="color-interpolation-filters:sRGB"
       id="filter5066"
       x="-0.28234443"
       width="1.5646889"
       y="-0.33685422"
       height="1.6737084">
      <feGaussianBlur
         inkscape:collect="always"
         stdDeviation="148.90307"
         id="feGaussianBlur5068" />
    </filter>
  </defs>
  <sodipodi:namedview
     id="base"
     pagecolor="#ffffff"
     bordercolor="#666666"
     borderopacity="1.0"
     inkscape:pageopacity="0.0"
     inkscape:pageshadow="2"
     inkscape:zoom="0.35"
     inkscape:cx="-118.62598"
     inkscape:cy="683.50758"
     inkscape:document-units="px"
     inkscape:current-layer="layer1"
     showgrid="false"
     inkscape:window-width="1440"
     inkscape:window-height="837"
     inkscape:window-x="-8"
     inkscape:window-y="-8"
     inkscape:window-maximized="1"
     fit-margin-top="1"
     fit-margin-left="1"
     fit-margin-right="1"
     fit-margin-bottom="1" />
  <metadata
     id="metadata7">
    <rdf:RDF>
      <cc:Work
         rdf:about="">
        <dc:format>image/svg+xml</dc:format>
        <dc:type
           rdf:resource="http://purl.org/dc/dcmitype/StillImage" />
        <dc:title></dc:title>
      </cc:Work>
    </rdf:RDF>
  </metadata>
  <g
     inkscape:label="Livello 1"
     inkscape:groupmode="layer"
     id="layer1"
     transform="translate(102.72919,-62.720846)">
    <ellipse
       style="opacity:0.872;fill:#ffd42a;fill-opacity:1;stroke:none;filter:url(#filter5066)"
       id="path4525"
       cx="393.31253"
       cy="512.92212"
       rx="632.85712"
       ry="530.44812"
       transform="matrix(0.4830786,0,0,0.4830786,189.16951,247.36712)" />
    <g
       id="g4527"
       transform="matrix(0.4830786,0,0,0.4830786,125.95846,358.14136)">
      <g
         id="g4370">
        <g
           id="g3342"
           style="fill:#ffcc00;stroke:none"
           transform="matrix(1.5875688,0,0,1.5875688,-65.779463,-464.89988)">
          <path
             transform="matrix(0.62989396,0,0,0.62989396,41.434087,292.83763)"
             id="path4493"
             d="m 26.625,408.37891 c 9.408886,56.41967 26.625226,114.44937 60.816406,159.79101 1.721751,-2.34297 3.427359,-4.68752 5.263672,-7.05469 2.638136,-3.40077 5.371015,-6.77616 8.130862,-9.97851 2.75984,-3.20235 5.54672,-6.23035 8.29297,-8.94141 2.74624,-2.71106 5.45149,-5.10434 8.04882,-7.03125 1.45629,-1.08038 2.98012,-2.03555 4.55665,-2.89453 1.57651,-0.85898 3.20555,-1.62164 4.87304,-2.31445 3.33499,-1.38562 6.82245,-2.49457 10.3457,-3.54688 3.52327,-1.05231 7.08119,-2.04814 10.5586,-3.20898 1.7387,-0.58042 3.45728,-1.20218 5.14062,-1.89258 1.68335,-0.6904 3.33293,-1.44908 4.93164,-2.30469 2.88214,-1.54247 5.68797,-3.2097 8.43946,-4.96875 2.75148,-1.75904 5.44802,-3.61012 8.10742,-5.52148 5.3188,-3.82273 10.49201,-7.8851 15.67383,-11.93164 5.18182,-4.04654 10.37322,-8.07761 15.72656,-11.83399 2.67667,-1.87819 5.39253,-3.6872 8.16992,-5.39648 2.77739,-1.70928 5.61458,-3.3188 8.53125,-4.79492 3.65801,-1.85131 7.36479,-3.59158 11.11133,-5.24024 3.74654,-1.64866 7.53458,-3.20615 11.35352,-4.6875 7.63787,-2.96268 15.40378,-5.62551 23.23437,-8.13086 15.66118,-5.01069 31.57908,-9.38875 47.23633,-14.26562 2.41782,-0.75309 4.90111,-1.4071 7.43945,-1.98047 2.53834,-0.57337 5.1311,-1.06732 7.76563,-1.49609 5.26905,-0.85755 10.70506,-1.45933 16.21289,-1.94922 11.01565,-0.97979 22.31429,-1.50605 33.11718,-2.70117 5.40146,-0.59757 10.68004,-1.36267 15.73633,-2.43555 2.52815,-0.53644 5.00089,-1.14947 7.40625,-1.85742 2.40537,-0.70796 4.7437,-1.51119 7.00196,-2.42578 2.25825,-0.9146 4.43663,-1.9413 6.52343,-3.09766 2.08681,-1.15636 4.08163,-2.44176 5.97266,-3.875 1.89103,-1.43325 3.67868,-3.01451 5.34961,-4.75977 1.67093,-1.74525 3.22585,-3.6537 4.65234,-5.74609 0.90593,-1.32882 1.6345,-2.69772 2.20703,-4.09961 0.57254,-1.40188 0.9892,-2.83785 1.26954,-4.30469 0.28033,-1.46683 0.42379,-2.96461 0.45312,-4.48828 0.0293,-1.52366 -0.0558,-3.07215 -0.23633,-4.64453 -0.36097,-3.14475 -1.10165,-6.37904 -2.05468,-9.66992 -0.95305,-3.29088 -2.11844,-6.63968 -3.33399,-10.01172 -1.21555,-3.37204 -2.48041,-6.768 -3.62891,-10.15625 -1.14849,-3.38825 -2.18171,-6.76793 -2.93359,-10.10742 -0.37594,-1.66975 -0.68149,-3.32923 -0.89648,-4.97461 -0.215,-1.64538 -0.33871,-3.27774 -0.35157,-4.89063 -0.0128,-1.61288 0.0859,-3.20701 0.31641,-4.77929 0.23049,-1.57228 0.5924,-3.12294 1.10742,-4.64649 0.66743,-1.97442 1.47901,-3.86121 2.41602,-5.67383 0.93701,-1.81261 1.99936,-3.55025 3.16992,-5.22265 1.17056,-1.67241 2.44832,-3.28019 3.81641,-4.83399 1.36809,-1.55379 2.82587,-3.05297 4.35546,-4.50976 3.05918,-2.91359 6.40551,-5.65536 9.89454,-8.31055 3.48902,-2.65518 7.12129,-5.22532 10.75195,-7.79492 3.63066,-2.5696 7.26006,-5.13808 10.74414,-7.79492 3.48408,-2.65684 6.82375,-5.40146 9.87305,-8.31836 1.52465,-1.45845 2.97597,-2.95976 4.33789,-4.51563 1.36191,-1.55587 2.63372,-3.16495 3.79687,-4.83984 1.16315,-1.67489 2.21812,-3.41496 3.14649,-5.23047 0.92836,-1.81551 1.72917,-3.70781 2.38671,-5.68555 0.6951,-2.09066 1.23666,-4.19351 1.64063,-6.30859 0.40397,-2.11508 0.67174,-4.24192 0.82031,-6.37891 0.14858,-2.13698 0.17852,-4.28503 0.10742,-6.4414 -0.0711,-2.15637 -0.243,-4.3209 -0.49804,-6.49414 -0.51009,-4.34648 -1.35323,-8.72421 -2.38477,-13.12305 -1.03154,-4.39884 -2.25234,-8.81895 -3.51953,-13.25 -1.26719,-4.43105 -2.57982,-8.87329 -3.79687,-13.31641 -1.21706,-4.44311 -2.33764,-8.88722 -3.21875,-13.32226 -0.88112,-4.43504 -1.52382,-8.86077 -1.78321,-13.26758 -0.12969,-2.20341 -0.16331,-4.40313 -0.084,-6.5957 0.0793,-2.19258 0.27163,-4.37742 0.5957,-6.55664 0.31053,-2.08825 0.77699,-4.15205 1.375,-6.19336 0.59801,-2.04132 1.32821,-4.06039 2.16797,-6.06055 0.83976,-2.00016 1.78846,-3.98248 2.82422,-5.94727 1.03576,-1.96478 2.15773,-3.91247 3.34375,-5.84765 2.37204,-3.87037 4.9986,-7.688 7.69726,-11.47461 2.69867,-3.78661 5.46955,-7.54196 8.12891,-11.29102 2.65936,-3.74905 5.20874,-7.49035 7.46289,-11.248044 1.12708,-1.878846 2.17956,-3.762675 3.13672,-5.652344 0.95716,-1.889667 1.81904,-3.78514 2.56055,-5.691406 0.74151,-1.906265 1.36363,-3.823315 1.84375,-5.751953 0.48011,-1.928638 0.81724,-3.869387 0.99023,-5.826172 0.17299,-1.956785 0.18184,-3.929215 0.002,-5.919922 -0.17988,-1.990706 -0.54845,-4.000846 -1.12695,-6.03125 -0.72942,-2.560102 -1.68859,-4.943381 -2.85156,-7.171875 -1.163,-2.228493 -2.52969,-4.301762 -4.07425,-6.240234 -1.54456,-1.938472 -3.26645,-3.741605 -5.14062,-5.431641 -1.87419,-1.690035 -3.90089,-3.266814 -6.05274,-4.75 -2.15185,-1.483185 -4.42908,-2.873484 -6.80664,-4.191406 -2.37756,-1.317921 -4.85495,-2.563569 -7.40625,-3.757812 -5.10261,-2.388487 -10.5005,-4.571554 -15.98633,-6.714844 -5.48582,-2.14329 -11.06031,-4.245781 -16.51367,-6.476563 -5.45336,-2.230781 -10.78581,-4.589273 -15.79102,-7.240234 -2.5026,-1.3254804 -4.9237,-2.7238928 -7.23632,-4.2167969 -2.31263,-1.4929041 -4.51721,-3.0793361 -6.58789,-4.78125 -2.07069,-1.70191378 -4.00643,-3.5201467 -5.78321,-5.4726562 -1.77678,-1.9525096 -3.39525,-4.0404654 -4.82617,-6.2851559 -1.60684,-2.520659 -3.10629,-5.278541 -4.50781,-8.234375 -1.40153,-2.955834 -2.70387,-6.109895 -3.91406,-9.421875 -1.2102,-3.311981 -2.32848,-6.781996 -3.36133,-10.371094 -1.03286,-3.589098 -1.98012,-7.296798 -2.84961,-11.083985 -1.73899,-7.574372 -3.16648,-15.46682 -4.33594,-23.359374 -1.16946,-7.892556 -2.08116,-15.784776 -2.79297,-23.363282 -0.71181,-7.578506 -1.2238,-14.842386 -1.58984,-21.474606 -0.17882,-3.23996 -0.23539,-5.7388 -0.35156,-8.64063 -43.6526,11.74728 -86.19726,29.003767 -126.74024,48.222658 -0.42159,4.122111 -0.88954,8.225148 -1.45703,12.246094 -0.62985,4.462802 -1.35417,8.842562 -2.18555,13.095703 -0.83137,4.253141 -1.76839,8.379977 -2.82422,12.333984 -1.05582,3.954008 -2.23,7.735378 -3.5332,11.300782 -1.3032,3.565403 -2.73704,6.914625 -4.31055,10.001953 -1.07302,2.105354 -2.2628,4.116025 -3.55664,6.042968 -1.29383,1.926944 -2.69034,3.7699951 -4.17773,5.5410161 -1.4874,1.7710211 -3.06505,3.4698348 -4.71875,5.1074219 -1.6537,1.63758713 -3.38303,3.21359278 -5.17578,4.7402344 -3.5855,3.0532832 -7.42221,5.9079125 -11.40039,8.6523436 -3.97819,2.744431 -8.09912,5.378654 -12.25196,7.994141 -4.15283,2.615486 -8.3378,5.212458 -12.44726,7.878906 -4.10946,2.666448 -8.14218,5.403464 -11.99024,8.300781 -1.92403,1.448659 -3.80329,2.936454 -5.62109,4.476563 -1.8178,1.540108 -3.57545,3.13111 -5.25977,4.785156 -1.68431,1.654046 -3.29478,3.371636 -4.81835,5.162109 -1.52358,1.790473 -2.95934,3.654128 -4.29493,5.603516 -2.7881,4.069446 -5.35529,8.264599 -7.73242,12.564453 -2.37713,4.299854 -4.56535,8.70523 -6.5918,13.195313 -2.02644,4.490082 -3.89286,9.064946 -5.6289,13.705078 -1.73604,4.640131 -3.34174,9.345706 -4.84766,14.095706 -1.50591,4.75 -2.91197,9.54359 -4.24804,14.36328 -1.33608,4.81969 -2.60162,9.66447 -3.82813,14.51367 -2.45303,9.69841 -4.74656,19.41681 -7.12305,28.99219 -1.21662,4.90204 -2.199,9.85339 -3.00976,14.84179 -0.81076,4.9884 -1.45012,10.01239 -1.98438,15.0586 -1.06851,10.09241 -1.71447,20.27349 -2.45312,30.42578 -0.36933,5.07615 -0.76129,10.14507 -1.24219,15.19336 -0.4809,5.04828 -1.04965,10.07454 -1.77148,15.06641 -0.72184,4.99186 -1.59733,9.94856 -2.68946,14.85546 -1.09213,4.9069 -2.4004,9.76522 -3.99218,14.5586 -1.41033,4.24694 -2.90777,8.47928 -4.49415,12.68945 -1.58637,4.21017 -3.26164,8.39715 -5.027339,12.55078 -1.765694,4.15363 -3.622029,8.27423 -5.570312,12.35156 -1.948284,4.07734 -3.988906,8.11248 -6.123047,12.09375 -2.134141,3.98128 -4.36228,7.90995 -6.685547,11.7754 -2.323267,3.86544 -4.742151,7.66662 -7.257813,11.39648 -2.515661,3.72986 -5.128518,7.38838 -7.839843,10.96289 -2.711325,3.57451 -5.521384,7.06545 -8.431641,10.46484 -2.926688,3.4186 -6.460014,7.00937 -10.404297,10.67579 -3.944282,3.66641 -8.298623,7.40756 -12.865234,11.1289 -2.340604,1.90737 -4.822485,3.75716 -7.248047,5.64063 z"
             style="fill:#ffcc00;fill-rule:evenodd;stroke:none;stroke-width:1px;stroke-linecap:butt;stroke-linejoin:miter;stroke-opacity:1"
             inkscape:connector-curvature="0" />
          <path
             transform="matrix(0.62989396,0,0,0.62989396,41.434087,292.83763)"
             id="path4485"
             d="m 26.625,408.37891 c 2.425562,-1.88347 4.907443,-3.73326 7.248047,-5.64063 4.566611,-3.72134 8.920952,-7.46249 12.865234,-11.1289 3.944283,-3.66642 7.477609,-7.25719 10.404297,-10.67579 2.910257,-3.39939 5.720316,-6.89033 8.431641,-10.46484 2.711325,-3.57451 5.324182,-7.23303 7.839843,-10.96289 2.515662,-3.72986 4.934546,-7.53104 7.257813,-11.39648 2.323267,-3.86545 4.551406,-7.79412 6.685547,-11.7754 2.134141,-3.98127 4.174763,-8.01641 6.123047,-12.09375 1.948283,-4.07733 3.804618,-8.19793 5.570312,-12.35156 1.765699,-4.15363 3.440969,-8.34061 5.027339,-12.55078 1.58638,-4.21017 3.08382,-8.44251 4.49415,-12.68945 1.59178,-4.79338 2.90005,-9.6517 3.99218,-14.5586 1.09213,-4.9069 1.96762,-9.8636 2.68946,-14.85546 0.72183,-4.99187 1.29058,-10.01813 1.77148,-15.06641 0.4809,-5.04829 0.87286,-10.11721 1.24219,-15.19336 0.73865,-10.15229 1.38461,-20.33337 2.45312,-30.42578 0.53426,-5.04621 1.17362,-10.0702 1.98438,-15.0586 0.81076,-4.9884 1.79314,-9.93975 3.00976,-14.84179 2.37649,-9.57538 4.67002,-19.29378 7.12305,-28.99219 1.22651,-4.8492 2.49205,-9.69398 3.82813,-14.51367 1.33607,-4.81969 2.74213,-9.61328 4.24804,-14.36328 1.50592,-4.75 3.11162,-9.455575 4.84766,-14.095706 1.73604,-4.640132 3.60246,-9.214996 5.6289,-13.705078 2.02645,-4.490083 4.21467,-8.895459 6.5918,-13.195313 2.37713,-4.299854 4.94432,-8.495007 7.73242,-12.564453 1.33559,-1.949388 2.77135,-3.813043 4.29493,-5.603516 1.52357,-1.790473 3.13404,-3.508063 4.81835,-5.162109 1.68432,-1.654046 3.44197,-3.245048 5.25977,-4.785156 1.8178,-1.540109 3.69706,-3.027904 5.62109,-4.476563 3.84806,-2.897317 7.88078,-5.634333 11.99024,-8.300781 4.10946,-2.666448 8.29443,-5.26342 12.44726,-7.878906 4.15284,-2.615487 8.27377,-5.24971 12.25196,-7.994141 3.97818,-2.7444311 7.81489,-5.5990604 11.40039,-8.6523436 1.79275,-1.52664162 3.52208,-3.10264727 5.17578,-4.7402344 1.6537,-1.6375871 3.23135,-3.3364008 4.71875,-5.1074219 1.48739,-1.771021 2.8839,-3.6140721 4.17773,-5.5410161 1.29384,-1.926943 2.48362,-3.937614 3.55664,-6.042968 1.57351,-3.087328 3.00735,-6.43655 4.31055,-10.001953 1.3032,-3.565404 2.47738,-7.346774 3.5332,-11.300782 1.05583,-3.954007 1.99285,-8.080843 2.82422,-12.333984 0.83138,-4.253141 1.5557,-8.632901 2.18555,-13.095703 0.56749,-4.020946 1.03544,-8.123983 1.45703,-12.246094 -0.13054,0.06188 -0.26598,0.117765 -0.39648,0.179688 -53.04558,25.170157 -107.07984,55.08838 -145.14844,99.789062 C 78.973416,70.324864 54.55077,132.76167 38.546875,194.28906 21.381233,260.28281 14.728895,330.98535 24.939453,398.40625 c 0.501269,3.30991 1.131191,6.6485 1.685547,9.97266 z"
             style="fill:#ffe680;fill-rule:evenodd;stroke:none;stroke-width:1px;stroke-linecap:butt;stroke-linejoin:miter;stroke-opacity:1"
             inkscape:connector-curvature="0" />
          <path
             transform="matrix(0.62989396,0,0,0.62989396,41.434087,292.83763)"
             id="path4515"
             d="m 1011.7852,187.20898 c -1.9523,-1.26713 -3.9881,-2.39523 -6.1133,-3.20507 -1.1555,-0.44034 -2.3298,-0.80304 -3.5157,-1.08008 -1.1858,-0.27705 -2.38234,-0.46854 -3.58393,-0.5625 -1.16892,-0.0914 -2.26483,0.19744 -3.32422,0.68555 -1.0594,0.4881 -2.08266,1.17591 -3.10547,1.88867 -1.02281,0.71276 -2.04632,1.44868 -3.10547,2.03125 -1.05915,0.58256 -2.15385,1.01185 -3.32227,1.10937 -2.14365,0.17891 -4.2906,0.2281 -6.43554,0.16211 -2.14494,-0.066 -4.28907,-0.24703 -6.42774,-0.52734 -2.13867,-0.28032 -4.27163,-0.66093 -6.39648,-1.125 -2.12485,-0.46407 -4.24028,-1.01166 -6.34375,-1.62891 -4.20695,-1.23449 -8.36332,-2.74445 -12.43945,-4.4082 -4.07614,-1.66376 -8.07214,-3.48166 -11.95704,-5.33008 -3.07457,-1.46287 -6.40844,-3.31913 -9.88672,-5.44727 -3.47827,-2.12813 -7.10097,-4.52705 -10.75781,-7.07812 -7.31368,-5.10215 -14.7605,-10.80845 -21.4375,-16.14844 -6.677,-5.33999 -12.58511,-10.31385 -16.82422,-13.95312 C 872.56948,128.95252 870,126.64844 870,126.64844 c 0,0 1.42256,2.20315 3.80273,5.71679 2.38018,3.51365 5.71807,8.33669 9.55079,13.57618 3.83271,5.23949 8.15997,10.89474 12.51757,16.07226 2.17881,2.58876 4.36586,5.05882 6.50196,7.29688 2.13609,2.23805 4.22179,4.24432 6.19922,5.9082 1.71205,1.44058 3.48798,2.78471 5.31835,4.05078 1.83038,1.26607 3.71353,2.45448 5.63672,3.58399 3.8464,2.25901 7.85335,4.28219 11.91797,6.22265 4.06462,1.94047 8.18686,3.79911 12.26563,5.72461 4.07877,1.9255 8.11505,3.91869 12.0039,6.13281 1.92507,1.09604 3.80952,2.29783 5.66797,3.56836 1.85845,1.27053 3.68953,2.61 5.50977,3.97852 3.64047,2.73703 7.23453,5.59373 10.89258,8.26367 1.82902,1.33497 3.67281,2.62274 5.54882,3.82617 1.87602,1.20344 3.78296,2.32297 5.73438,3.31836 1.95142,0.9954 3.94869,1.86728 6.00391,2.57813 2.05521,0.71085 4.16804,1.25957 6.35543,1.60937 2.1676,0.34663 4.554,0.61898 6.9903,0.71875 2.4362,0.0998 4.9233,0.0281 7.291,-0.3164 1.1838,-0.17228 2.3379,-0.414 3.4414,-0.73438 1.0312,-0.2994 2.0062,-0.68321 2.9316,-1.13281 -2.6747,-13.26059 -6.1526,-26.40619 -10.2968,-39.40235 z"
             style="fill:#504416;fill-rule:evenodd;stroke:none;stroke-width:1px;stroke-linecap:butt;stroke-linejoin:miter;stroke-opacity:1"
             inkscape:connector-curvature="0" />
          <path
             transform="matrix(0.62989396,0,0,0.62989396,41.434087,292.83763)"
             id="path4523"
             d="m 455.0625,720.66016 c 1.06848,-0.58854 3.50977,-1.86914 3.50977,-1.86914 0,0 -4.25021,-3.35725 -9.5,-7.625 -5.2498,-4.26776 -11.49919,-9.44656 -15.5,-13.08985 -1.8672,-1.70033 -3.63924,-3.50675 -5.3711,-5.35547 -1.73186,-1.84871 -3.42473,-3.73911 -5.13476,-5.60937 -1.71004,-1.87027 -3.43655,-3.71939 -5.23829,-5.48438 -1.80173,-1.76499 -3.6786,-3.44562 -5.68554,-4.97851 -2.66964,-2.03906 -6.19085,-4.30909 -9.97266,-6.56641 -3.78181,-2.25732 -7.82366,-4.50195 -11.53125,-6.49219 -7.41518,-3.98047 -13.49609,-6.9414 -13.49609,-6.9414 0,0 2.91784,4.18531 5.89453,9.58203 1.48834,2.69836 2.99182,5.69927 4.15234,8.63086 0.58027,1.46579 1.07515,2.91422 1.43946,4.29883 0.36431,1.3846 0.59722,2.70559 0.65625,3.91601 0.0798,1.63577 -0.0115,3.30762 -0.26172,4.97071 -0.25019,1.66308 -0.65941,3.31714 -1.21289,4.92187 -0.55348,1.60473 -1.25191,3.16038 -2.08203,4.62109 -0.83013,1.46072 -1.79097,2.82757 -2.8711,4.0586 -0.96561,1.10052 -2.19001,1.98817 -3.5918,2.72265 -1.40178,0.73449 -2.98187,1.31483 -4.6582,1.80079 -3.35266,0.97191 -7.0912,1.56521 -10.57226,2.24804 -1.74053,0.34142 -3.41708,0.70499 -4.94727,1.15039 -1.53019,0.4454 -2.91404,0.97178 -4.07227,1.63867 -0.25907,0.14918 -0.3719,0.39084 -0.60742,0.55469 33.0781,5.59601 66.81774,8.23429 100.6543,8.89649 z"
             style="fill:#504416;fill-rule:evenodd;stroke:none;stroke-width:1px;stroke-linecap:butt;stroke-linejoin:miter;stroke-opacity:1"
             inkscape:connector-curvature="0" />
          <path
             transform="matrix(0.62989396,0,0,0.62989396,41.434087,292.83763)"
             id="path3338"
             d="m 517.71289,-142.03125 c -11.57602,-0.1421 -23.13284,0.0736 -34.64648,0.66406 -30.55262,1.5668 -60.81941,7.08867 -90.58789,15.09961 0.11617,2.90183 0.17274,5.40067 0.35156,8.64063 0.36604,6.63222 0.87803,13.8961 1.58984,21.474606 0.71181,7.578506 1.62351,15.470726 2.79297,23.363282 1.16946,7.892553 2.59695,15.785003 4.33594,23.359374 0.86949,3.787187 1.81675,7.494887 2.84961,11.083985 1.03285,3.589098 2.15113,7.059113 3.36133,10.371094 1.21019,3.31198 2.51253,6.466041 3.91406,9.421875 1.40152,2.955834 2.90097,5.713716 4.50781,8.234375 1.43092,2.2446901 3.04939,4.3326463 4.82617,6.2851559 1.77678,1.9525095 3.71252,3.77074245 5.78321,5.4726562 2.07068,1.7019139 4.27526,3.2883459 6.58789,4.78125 2.31262,1.4929041 4.73372,2.8913165 7.23632,4.2167969 5.00521,2.650961 10.33766,5.009453 15.79102,7.240234 5.45336,2.230782 11.02785,4.333273 16.51367,6.476563 5.48583,2.14329 10.88372,4.326357 15.98633,6.714844 2.5513,1.194243 5.02869,2.439891 7.40625,3.757812 2.37756,1.317922 4.65479,2.708221 6.80664,4.191406 2.15185,1.483186 4.17855,3.059965 6.05274,4.75 1.87416,1.690036 3.59606,3.493169 5.14062,5.431641 1.54456,1.938472 2.91125,4.011741 4.07422,6.240234 1.16297,2.228494 2.12214,4.611773 2.85156,7.171875 0.5785,2.030404 0.94707,4.040544 1.12695,6.03125 0.17989,1.990707 0.17104,3.963137 -0.002,5.919922 -0.17299,1.956785 -0.51012,3.897534 -0.99023,5.826172 -0.48012,1.928638 -1.10224,3.845688 -1.84375,5.751953 -0.74151,1.906266 -1.60339,3.80174 -2.56055,5.691406 -0.95716,1.889669 -2.00964,3.773498 -3.13672,5.652344 -2.25415,3.757694 -4.80353,7.498994 -7.46289,11.248044 -2.65936,3.74906 -5.43024,7.50441 -8.12891,11.29102 -2.69866,3.78661 -5.32522,7.60424 -7.69726,11.47461 -1.18602,1.93518 -2.30799,3.88287 -3.34375,5.84765 -1.03576,1.96479 -1.98446,3.94711 -2.82422,5.94727 -0.83976,2.00016 -1.56996,4.01923 -2.16797,6.06055 -0.59801,2.04131 -1.06447,4.10511 -1.375,6.19336 -0.32407,2.17922 -0.51638,4.36406 -0.5957,6.55664 -0.0793,2.19257 -0.0457,4.39229 0.084,6.5957 0.25939,4.40681 0.90209,8.83254 1.78321,13.26758 0.88111,4.43504 2.00169,8.87915 3.21875,13.32226 1.21705,4.44312 2.52968,8.88536 3.79687,13.31641 1.26719,4.43105 2.48799,8.85116 3.51953,13.25 1.03154,4.39884 1.87468,8.77657 2.38477,13.12305 0.25504,2.17324 0.42695,4.33777 0.49804,6.49414 0.0711,2.15637 0.0412,4.30442 -0.10742,6.4414 -0.14857,2.13699 -0.41634,4.26383 -0.82031,6.37891 -0.40397,2.11508 -0.94553,4.21793 -1.64063,6.30859 -0.65753,1.97774 -1.45835,3.87004 -2.38671,5.68555 -0.92837,1.81551 -1.98334,3.55558 -3.14649,5.23047 -1.16315,1.67489 -2.43496,3.28397 -3.79687,4.83984 -1.36192,1.55587 -2.81324,3.05718 -4.33789,4.51563 -3.0493,2.9169 -6.38897,5.66152 -9.87305,8.31836 -3.48408,2.65684 -7.11348,5.22532 -10.74414,7.79492 -3.63066,2.5696 -7.26293,5.13974 -10.75195,7.79492 -3.48903,2.65519 -6.83536,5.39696 -9.89454,8.31055 -1.52959,1.45679 -2.98737,2.95597 -4.35546,4.50976 -1.36809,1.5538 -2.64585,3.16158 -3.81641,4.83399 -1.17056,1.6724 -2.23291,3.41004 -3.16992,5.22265 -0.93701,1.81262 -1.74859,3.69941 -2.41602,5.67383 -0.51502,1.52355 -0.87693,3.07421 -1.10742,4.64649 -0.23049,1.57228 -0.32926,3.16641 -0.31641,4.77929 0.0129,1.61289 0.13657,3.24525 0.35157,4.89063 0.21499,1.64538 0.52054,3.30486 0.89648,4.97461 0.75188,3.33949 1.7851,6.71917 2.93359,10.10742 1.1485,3.38825 2.41336,6.78421 3.62891,10.15625 1.21555,3.37204 2.38094,6.72084 3.33399,10.01172 0.95302,3.29088 1.69371,6.52517 2.05468,9.66992 0.18049,1.57238 0.26566,3.12087 0.23633,4.64453 -0.0293,1.52367 -0.17279,3.02145 -0.45312,4.48828 -0.28034,1.46684 -0.697,2.90281 -1.26954,4.30469 -0.57253,1.40189 -1.3011,2.77079 -2.20703,4.09961 -1.42649,2.09239 -2.98141,4.00084 -4.65234,5.74609 -1.67093,1.74526 -3.45858,3.32652 -5.34961,4.75977 -1.89103,1.43324 -3.88585,2.71864 -5.97266,3.875 -2.0868,1.15636 -4.26518,2.18306 -6.52343,3.09766 -2.25826,0.91459 -4.59659,1.71782 -7.00196,2.42578 -2.40536,0.70795 -4.8781,1.32098 -7.40625,1.85742 -5.05629,1.07288 -10.33487,1.83798 -15.73633,2.43555 -10.80288,1.19512 -22.10153,1.72138 -33.11718,2.70117 -5.50783,0.48989 -10.94384,1.09167 -16.21289,1.94922 -2.63453,0.42877 -5.22729,0.92272 -7.76563,1.49609 -2.53834,0.57337 -5.02163,1.22738 -7.43945,1.98047 -15.65725,4.87687 -31.57515,9.25493 -47.23633,14.26562 -7.83059,2.50535 -15.5965,5.16818 -23.23437,8.13086 -3.81894,1.48135 -7.60698,3.03884 -11.35352,4.6875 -3.74654,1.64866 -7.45332,3.38893 -11.11133,5.24024 -2.91667,1.47612 -5.75386,3.08564 -8.53125,4.79492 -2.77739,1.70928 -5.49325,3.51829 -8.16992,5.39648 -5.35334,3.75638 -10.54474,7.78745 -15.72656,11.83399 -5.18182,4.04654 -10.35503,8.10891 -15.67383,11.93164 -2.6594,1.91136 -5.35594,3.76244 -8.10742,5.52148 -2.75149,1.75905 -5.55732,3.42628 -8.43946,4.96875 -1.59871,0.85561 -3.24829,1.61429 -4.93164,2.30469 -1.68334,0.6904 -3.40192,1.31216 -5.14062,1.89258 -3.47741,1.16084 -7.03533,2.15667 -10.5586,3.20898 -3.52324,1.05231 -7.01071,2.16126 -10.3457,3.54688 -1.66749,0.69281 -3.29654,1.45547 -4.87304,2.31445 -1.57653,0.85898 -3.10036,1.81415 -4.55665,2.89453 -2.59733,1.92691 -5.30258,4.32019 -8.04882,7.03125 -2.74625,2.71106 -5.53313,5.73906 -8.29297,8.94141 -2.759849,3.20235 -5.492726,6.57774 -8.130862,9.97851 -1.836313,2.36717 -3.541921,4.71172 -5.263672,7.05469 1.812436,2.40351 3.626336,4.80695 5.535156,7.13672 46.521208,56.78034 116.316658,94.77605 185.972658,117.93359 24.57444,8.16992 49.82282,14.18643 75.45898,18.52344 0.23552,-0.16385 0.34835,-0.40551 0.60742,-0.55469 1.15823,-0.66689 2.54208,-1.19327 4.07227,-1.63867 1.53019,-0.4454 3.20674,-0.80897 4.94727,-1.15039 3.48106,-0.68283 7.2196,-1.27613 10.57226,-2.24804 1.67633,-0.48596 3.25642,-1.0663 4.6582,-1.80079 1.40179,-0.73448 2.62619,-1.62213 3.5918,-2.72265 1.08013,-1.23103 2.04097,-2.59788 2.8711,-4.0586 0.83012,-1.46071 1.52855,-3.01636 2.08203,-4.62109 0.55348,-1.60473 0.9627,-3.25879 1.21289,-4.92187 0.25018,-1.66309 0.34148,-3.33494 0.26172,-4.97071 -0.059,-1.21042 -0.29194,-2.53141 -0.65625,-3.91601 -0.36431,-1.38461 -0.85919,-2.83304 -1.43946,-4.29883 -1.16052,-2.93159 -2.664,-5.9325 -4.15234,-8.63086 -2.97669,-5.39672 -5.89453,-9.58203 -5.89453,-9.58203 0,0 6.08091,2.96093 13.49609,6.9414 3.70759,1.99024 7.74944,4.23487 11.53125,6.49219 3.78181,2.25732 7.30302,4.52735 9.97266,6.56641 2.00694,1.53289 3.88381,3.21352 5.68554,4.97851 1.80174,1.76499 3.52825,3.61411 5.23829,5.48438 1.71003,1.87026 3.4029,3.76066 5.13476,5.60937 1.73186,1.84872 3.5039,3.65514 5.3711,5.35547 4.00081,3.64329 10.2502,8.82209 15.5,13.08985 5.24979,4.26775 9.5,7.625 9.5,7.625 0,0 -2.44129,1.2806 -3.50977,1.86914 39.75273,0.77797 79.62774,-1.15602 118.7207,-4.74024 99.7035,-9.14127 209.40914,-18.10959 290.29883,-77.11133 56.58786,-41.27574 85.63913,-112.59413 113.39844,-176.90039 27.17766,-62.95866 56.06566,-131.28417 49.89456,-199.58008 -1.0813,-11.96635 -2.9052,-23.87903 -5.293,-35.71679 -0.9254,0.4496 -1.9004,0.83341 -2.9316,1.13281 -1.1035,0.32038 -2.2576,0.5621 -3.4414,0.73438 -2.3677,0.34454 -4.8548,0.41617 -7.291,0.3164 -2.4363,-0.0998 -4.8227,-0.37212 -6.9903,-0.71875 -2.18739,-0.3498 -4.30025,-0.89852 -6.35546,-1.60937 -2.05522,-0.71085 -4.05249,-1.58273 -6.00391,-2.57813 -1.95142,-0.99539 -3.85836,-2.11492 -5.73438,-3.31836 -1.87601,-1.20343 -3.7198,-2.4912 -5.54882,-3.82617 -3.65805,-2.66994 -7.25211,-5.52664 -10.89258,-8.26367 -1.82024,-1.36852 -3.65132,-2.70799 -5.50977,-3.97852 -1.85845,-1.27053 -3.7429,-2.47232 -5.66797,-3.56836 -3.88885,-2.21412 -7.92513,-4.20731 -12.0039,-6.13281 -4.07877,-1.9255 -8.20101,-3.78414 -12.26563,-5.72461 -4.06462,-1.94046 -8.07157,-3.96364 -11.91797,-6.22265 -1.92319,-1.12951 -3.80634,-2.31792 -5.63672,-3.58399 -1.83036,-1.26607 -3.6063,-2.6102 -5.31835,-4.05078 -1.97743,-1.66388 -4.06313,-3.67015 -6.19922,-5.9082 -2.1361,-2.23806 -4.32315,-4.70812 -6.50196,-7.29688 -4.3576,-5.17752 -8.68486,-10.83277 -12.51757,-16.07226 -3.83272,-5.23949 -7.17061,-10.06253 -9.55079,-13.57618 -2.38014,-3.51364 -3.8027,-5.71679 -3.8027,-5.71679 0,0 2.56948,2.30408 6.80859,5.94336 4.23911,3.63927 10.14722,8.61313 16.82422,13.95312 6.677,5.33999 14.12382,11.04629 21.4375,16.14844 3.65684,2.55107 7.27955,4.94999 10.75781,7.07812 3.47828,2.12814 6.81215,3.9844 9.88672,5.44727 3.8849,1.84842 7.8809,3.66632 11.95704,5.33008 4.07612,1.66375 8.2325,3.17371 12.43945,4.4082 2.10347,0.61725 4.2189,1.16484 6.34375,1.62891 2.12485,0.46407 4.25781,0.84468 6.39648,1.125 2.13867,0.28031 4.2828,0.46135 6.42774,0.52734 2.14494,0.066 4.29189,0.0168 6.43554,-0.16211 1.16842,-0.0975 2.26312,-0.52681 3.32227,-1.10937 1.05915,-0.58257 2.08266,-1.31849 3.10547,-2.03125 1.02281,-0.71276 2.04607,-1.40058 3.10547,-1.88867 1.05939,-0.48811 2.1553,-0.77696 3.32422,-0.68555 1.20159,0.094 2.39823,0.28545 3.58393,0.5625 1.1859,0.27704 2.3602,0.63974 3.5157,1.08008 2.1252,0.80984 4.161,1.93794 6.1133,3.20507 C 992.54287,126.86604 958.50974,69.941687 918.51367,21.923828 876.10142,-28.994838 816.40783,-66.023786 755.2207,-91.472656 680.70733,-122.46418 598.74506,-141.03657 517.71289,-142.03125 Z"
             style="fill:#d4aa00;fill-rule:evenodd;stroke:none;stroke-width:1px;stroke-linecap:butt;stroke-linejoin:miter;stroke-opacity:1"
             inkscape:connector-curvature="0" />
        </g>
        <g
           id="g4174"
           transform="matrix(0.36629644,-0.35405843,0.35405843,0.36629644,424.06226,51.513794)">
          <path
             inkscape:connector-curvature="0"
             id="path4172"
             d="m -529.17801,-238.28711 a 148.80735,50 0 0 0 -0.29429,-0.43945 148.80735,50 0 0 0 -4.69116,-4.74414 148.80735,50 0 0 0 -6.07577,-4.56055 148.80735,50 0 0 0 -7.40116,-4.33594 148.80735,50 0 0 0 -8.65144,-4.06445 148.80735,50 0 0 0 -9.81683,-3.75586 148.80735,50 0 0 0 -10.88346,-3.40625 148.80735,50 0 0 0 -11.84145,-3.02539 148.80735,50 0 0 0 -12.6809,-2.61133 148.80735,50 0 0 0 -13.39395,-2.17383 148.80735,50 0 0 0 -13.97271,-1.71484 148.80735,50 0 0 0 -14.41317,-1.23633 148.80735,50 0 0 0 -14.7075,-0.74609 148.80735,50 0 0 0 -14.8556,-0.25 148.80735,50 0 0 0 -10.52594,0.125 148.80735,50 0 0 0 -14.76676,0.60156 148.80735,50 0 0 0 -14.51193,1.0957 148.80735,50 0 0 0 -14.11688,1.57618 148.80735,50 0 0 0 -13.57569,2.04101 148.80735,50 0 0 0 -12.90411,2.48633 148.80735,50 0 0 0 -12.09822,2.9082 148.80735,50 0 0 0 -11.17579,3.29688 148.80735,50 0 0 0 -10.13879,3.6582 148.80735,50 0 0 0 -9.00106,3.97852 148.80735,50 0 0 0 -7.77448,4.25976 148.80735,50 0 0 0 -6.47082,4.50195 148.80735,50 0 0 0 -5.1,4.69336 148.80735,50 0 0 0 -1.51896,1.99805 148.80735,50 0 0 0 143.67942,37.06445 148.80735,50 0 0 0 143.67939,-37.2207 z"
             style="fill:#504416;stroke:none" />
          <path
             id="path4145"
             d="m -672.85742,-299.06641 a 147.14285,50 0 0 0 -147.14258,50 147.14285,50 0 0 0 5.07031,12.93555 147.14285,50 0 0 1 1.50196,-1.99805 147.14285,50 0 0 1 5.04296,-4.69336 147.14285,50 0 0 1 6.39844,-4.50195 147.14285,50 0 0 1 7.6875,-4.25976 147.14285,50 0 0 1 8.90039,-3.97852 147.14285,50 0 0 1 10.02539,-3.6582 147.14285,50 0 0 1 11.05078,-3.29688 147.14285,50 0 0 1 11.96289,-2.9082 147.14285,50 0 0 1 12.75977,-2.48633 147.14285,50 0 0 1 13.42383,-2.04101 147.14285,50 0 0 1 13.95898,-1.57618 147.14285,50 0 0 1 14.34961,-1.0957 147.14285,50 0 0 1 14.60157,-0.60156 147.14285,50 0 0 1 10.4082,-0.125 147.14285,50 0 0 1 14.68945,0.25 147.14285,50 0 0 1 14.54297,0.74609 147.14285,50 0 0 1 14.25195,1.23633 147.14285,50 0 0 1 13.81641,1.71484 147.14285,50 0 0 1 13.24414,2.17383 147.14285,50 0 0 1 12.53906,2.61133 147.14285,50 0 0 1 11.70899,3.02539 147.14285,50 0 0 1 10.76172,3.40625 147.14285,50 0 0 1 9.70703,3.75586 147.14285,50 0 0 1 8.55468,4.06445 147.14285,50 0 0 1 7.31836,4.33594 147.14285,50 0 0 1 6.00782,4.56055 147.14285,50 0 0 1 4.63867,4.74414 147.14285,50 0 0 1 0.29101,0.43945 147.14285,50 0 0 0 5.07032,-12.7793 147.14285,50 0 0 0 -147.14258,-50 z"
             style="fill:#806600;stroke:none"
             inkscape:connector-curvature="0" />
        </g>
        <g
           id="g4178"
           transform="matrix(-0.53497089,0.65920517,-0.65920517,-0.53497089,291.30318,828.10298)"
           inkscape:transform-center-y="-8.0812204">
          <path
             style="fill:#504416;stroke:none"
             d="m -529.17801,-238.28711 a 148.80735,50 0 0 0 -0.29429,-0.43945 148.80735,50 0 0 0 -4.69116,-4.74414 148.80735,50 0 0 0 -6.07577,-4.56055 148.80735,50 0 0 0 -7.40116,-4.33594 148.80735,50 0 0 0 -8.65144,-4.06445 148.80735,50 0 0 0 -9.81683,-3.75586 148.80735,50 0 0 0 -10.88346,-3.40625 148.80735,50 0 0 0 -11.84145,-3.02539 148.80735,50 0 0 0 -12.6809,-2.61133 148.80735,50 0 0 0 -13.39395,-2.17383 148.80735,50 0 0 0 -13.97271,-1.71484 148.80735,50 0 0 0 -14.41317,-1.23633 148.80735,50 0 0 0 -14.7075,-0.74609 148.80735,50 0 0 0 -14.8556,-0.25 148.80735,50 0 0 0 -10.52594,0.125 148.80735,50 0 0 0 -14.76676,0.60156 148.80735,50 0 0 0 -14.51193,1.0957 148.80735,50 0 0 0 -14.11688,1.57618 148.80735,50 0 0 0 -13.57569,2.04101 148.80735,50 0 0 0 -12.90411,2.48633 148.80735,50 0 0 0 -12.09822,2.9082 148.80735,50 0 0 0 -11.17579,3.29688 148.80735,50 0 0 0 -10.13879,3.6582 148.80735,50 0 0 0 -9.00106,3.97852 148.80735,50 0 0 0 -7.77448,4.25976 148.80735,50 0 0 0 -6.47082,4.50195 148.80735,50 0 0 0 -5.1,4.69336 148.80735,50 0 0 0 -1.51896,1.99805 148.80735,50 0 0 0 143.67942,37.06445 148.80735,50 0 0 0 143.67939,-37.2207 z"
             id="path4180"
             inkscape:connector-curvature="0" />
          <path
             style="fill:#806600;stroke:none"
             d="m -672.85742,-299.06641 a 147.14285,50 0 0 0 -147.14258,50 147.14285,50 0 0 0 5.07031,12.93555 147.14285,50 0 0 1 1.50196,-1.99805 147.14285,50 0 0 1 5.04296,-4.69336 147.14285,50 0 0 1 6.39844,-4.50195 147.14285,50 0 0 1 7.6875,-4.25976 147.14285,50 0 0 1 8.90039,-3.97852 147.14285,50 0 0 1 10.02539,-3.6582 147.14285,50 0 0 1 11.05078,-3.29688 147.14285,50 0 0 1 11.96289,-2.9082 147.14285,50 0 0 1 12.75977,-2.48633 147.14285,50 0 0 1 13.42383,-2.04101 147.14285,50 0 0 1 13.95898,-1.57618 147.14285,50 0 0 1 14.34961,-1.0957 147.14285,50 0 0 1 14.60157,-0.60156 147.14285,50 0 0 1 10.4082,-0.125 147.14285,50 0 0 1 14.68945,0.25 147.14285,50 0 0 1 14.54297,0.74609 147.14285,50 0 0 1 14.25195,1.23633 147.14285,50 0 0 1 13.81641,1.71484 147.14285,50 0 0 1 13.24414,2.17383 147.14285,50 0 0 1 12.53906,2.61133 147.14285,50 0 0 1 11.70899,3.02539 147.14285,50 0 0 1 10.76172,3.40625 147.14285,50 0 0 1 9.70703,3.75586 147.14285,50 0 0 1 8.55468,4.06445 147.14285,50 0 0 1 7.31836,4.33594 147.14285,50 0 0 1 6.00782,4.56055 147.14285,50 0 0 1 4.63867,4.74414 147.14285,50 0 0 1 0.29101,0.43945 147.14285,50 0 0 0 5.07032,-12.7793 147.14285,50 0 0 0 -147.14258,-50 z"
             id="path4182"
             inkscape:connector-curvature="0" />
        </g>
        <g
           id="g4184"
           transform="matrix(0.63374334,0.65664803,-0.65664803,0.63374334,1201.983,687.90325)"
           inkscape:transform-center-x="-162.88644"
           inkscape:transform-center-y="-290.47888">
          <g
             id="g4220"
             transform="translate(-34.155698,16.2628)">
            <path
               style="fill:#504416;stroke:none"
               d="m -529.17801,-238.28711 a 148.80735,50 0 0 0 -0.29429,-0.43945 148.80735,50 0 0 0 -4.69116,-4.74414 148.80735,50 0 0 0 -6.07577,-4.56055 148.80735,50 0 0 0 -7.40116,-4.33594 148.80735,50 0 0 0 -8.65144,-4.06445 148.80735,50 0 0 0 -9.81683,-3.75586 148.80735,50 0 0 0 -10.88346,-3.40625 148.80735,50 0 0 0 -11.84145,-3.02539 148.80735,50 0 0 0 -12.6809,-2.61133 148.80735,50 0 0 0 -13.39395,-2.17383 148.80735,50 0 0 0 -13.97271,-1.71484 148.80735,50 0 0 0 -14.41317,-1.23633 148.80735,50 0 0 0 -14.7075,-0.74609 148.80735,50 0 0 0 -14.8556,-0.25 148.80735,50 0 0 0 -10.52594,0.125 148.80735,50 0 0 0 -14.76676,0.60156 148.80735,50 0 0 0 -14.51193,1.0957 148.80735,50 0 0 0 -14.11688,1.57618 148.80735,50 0 0 0 -13.57569,2.04101 148.80735,50 0 0 0 -12.90411,2.48633 148.80735,50 0 0 0 -12.09822,2.9082 148.80735,50 0 0 0 -11.17579,3.29688 148.80735,50 0 0 0 -10.13879,3.6582 148.80735,50 0 0 0 -9.00106,3.97852 148.80735,50 0 0 0 -7.77448,4.25976 148.80735,50 0 0 0 -6.47082,4.50195 148.80735,50 0 0 0 -5.1,4.69336 148.80735,50 0 0 0 -1.51896,1.99805 148.80735,50 0 0 0 143.67942,37.06445 148.80735,50 0 0 0 143.67939,-37.2207 z"
               id="path4186"
               inkscape:connector-curvature="0" />
            <path
               inkscape:connector-curvature="0"
               style="fill:#806600;stroke:none"
               d="m -672.85742,-299.06641 a 147.14285,50 0 0 0 -147.14258,50 147.14285,50 0 0 0 5.07031,12.93555 147.14285,50 0 0 1 1.50196,-1.99805 147.14285,50 0 0 1 5.04296,-4.69336 147.14285,50 0 0 1 6.39844,-4.50195 147.14285,50 0 0 1 7.6875,-4.25976 147.14285,50 0 0 1 8.90039,-3.97852 147.14285,50 0 0 1 10.02539,-3.6582 147.14285,50 0 0 1 11.05078,-3.29688 147.14285,50 0 0 1 11.96289,-2.9082 147.14285,50 0 0 1 12.75977,-2.48633 147.14285,50 0 0 1 13.42383,-2.04101 147.14285,50 0 0 1 13.95898,-1.57618 147.14285,50 0 0 1 14.34961,-1.0957 147.14285,50 0 0 1 14.60157,-0.60156 147.14285,50 0 0 1 10.4082,-0.125 147.14285,50 0 0 1 14.68945,0.25 147.14285,50 0 0 1 14.54297,0.74609 147.14285,50 0 0 1 14.25195,1.23633 147.14285,50 0 0 1 13.81641,1.71484 147.14285,50 0 0 1 13.24414,2.17383 147.14285,50 0 0 1 12.53906,2.61133 147.14285,50 0 0 1 11.70899,3.02539 147.14285,50 0 0 1 10.76172,3.40625 147.14285,50 0 0 1 9.70703,3.75586 147.14285,50 0 0 1 8.55468,4.06445 147.14285,50 0 0 1 7.31836,4.33594 147.14285,50 0 0 1 6.00782,4.56055 147.14285,50 0 0 1 4.63867,4.74414 147.14285,50 0 0 1 0.29101,0.43945 147.14285,50 0 0 0 5.07032,-12.7793 147.14285,50 0 0 0 -147.14258,-50 z"
               id="path4188" />
          </g>
        </g>
        <g
           id="g4190"
           transform="matrix(-0.49620505,-0.09759095,0.09759095,-0.49620505,116.24343,296.16158)">
          <path
             style="fill:#504416;stroke:none"
             d="m -529.17801,-238.28711 a 148.80735,50 0 0 0 -0.29429,-0.43945 148.80735,50 0 0 0 -4.69116,-4.74414 148.80735,50 0 0 0 -6.07577,-4.56055 148.80735,50 0 0 0 -7.40116,-4.33594 148.80735,50 0 0 0 -8.65144,-4.06445 148.80735,50 0 0 0 -9.81683,-3.75586 148.80735,50 0 0 0 -10.88346,-3.40625 148.80735,50 0 0 0 -11.84145,-3.02539 148.80735,50 0 0 0 -12.6809,-2.61133 148.80735,50 0 0 0 -13.39395,-2.17383 148.80735,50 0 0 0 -13.97271,-1.71484 148.80735,50 0 0 0 -14.41317,-1.23633 148.80735,50 0 0 0 -14.7075,-0.74609 148.80735,50 0 0 0 -14.8556,-0.25 148.80735,50 0 0 0 -10.52594,0.125 148.80735,50 0 0 0 -14.76676,0.60156 148.80735,50 0 0 0 -14.51193,1.0957 148.80735,50 0 0 0 -14.11688,1.57618 148.80735,50 0 0 0 -13.57569,2.04101 148.80735,50 0 0 0 -12.90411,2.48633 148.80735,50 0 0 0 -12.09822,2.9082 148.80735,50 0 0 0 -11.17579,3.29688 148.80735,50 0 0 0 -10.13879,3.6582 148.80735,50 0 0 0 -9.00106,3.97852 148.80735,50 0 0 0 -7.77448,4.25976 148.80735,50 0 0 0 -6.47082,4.50195 148.80735,50 0 0 0 -5.1,4.69336 148.80735,50 0 0 0 -1.51896,1.99805 148.80735,50 0 0 0 143.67942,37.06445 148.80735,50 0 0 0 143.67939,-37.2207 z"
             id="path4192"
             inkscape:connector-curvature="0" />
          <path
             style="fill:#806600;stroke:none"
             d="m -672.85742,-299.06641 a 147.14285,50 0 0 0 -147.14258,50 147.14285,50 0 0 0 5.07031,12.93555 147.14285,50 0 0 1 1.50196,-1.99805 147.14285,50 0 0 1 5.04296,-4.69336 147.14285,50 0 0 1 6.39844,-4.50195 147.14285,50 0 0 1 7.6875,-4.25976 147.14285,50 0 0 1 8.90039,-3.97852 147.14285,50 0 0 1 10.02539,-3.6582 147.14285,50 0 0 1 11.05078,-3.29688 147.14285,50 0 0 1 11.96289,-2.9082 147.14285,50 0 0 1 12.75977,-2.48633 147.14285,50 0 0 1 13.42383,-2.04101 147.14285,50 0 0 1 13.95898,-1.57618 147.14285,50 0 0 1 14.34961,-1.0957 147.14285,50 0 0 1 14.60157,-0.60156 147.14285,50 0 0 1 10.4082,-0.125 147.14285,50 0 0 1 14.68945,0.25 147.14285,50 0 0 1 14.54297,0.74609 147.14285,50 0 0 1 14.25195,1.23633 147.14285,50 0 0 1 13.81641,1.71484 147.14285,50 0 0 1 13.24414,2.17383 147.14285,50 0 0 1 12.53906,2.61133 147.14285,50 0 0 1 11.70899,3.02539 147.14285,50 0 0 1 10.76172,3.40625 147.14285,50 0 0 1 9.70703,3.75586 147.14285,50 0 0 1 8.55468,4.06445 147.14285,50 0 0 1 7.31836,4.33594 147.14285,50 0 0 1 6.00782,4.56055 147.14285,50 0 0 1 4.63867,4.74414 147.14285,50 0 0 1 0.29101,0.43945 147.14285,50 0 0 0 5.07032,-12.7793 147.14285,50 0 0 0 -147.14258,-50 z"
             id="path4194"
             inkscape:connector-curvature="0" />
        </g>
        <g
           id="g4196"
           transform="matrix(0.7526157,0,0,0.7526157,1017.4091,71.477642)">
          <path
             inkscape:connector-curvature="0"
             id="path4198"
             d="m -529.17801,-238.28711 a 148.80735,50 0 0 0 -0.29429,-0.43945 148.80735,50 0 0 0 -4.69116,-4.74414 148.80735,50 0 0 0 -6.07577,-4.56055 148.80735,50 0 0 0 -7.40116,-4.33594 148.80735,50 0 0 0 -8.65144,-4.06445 148.80735,50 0 0 0 -9.81683,-3.75586 148.80735,50 0 0 0 -10.88346,-3.40625 148.80735,50 0 0 0 -11.84145,-3.02539 148.80735,50 0 0 0 -12.6809,-2.61133 148.80735,50 0 0 0 -13.39395,-2.17383 148.80735,50 0 0 0 -13.97271,-1.71484 148.80735,50 0 0 0 -14.41317,-1.23633 148.80735,50 0 0 0 -14.7075,-0.74609 148.80735,50 0 0 0 -14.8556,-0.25 148.80735,50 0 0 0 -10.52594,0.125 148.80735,50 0 0 0 -14.76676,0.60156 148.80735,50 0 0 0 -14.51193,1.0957 148.80735,50 0 0 0 -14.11688,1.57618 148.80735,50 0 0 0 -13.57569,2.04101 148.80735,50 0 0 0 -12.90411,2.48633 148.80735,50 0 0 0 -12.09822,2.9082 148.80735,50 0 0 0 -11.17579,3.29688 148.80735,50 0 0 0 -10.13879,3.6582 148.80735,50 0 0 0 -9.00106,3.97852 148.80735,50 0 0 0 -7.77448,4.25976 148.80735,50 0 0 0 -6.47082,4.50195 148.80735,50 0 0 0 -5.1,4.69336 148.80735,50 0 0 0 -1.51896,1.99805 148.80735,50 0 0 0 143.67942,37.06445 148.80735,50 0 0 0 143.67939,-37.2207 z"
             style="fill:#504416;stroke:none" />
          <path
             id="path4200"
             d="m -672.85742,-299.06641 a 147.14285,50 0 0 0 -147.14258,50 147.14285,50 0 0 0 5.07031,12.93555 147.14285,50 0 0 1 1.50196,-1.99805 147.14285,50 0 0 1 5.04296,-4.69336 147.14285,50 0 0 1 6.39844,-4.50195 147.14285,50 0 0 1 7.6875,-4.25976 147.14285,50 0 0 1 8.90039,-3.97852 147.14285,50 0 0 1 10.02539,-3.6582 147.14285,50 0 0 1 11.05078,-3.29688 147.14285,50 0 0 1 11.96289,-2.9082 147.14285,50 0 0 1 12.75977,-2.48633 147.14285,50 0 0 1 13.42383,-2.04101 147.14285,50 0 0 1 13.95898,-1.57618 147.14285,50 0 0 1 14.34961,-1.0957 147.14285,50 0 0 1 14.60157,-0.60156 147.14285,50 0 0 1 10.4082,-0.125 147.14285,50 0 0 1 14.68945,0.25 147.14285,50 0 0 1 14.54297,0.74609 147.14285,50 0 0 1 14.25195,1.23633 147.14285,50 0 0 1 13.81641,1.71484 147.14285,50 0 0 1 13.24414,2.17383 147.14285,50 0 0 1 12.53906,2.61133 147.14285,50 0 0 1 11.70899,3.02539 147.14285,50 0 0 1 10.76172,3.40625 147.14285,50 0 0 1 9.70703,3.75586 147.14285,50 0 0 1 8.55468,4.06445 147.14285,50 0 0 1 7.31836,4.33594 147.14285,50 0 0 1 6.00782,4.56055 147.14285,50 0 0 1 4.63867,4.74414 147.14285,50 0 0 1 0.29101,0.43945 147.14285,50 0 0 0 5.07032,-12.7793 147.14285,50 0 0 0 -147.14258,-50 z"
             style="fill:#806600;stroke:none"
             inkscape:connector-curvature="0" />
        </g>
        <g
           id="g4202"
           transform="matrix(1.0951874,-0.35417659,0.35417659,1.0951874,1197.1645,128.20395)">
          <path
             style="fill:#504416;stroke:none"
             d="m -529.17801,-238.28711 a 148.80735,50 0 0 0 -0.29429,-0.43945 148.80735,50 0 0 0 -4.69116,-4.74414 148.80735,50 0 0 0 -6.07577,-4.56055 148.80735,50 0 0 0 -7.40116,-4.33594 148.80735,50 0 0 0 -8.65144,-4.06445 148.80735,50 0 0 0 -9.81683,-3.75586 148.80735,50 0 0 0 -10.88346,-3.40625 148.80735,50 0 0 0 -11.84145,-3.02539 148.80735,50 0 0 0 -12.6809,-2.61133 148.80735,50 0 0 0 -13.39395,-2.17383 148.80735,50 0 0 0 -13.97271,-1.71484 148.80735,50 0 0 0 -14.41317,-1.23633 148.80735,50 0 0 0 -14.7075,-0.74609 148.80735,50 0 0 0 -14.8556,-0.25 148.80735,50 0 0 0 -10.52594,0.125 148.80735,50 0 0 0 -14.76676,0.60156 148.80735,50 0 0 0 -14.51193,1.0957 148.80735,50 0 0 0 -14.11688,1.57618 148.80735,50 0 0 0 -13.57569,2.04101 148.80735,50 0 0 0 -12.90411,2.48633 148.80735,50 0 0 0 -12.09822,2.9082 148.80735,50 0 0 0 -11.17579,3.29688 148.80735,50 0 0 0 -10.13879,3.6582 148.80735,50 0 0 0 -9.00106,3.97852 148.80735,50 0 0 0 -7.77448,4.25976 148.80735,50 0 0 0 -6.47082,4.50195 148.80735,50 0 0 0 -5.1,4.69336 148.80735,50 0 0 0 -1.51896,1.99805 148.80735,50 0 0 0 143.67942,37.06445 148.80735,50 0 0 0 143.67939,-37.2207 z"
             id="path4204"
             inkscape:connector-curvature="0" />
          <path
             style="fill:#806600;stroke:none"
             d="m -672.85742,-299.06641 a 147.14285,50 0 0 0 -147.14258,50 147.14285,50 0 0 0 5.07031,12.93555 147.14285,50 0 0 1 1.50196,-1.99805 147.14285,50 0 0 1 5.04296,-4.69336 147.14285,50 0 0 1 6.39844,-4.50195 147.14285,50 0 0 1 7.6875,-4.25976 147.14285,50 0 0 1 8.90039,-3.97852 147.14285,50 0 0 1 10.02539,-3.6582 147.14285,50 0 0 1 11.05078,-3.29688 147.14285,50 0 0 1 11.96289,-2.9082 147.14285,50 0 0 1 12.75977,-2.48633 147.14285,50 0 0 1 13.42383,-2.04101 147.14285,50 0 0 1 13.95898,-1.57618 147.14285,50 0 0 1 14.34961,-1.0957 147.14285,50 0 0 1 14.60157,-0.60156 147.14285,50 0 0 1 10.4082,-0.125 147.14285,50 0 0 1 14.68945,0.25 147.14285,50 0 0 1 14.54297,0.74609 147.14285,50 0 0 1 14.25195,1.23633 147.14285,50 0 0 1 13.81641,1.71484 147.14285,50 0 0 1 13.24414,2.17383 147.14285,50 0 0 1 12.53906,2.61133 147.14285,50 0 0 1 11.70899,3.02539 147.14285,50 0 0 1 10.76172,3.40625 147.14285,50 0 0 1 9.70703,3.75586 147.14285,50 0 0 1 8.55468,4.06445 147.14285,50 0 0 1 7.31836,4.33594 147.14285,50 0 0 1 6.00782,4.56055 147.14285,50 0 0 1 4.63867,4.74414 147.14285,50 0 0 1 0.29101,0.43945 147.14285,50 0 0 0 5.07032,-12.7793 147.14285,50 0 0 0 -147.14258,-50 z"
             id="path4206"
             inkscape:connector-curvature="0" />
        </g>
        <g
           transform="matrix(0.30674717,0.14736376,-0.14736376,0.30674717,935.05212,418.75)"
           id="g4208">
          <path
             style="fill:#504416;stroke:none"
             d="m -529.17801,-238.28711 a 148.80735,50 0 0 0 -0.29429,-0.43945 148.80735,50 0 0 0 -4.69116,-4.74414 148.80735,50 0 0 0 -6.07577,-4.56055 148.80735,50 0 0 0 -7.40116,-4.33594 148.80735,50 0 0 0 -8.65144,-4.06445 148.80735,50 0 0 0 -9.81683,-3.75586 148.80735,50 0 0 0 -10.88346,-3.40625 148.80735,50 0 0 0 -11.84145,-3.02539 148.80735,50 0 0 0 -12.6809,-2.61133 148.80735,50 0 0 0 -13.39395,-2.17383 148.80735,50 0 0 0 -13.97271,-1.71484 148.80735,50 0 0 0 -14.41317,-1.23633 148.80735,50 0 0 0 -14.7075,-0.74609 148.80735,50 0 0 0 -14.8556,-0.25 148.80735,50 0 0 0 -10.52594,0.125 148.80735,50 0 0 0 -14.76676,0.60156 148.80735,50 0 0 0 -14.51193,1.0957 148.80735,50 0 0 0 -14.11688,1.57618 148.80735,50 0 0 0 -13.57569,2.04101 148.80735,50 0 0 0 -12.90411,2.48633 148.80735,50 0 0 0 -12.09822,2.9082 148.80735,50 0 0 0 -11.17579,3.29688 148.80735,50 0 0 0 -10.13879,3.6582 148.80735,50 0 0 0 -9.00106,3.97852 148.80735,50 0 0 0 -7.77448,4.25976 148.80735,50 0 0 0 -6.47082,4.50195 148.80735,50 0 0 0 -5.1,4.69336 148.80735,50 0 0 0 -1.51896,1.99805 148.80735,50 0 0 0 143.67942,37.06445 148.80735,50 0 0 0 143.67939,-37.2207 z"
             id="path4210"
             inkscape:connector-curvature="0" />
          <path
             inkscape:connector-curvature="0"
             style="fill:#806600;stroke:none"
             d="m -672.85742,-299.06641 a 147.14285,50 0 0 0 -147.14258,50 147.14285,50 0 0 0 5.07031,12.93555 147.14285,50 0 0 1 1.50196,-1.99805 147.14285,50 0 0 1 5.04296,-4.69336 147.14285,50 0 0 1 6.39844,-4.50195 147.14285,50 0 0 1 7.6875,-4.25976 147.14285,50 0 0 1 8.90039,-3.97852 147.14285,50 0 0 1 10.02539,-3.6582 147.14285,50 0 0 1 11.05078,-3.29688 147.14285,50 0 0 1 11.96289,-2.9082 147.14285,50 0 0 1 12.75977,-2.48633 147.14285,50 0 0 1 13.42383,-2.04101 147.14285,50 0 0 1 13.95898,-1.57618 147.14285,50 0 0 1 14.34961,-1.0957 147.14285,50 0 0 1 14.60157,-0.60156 147.14285,50 0 0 1 10.4082,-0.125 147.14285,50 0 0 1 14.68945,0.25 147.14285,50 0 0 1 14.54297,0.74609 147.14285,50 0 0 1 14.25195,1.23633 147.14285,50 0 0 1 13.81641,1.71484 147.14285,50 0 0 1 13.24414,2.17383 147.14285,50 0 0 1 12.53906,2.61133 147.14285,50 0 0 1 11.70899,3.02539 147.14285,50 0 0 1 10.76172,3.40625 147.14285,50 0 0 1 9.70703,3.75586 147.14285,50 0 0 1 8.55468,4.06445 147.14285,50 0 0 1 7.31836,4.33594 147.14285,50 0 0 1 6.00782,4.56055 147.14285,50 0 0 1 4.63867,4.74414 147.14285,50 0 0 1 0.29101,0.43945 147.14285,50 0 0 0 5.07032,-12.7793 147.14285,50 0 0 0 -147.14258,-50 z"
             id="path4212" />
        </g>
        <g
           id="g4214"
           transform="matrix(-0.90386064,-0.35305077,0.35305077,-0.90386064,-273.40978,176.28509)"
           inkscape:transform-center-x="454.57894"
           inkscape:transform-center-y="-66.756344">
          <path
             inkscape:connector-curvature="0"
             id="path4216"
             d="m -529.17801,-238.28711 a 148.80735,50 0 0 0 -0.29429,-0.43945 148.80735,50 0 0 0 -4.69116,-4.74414 148.80735,50 0 0 0 -6.07577,-4.56055 148.80735,50 0 0 0 -7.40116,-4.33594 148.80735,50 0 0 0 -8.65144,-4.06445 148.80735,50 0 0 0 -9.81683,-3.75586 148.80735,50 0 0 0 -10.88346,-3.40625 148.80735,50 0 0 0 -11.84145,-3.02539 148.80735,50 0 0 0 -12.6809,-2.61133 148.80735,50 0 0 0 -13.39395,-2.17383 148.80735,50 0 0 0 -13.97271,-1.71484 148.80735,50 0 0 0 -14.41317,-1.23633 148.80735,50 0 0 0 -14.7075,-0.74609 148.80735,50 0 0 0 -14.8556,-0.25 148.80735,50 0 0 0 -10.52594,0.125 148.80735,50 0 0 0 -14.76676,0.60156 148.80735,50 0 0 0 -14.51193,1.0957 148.80735,50 0 0 0 -14.11688,1.57618 148.80735,50 0 0 0 -13.57569,2.04101 148.80735,50 0 0 0 -12.90411,2.48633 148.80735,50 0 0 0 -12.09822,2.9082 148.80735,50 0 0 0 -11.17579,3.29688 148.80735,50 0 0 0 -10.13879,3.6582 148.80735,50 0 0 0 -9.00106,3.97852 148.80735,50 0 0 0 -7.77448,4.25976 148.80735,50 0 0 0 -6.47082,4.50195 148.80735,50 0 0 0 -5.1,4.69336 148.80735,50 0 0 0 -1.51896,1.99805 148.80735,50 0 0 0 143.67942,37.06445 148.80735,50 0 0 0 143.67939,-37.2207 z"
             style="fill:#504416;stroke:none" />
          <path
             id="path4218"
             d="m -672.85742,-299.06641 a 147.14285,50 0 0 0 -147.14258,50 147.14285,50 0 0 0 5.07031,12.93555 147.14285,50 0 0 1 1.50196,-1.99805 147.14285,50 0 0 1 5.04296,-4.69336 147.14285,50 0 0 1 6.39844,-4.50195 147.14285,50 0 0 1 7.6875,-4.25976 147.14285,50 0 0 1 8.90039,-3.97852 147.14285,50 0 0 1 10.02539,-3.6582 147.14285,50 0 0 1 11.05078,-3.29688 147.14285,50 0 0 1 11.96289,-2.9082 147.14285,50 0 0 1 12.75977,-2.48633 147.14285,50 0 0 1 13.42383,-2.04101 147.14285,50 0 0 1 13.95898,-1.57618 147.14285,50 0 0 1 14.34961,-1.0957 147.14285,50 0 0 1 14.60157,-0.60156 147.14285,50 0 0 1 10.4082,-0.125 147.14285,50 0 0 1 14.68945,0.25 147.14285,50 0 0 1 14.54297,0.74609 147.14285,50 0 0 1 14.25195,1.23633 147.14285,50 0 0 1 13.81641,1.71484 147.14285,50 0 0 1 13.24414,2.17383 147.14285,50 0 0 1 12.53906,2.61133 147.14285,50 0 0 1 11.70899,3.02539 147.14285,50 0 0 1 10.76172,3.40625 147.14285,50 0 0 1 9.70703,3.75586 147.14285,50 0 0 1 8.55468,4.06445 147.14285,50 0 0 1 7.31836,4.33594 147.14285,50 0 0 1 6.00782,4.56055 147.14285,50 0 0 1 4.63867,4.74414 147.14285,50 0 0 1 0.29101,0.43945 147.14285,50 0 0 0 5.07032,-12.7793 147.14285,50 0 0 0 -147.14258,-50 z"
             style="fill:#806600;stroke:none"
             inkscape:connector-curvature="0" />
        </g>
        <path
           inkscape:connector-curvature="0"
           style="fill:#806600;stroke:none"
           d="m 153.54318,448.29099 a 22.223356,18.182745 0 0 1 -22.22336,18.18274 22.223356,18.182745 0 0 1 -22.22335,-18.18274 22.223356,18.182745 0 0 1 22.22335,-18.18275 22.223356,18.182745 0 0 1 22.22336,18.18275 z"
           id="path4224" />
        <path
           inkscape:connector-curvature="0"
           style="fill:#806600;stroke:none"
           d="M 735.39102,-2.2370515 A 28.284271,16.162441 0 0 1 707.10675,13.92539 28.284271,16.162441 0 0 1 678.82248,-2.2370515 28.284271,16.162441 0 0 1 707.10675,-18.399493 28.284271,16.162441 0 0 1 735.39102,-2.2370515 Z"
           id="path4226" />
        <path
           inkscape:connector-curvature="0"
           style="fill:#806600;stroke:none"
           d="m 197.9899,272.52444 a 22.223356,16.162441 0 0 1 -22.22336,16.16245 22.223356,16.162441 0 0 1 -22.22336,-16.16245 22.223356,16.162441 0 0 1 22.22336,-16.16244 22.223356,16.162441 0 0 1 22.22336,16.16244 z"
           id="path4228" />
        <path
           inkscape:connector-curvature="0"
           style="fill:#806600;stroke:none"
           d="M 299.00515,-8.297967 A 16.162441,14.142136 0 0 1 282.84271,5.8441687 16.162441,14.142136 0 0 1 266.68027,-8.297967 a 16.162441,14.142136 0 0 1 16.16244,-14.142136 16.162441,14.142136 0 0 1 16.16244,14.142136 z"
           id="path4230" />
        <path
           inkscape:connector-curvature="0"
           style="fill:#806600;stroke:none"
           d="m 933.38093,276.56506 a 18.182745,16.162441 0 0 1 -18.18275,16.16244 18.182745,16.162441 0 0 1 -18.18274,-16.16244 18.182745,16.162441 0 0 1 18.18274,-16.16244 18.182745,16.162441 0 0 1 18.18275,16.16244 z"
           id="path4232" />
        <path
           inkscape:connector-curvature="0"
           style="fill:#806600;stroke:none"
           d="m 525.27932,656.38239 a 16.162441,12.121831 0 0 1 -16.16244,12.12183 16.162441,12.121831 0 0 1 -16.16244,-12.12183 16.162441,12.121831 0 0 1 16.16244,-12.12184 16.162441,12.121831 0 0 1 16.16244,12.12184 z"
           id="path4234" />
        <path
           inkscape:connector-curvature="0"
           style="fill:#806600;stroke:none"
           d="m 593.96971,-14.358882 a 20.203051,16.162441 0 0 1 -20.20305,16.1624413 20.203051,16.162441 0 0 1 -20.20305,-16.1624413 20.203051,16.162441 0 0 1 20.20305,-16.162441 20.203051,16.162441 0 0 1 20.20305,16.162441 z"
           id="path4236" />
        <path
           inkscape:connector-curvature="0"
           style="fill:#806600;stroke:none"
           d="m 654.57886,-18.399492 a 12.121831,12.121831 0 0 1 -12.12183,12.1218307 12.121831,12.121831 0 0 1 -12.12183,-12.1218307 12.121831,12.121831 0 0 1 12.12183,-12.121831 12.121831,12.121831 0 0 1 12.12183,12.121831 z"
           id="path4238" />
        <path
           inkscape:connector-curvature="0"
           style="fill:#806600;stroke:none"
           d="m 436.38591,242.21986 a 14.142136,10.101525 0 0 1 -14.14214,10.10153 14.142136,10.101525 0 0 1 -14.14213,-10.10153 14.142136,10.101525 0 0 1 14.14213,-10.10152 14.142136,10.101525 0 0 1 14.14214,10.10152 z"
           id="path4240" />
        <path
           inkscape:connector-curvature="0"
           style="fill:#806600;stroke:none"
           d="m 610.13213,468.49405 a 14.142136,10.101525 0 0 1 -14.14214,10.10152 14.142136,10.101525 0 0 1 -14.14214,-10.10152 14.142136,10.101525 0 0 1 14.14214,-10.10153 14.142136,10.101525 0 0 1 14.14214,10.10153 z"
           id="path4242" />
        <path
           inkscape:connector-curvature="0"
           style="fill:#806600;stroke:none"
           d="m 707.10678,226.05742 a 16.162441,14.142136 0 0 1 -16.16244,14.14213 16.162441,14.142136 0 0 1 -16.16245,-14.14213 16.162441,14.142136 0 0 1 16.16245,-14.14214 16.162441,14.142136 0 0 1 16.16244,14.14214 z"
           id="path4244" />
        <path
           inkscape:connector-curvature="0"
           style="fill:#806600;stroke:none"
           d="m 602.05094,343.23511 a 40.406101,26.263966 0 0 1 -40.4061,26.26396 40.406101,26.263966 0 0 1 -40.4061,-26.26396 40.406101,26.263966 0 0 1 40.4061,-26.26397 40.406101,26.263966 0 0 1 40.4061,26.26397 z"
           id="path4246" />
        <path
           inkscape:connector-curvature="0"
           style="fill:#806600;stroke:none"
           d="m 719.22862,662.4433 a 14.142136,10.101525 0 0 1 -14.14213,10.10152 14.142136,10.101525 0 0 1 -14.14214,-10.10152 14.142136,10.101525 0 0 1 14.14214,-10.10153 14.142136,10.101525 0 0 1 14.14213,10.10153 z"
           id="path4248" />
        <path
           inkscape:connector-curvature="0"
           style="fill:#806600;stroke:none"
           d="m 961.66525,434.14883 a 10.101525,12.121831 0 0 1 -10.10153,12.12184 10.101525,12.121831 0 0 1 -10.10152,-12.12184 10.101525,12.121831 0 0 1 10.10152,-12.12183 10.101525,12.121831 0 0 1 10.10153,12.12183 z"
           id="path4250" />
        <path
           inkscape:connector-curvature="0"
           style="fill:#806600;stroke:none"
           d="M 125.25891,92.717285 A 6.0609155,10.101525 0 0 1 119.198,102.81881 6.0609155,10.101525 0 0 1 113.13708,92.717285 6.0609155,10.101525 0 0 1 119.198,82.61576 a 6.0609155,10.101525 0 0 1 6.06091,10.101525 z"
           id="path4252" />
        <path
           inkscape:connector-curvature="0"
           style="fill:#806600;stroke:none"
           d="m 323.24883,555.36713 a 14.142136,8.0812206 0 0 1 -14.14214,8.08122 14.142136,8.0812206 0 0 1 -14.14214,-8.08122 14.142136,8.0812206 0 0 1 14.14214,-8.08122 14.142136,8.0812206 0 0 1 14.14214,8.08122 z"
           id="path4254" />
      </g>
      <path
         sodipodi:nodetypes="caaaaaaccaaaaac"
         inkscape:connector-curvature="0"
         id="path4505"
         d="m 444.28571,-76.209224 c 0,0 21.80611,4.507086 32.85715,5.714285 10.42499,1.13881 20.94158,1.408748 31.42857,1.428572 11.43847,0.02162 22.89536,-0.380337 34.28571,-1.428572 13.41203,-1.234286 26.82747,-2.905305 40,-5.714285 10.17146,-2.169016 21.34179,-2.809601 30,-8.571429 5.07681,-3.378493 8.51432,-8.928909 11.42857,-14.285714 1.43925,-2.645543 2.85715,-8.571433 2.85715,-8.571433 l 27.14285,5.71429 c 0,0 3.20923,9.843668 1.42858,14.285714 -3.26707,8.150078 -12.14647,13.21609 -20,17.142857 -11.7803,5.890151 -25.49343,7.010846 -38.57143,8.571429 -25.06477,2.990951 -50.47769,1.978225 -75.71429,1.428571 -15.26421,-0.332455 -30.83255,0.554693 -45.71428,-2.857143 -11.03269,-2.529391 -31.42858,-12.857142 -31.42858,-12.857142 z"
         style="fill:#504416;fill-opacity:1;fill-rule:evenodd;stroke:none;stroke-width:1px;stroke-linecap:butt;stroke-linejoin:miter;stroke-opacity:1" />
    </g>
  </g>
</svg>
