<?xml version="1.0" encoding="UTF-8" standalone="no"?>
<!-- Created with Inkscape (http://www.inkscape.org/) -->

<svg
   xmlns:dc="http://purl.org/dc/elements/1.1/"
   xmlns:cc="http://creativecommons.org/ns#"
   xmlns:rdf="http://www.w3.org/1999/02/22-rdf-syntax-ns#"
   xmlns:svg="http://www.w3.org/2000/svg"
   xmlns="http://www.w3.org/2000/svg"
   xmlns:sodipodi="http://sodipodi.sourceforge.net/DTD/sodipodi-0.dtd"
   xmlns:inkscape="http://www.inkscape.org/namespaces/inkscape"
   width="201.89978mm"
   height="146.76303mm"
   viewBox="0 0 715.39292 520.02648"
   id="svg2"
   version="1.1"
   inkscape:version="0.91 r13725"
   sodipodi:docname="roots.svg">
  <defs
     id="defs4">
    <inkscape:path-effect
       effect="skeletal"
       id="path-effect4799"
       is_visible="true"
       pattern="m -1.5152288,7.0203051 c 0,-2.76 2.23999998,-5 5,-5 2.76,0 5,2.24 5,5 0,2.76 -2.24,4.9999999 -5,4.9999999 -2.76000002,0 -5,-2.2399999 -5,-4.9999999 z"
       copytype="single_stretched"
       prop_scale="1"
       scale_y_rel="false"
       spacing="0"
       normal_offset="0"
       tang_offset="0"
       prop_units="false"
       vertical_pattern="false"
       fuse_tolerance="0" />
    <inkscape:path-effect
       effect="spiro"
       id="path-effect4797"
       is_visible="true" />
    <inkscape:path-effect
       effect="skeletal"
       id="path-effect4791"
       is_visible="true"
       pattern="M 0,5 C 0,2.24 2.24,0 5,0 7.76,0 10,2.24 10,5 10,7.76 7.76,10 5,10 2.24,10 0,7.76 0,5 Z"
       copytype="single_stretched"
       prop_scale="1"
       scale_y_rel="false"
       spacing="0"
       normal_offset="0"
       tang_offset="0"
       prop_units="false"
       vertical_pattern="false"
       fuse_tolerance="0" />
    <inkscape:path-effect
       effect="spiro"
       id="path-effect4789"
       is_visible="true" />
    <inkscape:path-effect
       effect="skeletal"
       id="path-effect4785"
       is_visible="true"
       pattern="M 0,5 C 0,2.24 2.24,0 5,0 7.76,0 10,2.24 10,5 10,7.76 7.76,10 5,10 2.24,10 0,7.76 0,5 Z"
       copytype="single_stretched"
       prop_scale="1"
       scale_y_rel="false"
       spacing="0"
       normal_offset="0"
       tang_offset="0"
       prop_units="false"
       vertical_pattern="false"
       fuse_tolerance="0" />
    <inkscape:path-effect
       effect="spiro"
       id="path-effect4783"
       is_visible="true" />
    <inkscape:path-effect
       effect="skeletal"
       id="path-effect4346"
       is_visible="true"
       pattern="m -4.2191817,11.25 c 0,-2.76 2.2400001,-5 5,-5 2.76,0 5,2.24 5,5 0,2.76 -2.24,5 -5,5 -2.7599999,0 -5,-2.24 -5,-5 z"
       copytype="single_stretched"
       prop_scale="1"
       scale_y_rel="false"
       spacing="0"
       normal_offset="0"
       tang_offset="0"
       prop_units="false"
       vertical_pattern="false"
       fuse_tolerance="0" />
    <inkscape:path-effect
       effect="spiro"
       id="path-effect4344"
       is_visible="true" />
    <inkscape:path-effect
       effect="skeletal"
       id="path-effect4201"
       is_visible="true"
       pattern="m -2.8571429,4.2857143 c 0,-2.76 2.24000004,-5.00000002 5,-5.00000002 2.76,0 5,2.24000002 5,5.00000002 0,2.76 -2.24,5 -5,5 -2.75999996,0 -5,-2.24 -5,-5 z"
       copytype="single_stretched"
       prop_scale="1"
       scale_y_rel="false"
       spacing="0"
       normal_offset="0"
       tang_offset="0"
       prop_units="false"
       vertical_pattern="false"
       fuse_tolerance="0" />
    <inkscape:path-effect
       effect="spiro"
       id="path-effect4199"
       is_visible="true" />
    <inkscape:path-effect
       effect="skeletal"
       id="path-effect4150"
       is_visible="true"
       pattern="m 151.14036,-39.620027 c 0,-2.76 2.24,-5 5,-5 2.76,0 5,2.24 5,5 0,2.76 -2.24,5 -5,5 -2.76,0 -5,-2.24 -5,-5 z"
       copytype="single_stretched"
       prop_scale="1"
       scale_y_rel="false"
       spacing="0"
       normal_offset="0"
       tang_offset="0"
       prop_units="false"
       vertical_pattern="false"
       fuse_tolerance="0" />
    <inkscape:path-effect
       effect="spiro"
       id="path-effect4148"
       is_visible="true" />
    <clipPath
       id="clipPath4317"
       clipPathUnits="userSpaceOnUse">
      <path
         inkscape:connector-curvature="0"
         id="path4319"
         d="m 0,141.732 141.732,0 L 141.732,0 0,0 0,141.732 Z" />
    </clipPath>
  </defs>
  <sodipodi:namedview
     id="base"
     pagecolor="#ffffff"
     bordercolor="#666666"
     borderopacity="1.0"
     inkscape:pageopacity="0.0"
     inkscape:pageshadow="2"
     inkscape:zoom="0.98994949"
     inkscape:cx="355.28726"
     inkscape:cy="235.39254"
     inkscape:document-units="px"
     inkscape:current-layer="layer1"
     showgrid="false"
     inkscape:window-width="1440"
     inkscape:window-height="837"
     inkscape:window-x="-8"
     inkscape:window-y="-8"
     inkscape:window-maximized="1"
     fit-margin-top="4"
     fit-margin-left="15"
     fit-margin-right="5"
     fit-margin-bottom="5" />
  <metadata
     id="metadata7">
    <rdf:RDF>
      <cc:Work
         rdf:about="">
        <dc:format>image/svg+xml</dc:format>
        <dc:type
           rdf:resource="http://purl.org/dc/dcmitype/StillImage" />
        <dc:title />
      </cc:Work>
    </rdf:RDF>
  </metadata>
  <g
     inkscape:label="Livello 1"
     inkscape:groupmode="layer"
     id="layer1"
     transform="translate(8.3813453,-371.63944)">
    <path
       style="fill:#784421;fill-opacity:1;fill-rule:evenodd;stroke:#502d16;stroke-width:2.18600011;stroke-linecap:butt;stroke-linejoin:miter;stroke-miterlimit:4;stroke-dasharray:none;stroke-opacity:1"
       d="m 460.12448,393.74275 c -0.0284,-0.82832 7.27001,-2.73594 20.15071,-1.66545 12.73634,1.0585 31.04516,5.27683 49.28813,17.30887 11.92509,7.87384 23.25063,18.78073 32.21324,32.63358 5.19169,8.0244 9.18689,16.42233 12.03992,24.87385 10.67454,31.75667 1.42127,14.32753 11.22288,41.55043 4.42237,12.39254 10.73626,21.7017 15.35221,27.77763 4.67929,6.15931 7.79833,9.35818 7.21518,10.05412 -0.16944,0.20221 -17.98012,-7.29746 -29.96053,-34.89923 -7.57662,-17.57756 -5.82047,-21.36963 -13.02078,-41.28207 -2.76004,-7.66596 -6.49404,-15.29991 -11.24565,-22.64104 -8.1981,-12.6659 -18.36349,-22.84256 -29.03488,-30.45122 -16.30862,-11.64165 -32.98493,-16.82676 -44.88217,-19.37461 -11.97724,-2.56498 -19.29642,-2.66349 -19.33826,-3.88486 z"
       id="path4795"
       inkscape:original-d="m 460.12448,393.74275 c 36.36549,15.82572 83.21768,39.06378 109.09648,74.75129 8.44443,11.64507 5.79896,28.49583 12.12183,41.41625 6.57259,13.4307 17.50931,24.24366 26.26396,36.36549"
       inkscape:connector-curvature="0"
       sodipodi:nodetypes="caac"
       inkscape:path-effect="#path-effect4797;#path-effect4799" />
    <path
       style="fill:#784421;fill-rule:evenodd;stroke:#502d16;stroke-width:2.18600011;stroke-linecap:butt;stroke-linejoin:miter;stroke-miterlimit:4;stroke-dasharray:none;stroke-opacity:1"
       d="m 411.86914,18.8125 c -21.42186,0.104395 -50.84052,4.323094 -81.27148,19.851562 -13.74272,7.030121 -26.55263,15.689765 -39.97266,25.521485 -3.84621,2.81288 -7.63596,5.63898 -11.50781,8.525391 -9.02864,6.730739 -17.44761,12.996371 -26.20703,18.888671 -35.06878,23.609951 -69.02514,36.653051 -94.69532,44.316411 -25.37528,7.57532 -41.33599,9.71154 -41.15039,11.20898 0.11405,0.92016 16.40426,1.05687 42.78907,-4.97852 26.58829,-6.08194 62.10254,-18.37274 98.50976,-42.355464 9.06362,-5.97539 17.7067,-12.33597 26.73047,-19.0625 3.8978,-2.90551 7.62518,-5.696306 11.43555,-8.509766 13.26416,-9.77658 25.46077,-18.273818 38.43164,-25.205078 30.45901,-16.3185 60.18918,-21.162139 81.18554,-22.34961 21.11348,-1.194099 39.34915,1.120595 39.58378,-0.270215 0.12147,-0.72008 -17.8193,-5.106577 -39.68534,-5.550097 -1.35497,-0.02748 -2.74766,-0.03821 -4.17578,-0.03125 z m 43.34961,5.568359 c -2.71459,-0.133501 -9.1568,0.578505 -18.4082,2.976563 -12.32787,3.19552 -29.48013,9.446183 -47.92383,21.126953 -16.77603,10.61912 -34.01983,25.381486 -48.61524,44.822266 -1.33266,1.77507 -2.62495,3.563687 -3.87695,5.367187 -7.63029,11.015452 -14.53779,23.607592 -20.39648,33.613282 -7.36634,12.52481 -13.77549,22.4021 -21.55274,31.0625 -10.13404,11.32923 -20.86126,18.57623 -28.37109,23.07031 -7.61577,4.55748 -12.28042,6.59188 -11.98438,7.44727 0.0418,0.12067 21.85436,-1.03979 46.04883,-25.10742 8.78959,-8.77478 16.1773,-19.07829 23.93164,-31.59961 6.12358,-9.84604 13.38073,-22.58026 20.52149,-32.77735 1.18951,-1.70253 2.4147,-3.39384 3.67578,-5.074216 13.80041,-18.38913 29.86627,-32.712342 45.4668,-43.488282 17.1746,-11.85705 33.11476,-18.99007 44.67187,-23.53125 11.51246,-4.52364 18.4675,-6.479387 18.25,-7.523437 -0.042,-0.201392 -0.53264,-0.340265 -1.4375,-0.384766 z"
       id="path4146"
       transform="translate(4.3633117,368.0952)"
       inkscape:connector-curvature="0"
       sodipodi:nodetypes="sccscssscsccscsssscscccsccccscscs" />
    <path
       style="fill:#784421;fill-opacity:1;fill-rule:evenodd;stroke:#502d16;stroke-width:1.97613037;stroke-linecap:butt;stroke-linejoin:miter;stroke-miterlimit:4;stroke-dasharray:none;stroke-opacity:1"
       d="m 460.90477,392.91336 c 0.71419,0.87496 -5.68969,6.25774 -14.55104,17.59889 -8.73354,11.17759 -20.10297,28.78706 -26.11161,52.27455 -5.89602,23.01023 -6.31131,51.29767 3.84569,79.13226 0.6363,1.75263 1.31506,3.50366 2.02885,5.25998 3.22802,7.94275 7.49211,16.66535 10.95686,24.50678 4.71389,10.57123 8.58104,21.05675 10.24269,32.15948 3.26875,22.46996 -3.75424,42.7778 -13.6786,56.62041 0,0 -10e-6,1e-5 -10e-6,1e-5 -10.65694,14.83305 -24.28458,22.46756 -33.42256,25.95433 -9.47978,3.61718 -15.13544,3.48612 -15.24955,2.97781 -0.20115,-0.89602 5.10534,-2.18505 13.54704,-6.71972 8.16502,-4.38605 20.13877,-12.50541 29.00944,-26.3733 0,0 0,-10e-6 0,-10e-6 8.27764,-12.9092 13.83529,-31.37554 10.5205,-51.00943 -1.60451,-9.78429 -5.37129,-19.31677 -9.98414,-29.57237 -3.4767,-7.65801 -7.74636,-16.28419 -11.19955,-24.78164 -0.75413,-1.85571 -1.47801,-3.72289 -2.16401,-5.60783 -10.90746,-30.11237 -9.86172,-60.44952 -2.7061,-84.82015 7.30676,-24.8521 20.42506,-42.64404 30.60002,-53.26681 10.35192,-10.80752 17.89694,-14.84674 18.31608,-14.33324 z"
       id="path4197"
       inkscape:original-d="m 460.90477,392.91336 c 0,0 -44.07437,99.27204 -41.51348,150.71295 1.05819,21.25588 25.95249,39.78142 23.28805,60.94404 -4.04762,32.14868 -57.71385,84.82751 -57.71385,84.82751"
       inkscape:connector-curvature="0"
       sodipodi:nodetypes="caac"
       inkscape:path-effect="#path-effect4199;#path-effect4201" />
    <path
       style="fill:#784421;fill-opacity:1;fill-rule:evenodd;stroke:#502d16;stroke-width:2.18600011;stroke-linecap:butt;stroke-linejoin:miter;stroke-miterlimit:4;stroke-dasharray:none;stroke-opacity:1"
       d="m 459.70939,395.39792 c 0.12924,-0.60304 5.98209,-0.76902 15.78674,2.64515 9.53832,3.32143 23.48071,10.52129 35.2854,24.64122 11.24467,13.47038 20.11948,33.15985 19.88741,56.01366 -0.14391,10.57849 -2.12529,20.93912 -4.88389,31.41191 -0.25119,0.95363 -0.50703,1.90168 -0.76614,2.84348 -3.26503,11.99878 -6.4468,21.48446 -8.78405,32.35217 -6.49752,30.0161 -2.798,56.80457 1.95734,75.28438 4.77124,18.54165 10.30619,28.74867 9.01719,29.45089 -0.71864,0.3915 -8.25789,-8.80341 -14.91267,-27.64971 -6.60621,-18.70874 -11.89204,-46.85578 -5.54136,-79.0436 2.26971,-11.42961 5.47747,-21.45541 8.61546,-33.01627 0.24617,-0.91733 0.48985,-1.83694 0.72959,-2.75778 2.63466,-10.11983 4.58548,-19.63467 4.79229,-29.04697 0.52313,-20.20747 -6.82123,-38.20833 -16.34452,-50.89293 -9.98802,-13.32632 -22.27592,-21.09486 -30.813,-25.43687 -8.74491,-4.4477 -14.23155,-5.83866 -14.02579,-6.79873 z"
       id="path4342"
       inkscape:path-effect="#path-effect4344;#path-effect4346"
       inkscape:original-d="m 459.70939,395.39792 c 0,0 58.04851,48.7167 66.07143,83.21428 5.07775,21.83371 -13.54059,43.31029 -14.28571,65.71429 -1.18419,35.6056 15.71428,105.71429 15.71428,105.71429"
       inkscape:connector-curvature="0"
       sodipodi:nodetypes="caac" />
    <ellipse
       ry="73.236061"
       rx="66.164993"
       cy="586.56964"
       cx="111.78326"
       id="ellipse4793"
       style="opacity:0.872;fill:#784421;fill-opacity:1;fill-rule:evenodd;stroke:#2b1100;stroke-width:1.70000005;stroke-linecap:round;stroke-linejoin:round;stroke-miterlimit:4;stroke-dasharray:none;stroke-opacity:1" />
    <g
       id="g4184"
       transform="matrix(0.21349847,0,0,0.21349847,58.68598,529.26351)">
      <polygon
         id="polygon4158"
         points="437.367,100.62 404.321,470.819 255.778,512 107.644,470.877 74.633,100.62 "
         style="fill:#e44d26" />
      <polygon
         id="polygon4160"
         points="256,480.523 376.03,447.246 404.27,130.894 256,130.894 "
         style="fill:#f16529" />
      <polygon
         id="polygon4162"
         points="191.76,221.716 256,221.716 256,176.305 255.843,176.305 142.132,176.305 143.219,188.488 154.38,313.627 256,313.627 256,268.217 195.91,268.217 "
         style="fill:#ebebeb" />
      <polygon
         id="polygon4164"
         points="156.409,336.333 162.771,407.634 255.791,433.457 256,433.399 256,386.153 255.801,386.206 205.227,372.55 201.994,336.333 177.419,336.333 "
         style="fill:#ebebeb" />
      <path
         id="path4166"
         d="m 108.382,0 23.077,0 0,22.8 21.11,0 0,-22.8 23.078,0 0,69.044 -23.077,0 0,-23.12 -21.11,0 0,23.12 -23.077,0 0,-69.044 z"
         inkscape:connector-curvature="0" />
      <path
         id="path4168"
         d="m 205.994,22.896 -20.316,0 0,-22.896 63.72,0 0,22.896 -20.325,0 0,46.148 -23.078,0 0,-46.148 z"
         inkscape:connector-curvature="0" />
      <path
         id="path4170"
         d="m 259.511,0 24.063,0 14.802,24.26 14.787,-24.26 24.072,0 0,69.044 -22.982,0 0,-34.222 -15.877,24.549 -0.397,0 -15.888,-24.549 0,34.222 -22.58,0 0,-69.044 z"
         inkscape:connector-curvature="0" />
      <path
         id="path4172"
         d="m 348.72,0 23.084,0 0,46.222 32.453,0 0,22.822 -55.537,0 0,-69.044 z"
         inkscape:connector-curvature="0" />
      <polygon
         id="polygon4174"
         points="349.162,268.217 255.843,268.217 255.843,313.627 311.761,313.627 306.49,372.521 255.843,386.191 255.843,433.435 348.937,407.634 349.62,399.962 360.291,280.411 361.399,268.217 "
         style="fill:#ffffff" />
      <polygon
         id="polygon4176"
         points="255.843,221.605 255.843,221.716 365.385,221.716 365.385,221.716 365.531,221.716 366.442,211.509 368.511,188.488 369.597,176.305 255.843,176.305 255.843,204.509 "
         style="fill:#ffffff" />
    </g>
    <ellipse
       style="opacity:0.872;fill:#784421;fill-opacity:1;fill-rule:evenodd;stroke:#2b1100;stroke-width:1.70000005;stroke-linecap:round;stroke-linejoin:round;stroke-miterlimit:4;stroke-dasharray:none;stroke-opacity:1"
       id="path4152"
       cx="254.99753"
       cy="634.06964"
       rx="66.164993"
       ry="73.236061" />
    <ellipse
       ry="69.598862"
       rx="66.184525"
       cy="753.54272"
       cx="366.06415"
       id="ellipse4212"
       style="opacity:0.872;fill:#784421;fill-opacity:1;fill-rule:evenodd;stroke:#2b1100;stroke-width:1.65749264;stroke-linecap:round;stroke-linejoin:round;stroke-miterlimit:4;stroke-dasharray:none;stroke-opacity:1" />
    <g
       id="g4293"
       transform="matrix(0.96169956,0,0,-0.91366794,406.69687,724.0995)">
      <path
         d="m 0,0 -40.275,0 -40.276,0 7.548,-81.885 32.728,-9.279 32.715,9.279 L 0,0 Z"
         style="fill:#e7a63b;fill-opacity:1;fill-rule:nonzero;stroke:none"
         id="path4295"
         inkscape:connector-curvature="0" />
    </g>
    <g
       id="g4297"
       transform="matrix(0.96169956,0,0,-0.91366794,367.96404,730.19402)">
      <path
         d="M 0,0 0,-77.559 26.502,-70.046 32.956,0 0,0 Z"
         style="fill:#f1c137;fill-opacity:1;fill-rule:nonzero;stroke:none"
         id="path4299"
         inkscape:connector-curvature="0" />
    </g>
    <g
       id="g4301"
       transform="matrix(0.96169956,0,0,-0.91366794,388.24148,739.37438)">
      <path
         d="m 0,0 -40.763,0 -2.833,-30.66 0.06,0.192 34.626,0 -1.13,-12.969 -11.045,-3.184 -11.214,3.232 -0.673,7.849 -10.18,0 1.455,-15.685 20.612,-5.853 20.612,5.853 2.837,30.781 -36.742,0 0.468,10.264 25.503,0 0.375,-5.875 10.271,0 L 0,0 Z"
         style="fill:#ffffff;fill-opacity:1;fill-rule:nonzero;stroke:none"
         id="path4303"
         inkscape:connector-curvature="0" />
    </g>
    <g
       id="g4305"
       transform="matrix(0.96169956,0,0,-0.91366794,356.53261,771.84623)">
      <path
         d="m 0,0 -10.18,0 1.454,-15.685 20.613,-5.84 0,10.444 L 0.673,-7.849 0,0 Z m 11.887,35.54 -19.679,0 -2.833,-30.66 0.061,0.192 22.451,0 0,10.024 -11.876,0 0.468,10.264 11.408,0 0,10.18 z"
         style="fill:#ebebec;fill-opacity:1;fill-rule:nonzero;stroke:none"
         id="path4307"
         inkscape:connector-curvature="0" />
    </g>
    <g
       id="g4309"
       transform="matrix(0.96169956,0,0,-0.91366794,360.42586,713.06367)"
       style="fill:#000000">
      <path
         d="m 0,0 -7.163,0 0,-5.144 7.163,0 3.835,0 1.298,0 0,15.288 L 0,10.144 0,0 Z"
         style="fill:#000000;fill-opacity:1;fill-rule:nonzero;stroke:none"
         id="path4311"
         inkscape:connector-curvature="0" />
    </g>
    <g
       id="g4313"
       transform="matrix(0.96169956,0,0,-0.91366794,299.81205,820.34199)"
       style="fill:#000000">
      <g
         id="g4315"
         clip-path="url(#clipPath4317)"
         style="fill:#000000">
        <g
           id="g4321"
           transform="translate(85.8682,127.4814)"
           style="fill:#000000">
          <path
             d="m 0,0 -12.494,0 0,-5.354 c 1.67,-1.671 2.543,-2.471 4.961,-4.889 -1.414,0 -4.961,-0.005 -4.961,-0.005 l 0,-4.884 12.494,0 0,4.885 -4.99,4.893 4.99,0 L 0,0 Z"
             style="fill:#000000;fill-opacity:1;fill-rule:nonzero;stroke:none"
             id="path4323"
             inkscape:connector-curvature="0" />
        </g>
      </g>
    </g>
    <g
       id="g3013"
       transform="matrix(0.21349805,0,0,0.21349805,201.38105,578.87679)">
      <polygon
         id="polygon2989"
         points="74.633,100.62 437.367,100.62 404.321,470.819 255.778,512 107.644,470.877 "
         style="fill:#264de4" />
      <polygon
         id="polygon2991"
         points="404.27,130.894 256,130.894 256,480.523 376.03,447.246 "
         style="fill:#2965f1" />
      <polygon
         id="polygon2993"
         points="154.38,313.627 256,313.627 256,268.217 150.31,268.217 "
         style="fill:#ebebeb" />
      <polygon
         id="polygon2995"
         points="256,221.716 256,176.305 255.843,176.305 142.132,176.305 146.26,221.716 "
         style="fill:#ebebeb" />
      <polygon
         id="polygon2997"
         points="255.801,386.206 205.227,372.55 201.994,336.333 177.419,336.333 156.409,336.333 162.771,407.634 255.791,433.457 256,433.399 256,386.153 "
         style="fill:#ebebeb" />
      <path
         id="path2999"
         d="m 160,0 55,0 0,23 -32,0 0,23 32,0 0,23 -55,0 z"
         inkscape:connector-curvature="0" />
      <path
         id="path3001"
         d="m 226,0 55,0 0,20 -32,0 0,4 32,0 0,46 -55,0 0,-21 32,0 0,-4 -32,0 z"
         inkscape:connector-curvature="0" />
      <path
         id="path3003"
         d="m 292,0 55,0 0,20 -32,0 0,4 32,0 0,46 -55,0 0,-21 32,0 0,-4 -32,0 z"
         inkscape:connector-curvature="0" />
      <polygon
         id="polygon3005"
         points="255.843,313.627 311.761,313.627 306.49,372.521 255.843,386.191 255.843,433.435 348.937,407.634 349.62,399.962 360.291,280.411 361.399,268.217 369.597,176.305 255.843,176.305 255.843,221.716 319.831,221.716 315.699,268.217 255.843,268.217 "
         style="fill:#ffffff" />
    </g>
    <ellipse
       style="opacity:0.872;fill:#784421;fill-opacity:1;fill-rule:evenodd;stroke:#2b1100;stroke-width:1.70000005;stroke-linecap:round;stroke-linejoin:round;stroke-miterlimit:4;stroke-dasharray:none;stroke-opacity:1"
       id="ellipse4348"
       cx="522.04559"
       cy="721.40698"
       rx="66.164993"
       ry="73.236061" />
    <g
       id="g4832"
       transform="matrix(1.3653025,0,0,1.3653025,-300.95281,-468.99878)">
      <circle
         id="circle4806"
         r="6.4751387"
         cy="871.83911"
         cx="602.79565"
         style="fill:#00d8ff" />
      <path
         id="path4808"
         d="m 602.79564,858.67383 c 8.69375,0 16.77002,1.24747 22.85949,3.34386 7.33695,2.5258 11.84801,6.35458 11.84801,9.82145 0,3.61284 -4.78094,7.68015 -12.65974,10.29062 -5.95678,1.97364 -13.79505,3.00376 -22.04776,3.00376 -8.46117,0 -16.47342,-0.96701 -22.4959,-3.02557 -7.62117,-2.60493 -12.2116,-6.72502 -12.2116,-10.26881 0,-3.43873 4.30712,-7.23783 11.54094,-9.75989 6.11219,-2.13084 14.38788,-3.40542 23.16656,-3.40542 z"
         stroke-miterlimit="10"
         inkscape:connector-curvature="0"
         style="fill:none;stroke:#00d8ff;stroke-width:3.09772015;stroke-miterlimit:10" />
      <path
         id="path4810"
         d="m 591.33498,865.29443 c 4.34313,-7.53108 9.4585,-13.90412 14.31663,-18.13199 5.8534,-5.09394 11.42374,-7.089 14.42698,-5.35712 3.12973,1.80481 4.26479,7.97844 2.59008,16.10763 -1.26619,6.14613 -4.28956,13.45082 -8.41237,20.59997 -4.22697,7.32972 -9.06729,13.7873 -13.85933,17.97607 -6.06392,5.30071 -11.92622,7.21885 -14.99619,5.4485 -2.97885,-1.71795 -4.11816,-7.34689 -2.68908,-14.87332 1.20746,-6.35936 4.23768,-14.16497 8.62328,-21.76974 z"
         stroke-miterlimit="10"
         inkscape:connector-curvature="0"
         style="fill:none;stroke:#00d8ff;stroke-width:3.09772015;stroke-miterlimit:10" />
      <path
         id="path4812"
         d="m 591.34595,878.53202 c -4.35565,-7.52385 -7.32237,-15.13843 -8.559,-21.45881 -1.49001,-7.6151 -0.43652,-13.43752 2.56388,-15.17444 3.12663,-1.8101 9.04211,0.28964 15.24852,5.80048 4.69253,4.16643 9.51104,10.43377 13.64585,17.57608 4.23923,7.32262 7.41659,14.74114 8.65245,20.98473 1.56396,7.90086 0.29802,13.93767 -2.76898,15.71318 -2.976,1.72285 -8.42179,-0.10119 -14.22873,-5.0982 -4.9064,-4.22206 -10.15562,-10.7456 -14.55399,-18.34302 z"
         stroke-miterlimit="10"
         inkscape:connector-curvature="0"
         style="fill:none;stroke:#00d8ff;stroke-width:3.09772015;stroke-miterlimit:10" />
    </g>
    <ellipse
       ry="73.236061"
       rx="66.164993"
       cy="615.3252"
       cx="622.28009"
       id="ellipse4801"
       style="opacity:0.872;fill:#784421;fill-opacity:1;fill-rule:evenodd;stroke:#2b1100;stroke-width:1.70000005;stroke-linecap:round;stroke-linejoin:round;stroke-miterlimit:4;stroke-dasharray:none;stroke-opacity:1" />
    <g
       id="g4711"
       transform="matrix(0.55838639,0,0,0.55838639,215.31034,324.72841)">
      <g
         transform="matrix(3.7400286,0,0,3.7400286,-1646.9411,-1655.0712)"
         id="g4641">
        <path
           style="fill:#0868ac;fill-rule:nonzero"
           inkscape:connector-curvature="0"
           d="m 623.05138,565.97653 c -2.75511,3.95995 -2.41214,9.11186 -0.30747,13.3194 0.05,0.10088 0.10249,0.20013 0.15414,0.2994 0.0331,0.0629 0.0642,0.1275 0.0984,0.18964 0.0194,0.0371 0.0412,0.0734 0.0613,0.10895 0.0359,0.067 0.0726,0.13073 0.10975,0.1961 0.0654,0.1154 0.13235,0.22999 0.20094,0.34459 0.0379,0.0629 0.0755,0.12589 0.1146,0.18884 0.0759,0.12266 0.15374,0.24371 0.23322,0.36476 0.0331,0.0516 0.0654,0.10329 0.0993,0.15332 0.10976,0.16383 0.22193,0.32684 0.33772,0.48743 0.003,0.004 0.006,0.009 0.01,0.0129 0.0182,0.0258 0.0383,0.0508 0.0569,0.0767 0.10007,0.13799 0.20337,0.27437 0.30788,0.40915 0.0383,0.0492 0.0771,0.0985 0.1158,0.14768 0.0932,0.11701 0.18803,0.23322 0.28447,0.34942 0.0359,0.0436 0.0722,0.0871 0.10854,0.12992 0.12952,0.15253 0.26146,0.30424 0.39622,0.45272 0.002,0.002 0.006,0.006 0.008,0.008 0.006,0.006 0.0105,0.0105 0.0153,0.0169 0.13154,0.14365 0.26631,0.28406 0.4027,0.42449 0.0424,0.0436 0.0856,0.0872 0.12912,0.12993 0.10572,0.10652 0.21305,0.21143 0.32159,0.31553 0.044,0.042 0.0876,0.0847 0.13154,0.12509 0.14485,0.13638 0.29133,0.27034 0.44062,0.40109 0.002,0.002 0.004,0.004 0.007,0.006 0.0254,0.0226 0.0516,0.0436 0.0767,0.0654 0.13154,0.11379 0.2655,0.22677 0.40026,0.33815 0.0549,0.0444 0.11056,0.088 0.16584,0.13235 0.11015,0.088 0.22152,0.17512 0.33368,0.26066 0.0593,0.0452 0.11863,0.0904 0.17835,0.13558 0.12388,0.0912 0.24856,0.18077 0.37445,0.26873 0.046,0.0331 0.0904,0.0654 0.13638,0.0968 0.0129,0.009 0.0246,0.0177 0.0375,0.0266 0.11944,0.0823 0.24169,0.1614 0.36356,0.24049 0.0525,0.0347 0.10451,0.071 0.15737,0.1049 0.18722,0.11863 0.37729,0.23565 0.56934,0.34863 0.052,0.0299 0.10491,0.0589 0.15736,0.0888 0.14122,0.0815 0.28326,0.1614 0.42729,0.23968 0.0779,0.042 0.15778,0.0815 0.23646,0.12186 0.10168,0.0533 0.20255,0.10733 0.30585,0.15898 0.0234,0.0113 0.0476,0.0226 0.0706,0.0339 0.0416,0.0202 0.0835,0.0395 0.12509,0.0605 0.16018,0.0767 0.32159,0.15171 0.48461,0.22434 0.0347,0.0153 0.0682,0.0307 0.10249,0.046 0.18682,0.0815 0.37524,0.15979 0.5653,0.23484 0.0456,0.0185 0.0916,0.0363 0.1376,0.0541 0.17592,0.0678 0.35428,0.13478 0.53344,0.19772 0.0226,0.008 0.0444,0.0153 0.067,0.0234 0.1965,0.0686 0.39503,0.13235 0.59475,0.19449 0.0476,0.0137 0.0956,0.029 0.14364,0.0428 0.20337,0.0613 0.40433,0.13477 0.61413,0.17351 13.32436,2.42988 17.19474,-8.00718 17.19474,-8.00718 -3.25061,4.23497 -9.02064,5.35189 -14.48756,4.10837 -0.207,-0.0468 -0.40793,-0.11136 -0.61009,-0.17108 -0.0513,-0.0153 -0.10168,-0.0307 -0.15212,-0.046 -0.19731,-0.0605 -0.39302,-0.12428 -0.58748,-0.19126 -0.0267,-0.01 -0.0537,-0.0194 -0.0807,-0.0291 -0.17431,-0.0613 -0.34661,-0.12589 -0.5181,-0.19206 -0.0484,-0.0194 -0.0968,-0.0379 -0.14526,-0.0573 -0.18803,-0.0742 -0.37484,-0.15172 -0.55925,-0.23241 -0.0379,-0.0162 -0.0742,-0.0331 -0.11177,-0.0492 -0.15858,-0.0718 -0.31554,-0.14445 -0.47169,-0.21951 -0.0452,-0.0218 -0.0904,-0.0428 -0.13638,-0.0654 -0.12264,-0.0598 -0.24395,-0.12363 -0.36493,-0.18577 -0.081,-0.0426 -0.16329,-0.083 -0.24361,-0.12759 -0.14776,-0.079 -0.29287,-0.16131 -0.43732,-0.24527 -0.0489,-0.0274 -0.0985,-0.0539 -0.14775,-0.0823 -0.19205,-0.11305 -0.38178,-0.23006 -0.56953,-0.34873 -0.0519,-0.0331 -0.10247,-0.0684 -0.15371,-0.10247 -0.13618,-0.0879 -0.27171,-0.1775 -0.40525,-0.2694 -0.0443,-0.0301 -0.0869,-0.0621 -0.13057,-0.0919 -0.12891,-0.0912 -0.2565,-0.18345 -0.3831,-0.277 -0.0575,-0.0426 -0.11404,-0.0856 -0.1699,-0.12825 -0.11602,-0.0889 -0.23138,-0.1785 -0.34575,-0.27039 -0.0516,-0.0412 -0.1033,-0.0823 -0.15414,-0.12347 -0.14526,-0.11943 -0.28891,-0.23968 -0.43054,-0.36314 -0.0149,-0.0129 -0.0311,-0.0258 -0.0472,-0.0395 -0.15333,-0.13477 -0.30383,-0.27277 -0.45272,-0.41157 -0.0432,-0.0412 -0.0851,-0.0815 -0.1275,-0.12266 -0.11016,-0.10491 -0.2187,-0.21063 -0.32523,-0.31877 -0.0428,-0.0428 -0.0855,-0.0847 -0.1275,-0.12751 -0.13558,-0.1388 -0.26873,-0.27922 -0.39907,-0.42204 -0.006,-0.007 -0.0133,-0.0137 -0.0198,-0.021 -0.138,-0.15091 -0.27277,-0.30504 -0.40472,-0.46078 -0.0359,-0.0428 -0.0706,-0.0839 -0.10613,-0.12589 -0.0984,-0.11863 -0.1961,-0.23887 -0.29132,-0.35993 -0.0357,-0.0436 -0.0714,-0.0883 -0.10677,-0.13321 -0.1147,-0.14875 -0.22676,-0.29716 -0.3365,-0.44789 -3.03518,-4.14011 -4.12556,-9.85031 -1.69967,-14.53979"
           id="path4461" />
        <path
           style="fill:#0868ac;fill-rule:nonzero"
           inkscape:connector-curvature="0"
           d="m 631.60379,562.64031 c -1.99247,2.86727 -1.88435,6.70548 -0.33006,9.73793 0.26066,0.50841 0.5536,1.00149 0.88124,1.47116 0.29858,0.4277 0.62946,0.93694 1.02568,1.28071 0.14365,0.15817 0.29375,0.31231 0.44707,0.46402 0.0387,0.0395 0.0783,0.0775 0.11782,0.11621 0.14889,0.14445 0.30021,0.28649 0.45675,0.42449 0.006,0.005 0.0121,0.0113 0.0186,0.0162 0.002,0.002 0.003,0.002 0.004,0.004 0.1731,0.15172 0.35183,0.29779 0.53343,0.44142 0.0404,0.0306 0.0803,0.063 0.12105,0.0944 0.18198,0.13961 0.3676,0.2768 0.55803,0.40753 0.006,0.004 0.0105,0.008 0.0162,0.0121 0.0839,0.0581 0.16947,0.11217 0.25461,0.16785 0.0407,0.0266 0.0795,0.0549 0.12065,0.0799 0.13598,0.0871 0.27356,0.17189 0.41358,0.25339 0.0198,0.0121 0.0391,0.0226 0.0585,0.0339 0.12065,0.0694 0.24291,0.13799 0.36559,0.20416 0.0428,0.0242 0.0864,0.0452 0.12993,0.0678 0.0847,0.0444 0.16947,0.0896 0.25581,0.13235 0.0129,0.006 0.0262,0.0121 0.0387,0.0178 0.17552,0.0864 0.35266,0.16948 0.53343,0.24856 0.0387,0.017 0.0787,0.0323 0.11782,0.0484 0.14446,0.0613 0.29052,0.12105 0.43738,0.17754 0.0621,0.0234 0.12509,0.046 0.18723,0.0686 0.13315,0.0492 0.26671,0.0944 0.40148,0.13961 0.0609,0.0194 0.12065,0.0396 0.18157,0.0581 0.19166,0.0597 0.38089,0.13477 0.58064,0.16786 10.28763,1.70436 12.66261,-6.21628 12.66261,-6.21628 -2.14096,3.08355 -6.28701,4.55461 -10.71139,3.40629 -0.1965,-0.0516 -0.39017,-0.10814 -0.58265,-0.16867 -0.0589,-0.0178 -0.11662,-0.0371 -0.17512,-0.0565 -0.13679,-0.0444 -0.27277,-0.0912 -0.40753,-0.14042 -0.0617,-0.0226 -0.12347,-0.0452 -0.184,-0.0686 -0.14768,-0.0565 -0.29375,-0.1154 -0.4386,-0.17674 -0.0395,-0.017 -0.0795,-0.0323 -0.11823,-0.05 -0.18158,-0.0791 -0.36033,-0.16221 -0.53665,-0.24937 -0.0908,-0.0444 -0.17996,-0.0912 -0.26913,-0.13718 -0.0516,-0.0266 -0.1037,-0.0533 -0.15535,-0.0799 -0.1146,-0.0621 -0.22838,-0.1267 -0.34056,-0.19206 -0.0266,-0.0153 -0.0545,-0.0299 -0.0815,-0.046 -0.13921,-0.0815 -0.2764,-0.16544 -0.41239,-0.25179 -0.042,-0.0266 -0.0823,-0.0557 -0.12428,-0.0831 -0.0896,-0.0581 -0.17915,-0.11701 -0.26712,-0.17673 -0.18964,-0.13074 -0.37404,-0.26793 -0.55601,-0.40674 -0.042,-0.0331 -0.0839,-0.0654 -0.12508,-0.0984 -1.93668,-1.52912 -3.47174,-3.61851 -4.20159,-5.98787 -0.76489,-2.45729 -0.59994,-5.2157 0.72522,-7.45417"
           id="path4463" />
        <path
           style="fill:#0868ac;fill-rule:nonzero"
           inkscape:connector-curvature="0"
           d="m 638.79683,560.14766 c -1.1746,1.72859 -1.28999,3.87533 -0.47493,5.78457 0.85946,2.02639 2.62074,3.61619 4.67625,4.36984 0.0847,0.0315 0.16947,0.0597 0.25542,0.0888 0.0375,0.0113 0.0746,0.0242 0.11258,0.0355 0.12105,0.0379 0.24129,0.0823 0.36638,0.10572 5.68045,1.09751 7.22113,-2.9149 7.63134,-3.50546 -1.34969,1.94326 -3.61784,2.40969 -6.40072,1.73425 -0.21981,-0.0536 -0.46144,-0.13288 -0.67332,-0.20791 -0.27171,-0.0968 -0.53945,-0.20726 -0.79959,-0.3322 -0.49417,-0.23734 -0.9652,-0.52557 -1.40186,-0.85546 -2.49034,-1.88941 -4.0373,-5.49402 -2.41233,-8.42962"
           id="path4465" />
      </g>
      <g
         transform="translate(9.2857143,-5.285714)"
         id="g4646">
        <path
           style="fill:#131b28;fill-rule:nonzero"
           inkscape:connector-curvature="0"
           d="m 695.08473,571.15356 3.3e-4,-0.002 c 0,0 -1.10799,3.9269 -1.10799,3.9269 0,0 1.1076,-3.92525 1.1076,-3.92525 z"
           id="path4369" />
        <path
           style="fill:#131b28;fill-rule:nonzero"
           inkscape:connector-curvature="0"
           d="m 700.78337,579.6787 c 0,0 -1.22098,-0.007 -1.22098,-0.007 0,0 1.22098,0.007 1.22098,0.007 z"
           id="path4371" />
        <path
           style="fill:#131b28;fill-rule:nonzero"
           inkscape:connector-curvature="0"
           d="m 700.46935,585.54294 0.001,0 c 0,0 -7.31534,0.0266 -7.31534,0.0266 0,0 7.31435,-0.0266 7.31435,-0.0266 z"
           id="path4373" />
        <path
           style="fill:#131b28;fill-rule:nonzero"
           inkscape:connector-curvature="0"
           d="m 702.00309,579.68597 c 0,0 -1.22141,-0.007 -1.22141,-0.007 0,0 1.22141,0.007 1.22141,0.007 z"
           id="path4375" />
        <path
           style="fill:#131b28;fill-rule:nonzero"
           inkscape:connector-curvature="0"
           d="m 701.11061,585.04448 c 0,0 1.27426,-4.85971 1.27426,-4.85971 0,0 -1.27426,4.8607 -1.27426,4.8607 l 0,-6.6e-4 z"
           id="path4377" />
        <path
           style="fill:#131b28;fill-rule:nonzero"
           inkscape:connector-curvature="0"
           d="m 728.0436,562.66477 c 0,0 -2.37379,11.15928 -2.37379,11.15928 0,0 2.37379,-11.15928 2.37379,-11.15928 z"
           id="path4379" />
        <path
           style="fill:#131b28;fill-rule:nonzero"
           inkscape:connector-curvature="0"
           d="m 721.9417,562.66477 c 0,0 -1.80205,8.33641 -1.80205,8.33641 0,0 1.80205,-8.33707 1.80205,-8.33707 l 0,6.6e-4 z"
           id="path4381" />
        <path
           style="fill:#131b28;fill-rule:nonzero"
           inkscape:connector-curvature="0"
           d="m 727.63703,562.16267 -5.07588,0 c -0.28165,0 -0.56127,0.22596 -0.6214,0.50114 0,0 -1.80201,8.33707 -1.80201,8.33707 0,0 -1.80205,8.33706 -1.80205,8.33706 -0.0597,0.27519 -0.33894,0.50035 -0.62057,0.50035 l -3.0799,0 -0.51285,0 c -3.55437,0 -3.14327,-2.45811 -2.41534,-5.82656 0.007,-0.0339 0.0145,-0.067 0.0218,-0.10168 0,0 0.0799,-0.42448 0.0799,-0.42448 0.005,-0.0274 0.0105,-0.0549 0.0149,-0.0799 0,0 0.16221,-0.86431 0.16221,-0.86431 0,0 0.1739,-0.92643 0.1739,-0.92643 0.0529,-0.27922 0.13316,-0.68757 0.18562,-0.94417 0,0 0.81909,-4.0026 0.81909,-4.0026 0,0 0.81993,-4.0026 0.81993,-4.0026 0.0565,-0.27599 -0.12832,-0.50276 -0.40995,-0.50276 l -5.21009,0 c -0.28164,0 -0.56047,0.22677 -0.61815,0.50197 0,0 -1.12013,5.31487 -1.12013,5.31487 0,0 -1.12012,5.31421 -1.12012,5.31421 -9.9e-4,0.002 -10e-4,0.006 -0.002,0.008 0,0 -0.1041,0.49391 -0.1041,0.49391 -1.29039,5.89101 -0.94821,11.50866 6.06455,11.68451 0.1146,0.003 0.20337,0.004 0.20337,0.004 l 11.00789,0 c 0.28164,0 0.56047,-0.22596 0.61938,-0.50196 0,0 2.37379,-11.15829 2.37379,-11.15829 0,0 2.37379,-11.15927 2.37379,-11.15927 0.0585,-0.276 -0.12428,-0.50197 -0.40591,-0.50197 z"
           id="path4383" />
        <path
           style="fill:#131b28;fill-rule:nonzero"
           inkscape:connector-curvature="0"
           d="m 747.88635,579.89653 c 0.28205,0 0.46644,0.22597 0.40995,0.50197 0,0 -0.49308,2.4089 -0.49308,2.4089"
           id="path4385" />
        <path
           style="fill:#131b28;fill-rule:nonzero"
           inkscape:connector-curvature="0"
           d="m 747.3112,585.21768 c 0,0 0.49268,-2.41051 0.49268,-2.41051 0,0 -0.49307,2.41131 -0.49307,2.41131 0,-6.6e-4 3.2e-4,-6.6e-4 3.2e-4,-6.6e-4 z"
           id="path4387" />
        <path
           style="fill:#131b28;fill-rule:nonzero"
           inkscape:connector-curvature="0"
           d="m 746.69308,585.72474 c 6.6e-4,0 0.002,-6.6e-4 0.002,-6.6e-4 -1.49374,0.0121 -5.98257,0.046 -9.35647,0.046 4.10606,0 9.35383,-0.0452 9.35383,-0.0452 z"
           id="path4389" />
        <path
           style="fill:#131b28;fill-rule:nonzero"
           inkscape:connector-curvature="0"
           d="m 734.31078,576.79369 c -0.004,-0.2639 0.29617,-0.71825 0.57822,-0.71825 0,0 -0.63389,-0.0105 -0.63389,-0.0105 -0.28567,2.87292 0.0557,0.72873 0.0557,0.72873 z"
           id="path4391" />
        <path
           style="fill:#131b28;fill-rule:nonzero"
           inkscape:connector-curvature="0"
           d="m 737.80136,585.76904 c -0.0323,0 -0.0654,0 -0.0977,6.6e-4 0.0323,-6.6e-4 0.0654,-6.6e-4 0.0977,-6.6e-4 z"
           id="path4393" />
        <path
           style="fill:#131b28;fill-rule:nonzero"
           inkscape:connector-curvature="0"
           d="m 747.88635,579.89653 c 0.28205,0 0.46644,0.22597 0.40995,0.50197 0,0 -0.49308,2.4089 -0.49308,2.4089 0,0 -0.0803,0.39302 -0.0803,0.39302"
           id="path4395" />
        <path
           style="fill:#131b28;fill-rule:nonzero"
           inkscape:connector-curvature="0"
           d="m 740.20444,585.76342 -0.0206,0 0.0206,0 z"
           id="path4397" />
        <path
           style="fill:#131b28;fill-rule:nonzero"
           inkscape:connector-curvature="0"
           d="m 738.95827,585.76738 -0.0722,0 0.0722,0 z"
           id="path4399" />
        <path
           style="fill:#131b28;fill-rule:nonzero"
           inkscape:connector-curvature="0"
           d="m 738.57814,585.76837 c -0.0403,0 -0.0799,0 -0.11944,6.7e-4 0.0395,-6.7e-4 0.0791,-6.7e-4 0.11944,-6.7e-4 z"
           id="path4401" />
        <path
           style="fill:#131b28;fill-rule:nonzero"
           inkscape:connector-curvature="0"
           d="m 738.1914,585.76904 -0.1049,0 0.1049,0 z"
           id="path4403" />
        <path
           style="fill:#131b28;fill-rule:nonzero"
           inkscape:connector-curvature="0"
           d="m 738.88555,585.76738 c -0.10289,0 -0.20578,6.6e-4 -0.30746,6.6e-4 0.10168,0 0.20457,-6.6e-4 0.30746,-6.6e-4 z"
           id="path4405" />
        <path
           style="fill:#131b28;fill-rule:nonzero"
           inkscape:connector-curvature="0"
           d="m 740.1846,585.76342 c -0.41077,0.002 -0.82071,0.003 -1.22461,0.004 0.4039,-6.6e-4 0.81427,-0.002 1.22461,-0.004 z"
           id="path4407" />
        <path
           style="fill:#131b28;fill-rule:nonzero"
           inkscape:connector-curvature="0"
           d="m 746.69638,585.72375 3.4e-4,0 c -1.09471,0.009 -3.79799,0.0291 -6.49394,0.0395 2.69456,-0.01 5.3985,-0.0306 6.4936,-0.0395 z"
           id="path4409" />
        <path
           style="fill:#131b28;fill-rule:nonzero"
           inkscape:connector-curvature="0"
           d="m 747.3112,585.21867 c 0,0 0.41279,-2.01832 0.41279,-2.01832 0,0 -0.41318,2.01991 -0.41318,2.01991 0,-6.6e-4 3.3e-4,-6.6e-4 3.3e-4,-0.002 z"
           id="path4411" />
        <path
           style="fill:#131b28;fill-rule:nonzero"
           inkscape:connector-curvature="0"
           d="m 738.45915,585.76904 -0.26793,0 0.26793,0 z"
           id="path4413" />
        <path
           style="fill:#131b28;fill-rule:nonzero"
           inkscape:connector-curvature="0"
           d="m 737.70219,585.7697 -0.36234,0 0.36234,0 z"
           id="path4415" />
        <path
           style="fill:#131b28;fill-rule:nonzero"
           inkscape:connector-curvature="0"
           d="m 738.08563,585.76904 -0.28568,0 0.28568,0 z"
           id="path4417" />
        <path
           style="fill:#131b28;fill-rule:nonzero"
           inkscape:connector-curvature="0"
           d="m 663.83479,576.85418 c 0,0 0.78843,-3.49521 0.78843,-3.49521 0,0 -0.90141,3.99532 -0.90141,3.99532 0,0 -0.8651,4.0697 -0.8651,4.0697 0,0 0.75817,-3.56759 0.75817,-3.56759 0.0585,-0.276 0.15777,-0.72711 0.21991,-1.00229 z"
           id="path4419" />
        <path
           style="fill:#131b28;fill-rule:nonzero"
           inkscape:connector-curvature="0"
           d="m 673.27192,562.10383 -5.57435,0 c -0.28204,0 -0.56329,0.22516 -0.62622,0.49953 0,0 -0.52858,2.33303 -0.52858,2.33303 0,0 -0.52858,2.33387 -0.52858,2.33387 -0.0621,0.27438 0.11742,0.49952 0.39947,0.49952 l 5.61765,0 c 0.28164,0 0.56167,-0.22515 0.62219,-0.50035 0,0 0.51083,-2.33304 0.51083,-2.33304 0,0 0.51082,-2.33141 0.51082,-2.33141 l 0,-6.6e-4 c 0.0601,-0.27519 -0.12105,-0.50035 -0.4031,-0.50035 z"
           id="path4421" />
        <path
           style="fill:#131b28;fill-rule:nonzero"
           inkscape:connector-curvature="0"
           d="m 672.05881,569.86475 0,-6.6e-4 c 0,0 -1.63499,7.56392 -1.63499,7.56392 0,0 1.63499,-7.56326 1.63499,-7.56326 z"
           id="path4423" />
        <path
           style="fill:#131b28;fill-rule:nonzero"
           inkscape:connector-curvature="0"
           d="m 655.8653,594.92619 c 0,0 2.80998,0.0363 4.59626,0.0363 -1.35696,0 -3.59801,-0.025 -4.59857,-0.0371 9.9e-4,0 0.002,6.6e-4 0.003,6.6e-4 z"
           id="path4425" />
        <path
           style="fill:#131b28;fill-rule:nonzero"
           inkscape:connector-curvature="0"
           d="m 665.41151,569.86376 c 0,0 -0.78925,3.49521 -0.78925,3.49521 0,0 0.78925,-3.49521 0.78925,-3.49521 z"
           id="path4427" />
        <path
           style="fill:#131b28;fill-rule:nonzero"
           inkscape:connector-curvature="0"
           d="m 671.65554,569.36364 -5.61831,0 c -0.28164,0 -0.56328,0.22516 -0.62543,0.50035 0,0 -0.78924,3.49521 -0.78924,3.49521 0,0 -0.78843,3.49521 -0.78843,3.49521 -0.0621,0.27519 -0.1614,0.72631 -0.21991,1.00228 0,0 -0.75817,3.5676 -0.75817,3.5676 0,0 -0.75778,3.5676 -0.75778,3.5676 -0.0589,0.27518 -0.17996,0.71983 -0.27035,0.98694 0,0 -1.04948,3.12308 -2.81401,3.08758 -0.0751,-0.002 -0.14809,-0.002 -0.22031,-0.004 -0.85503,-0.0162 -1.52683,-0.0283 -1.52683,-0.0283 l -10e-4,0 c -0.28124,-0.004 -0.56412,0.21546 -0.62986,0.48904 0,0 -0.58266,2.44926 -0.58266,2.44926 0,0 -0.58186,2.44843 -0.58186,2.44843 -0.0654,0.27356 0.11137,0.49952 0.3914,0.50438 1.0007,0.0121 3.24171,0.0371 4.59857,0.0371 4.40752,0 6.73094,-2.44198 8.22038,-9.46918 0,0 1.74311,-8.06503 1.74311,-8.06503 0,0 1.63499,-7.56391 1.63499,-7.56391 0.0593,-0.27518 -0.12267,-0.50035 -0.40433,-0.50035 z"
           id="path4429" />
        <path
           style="fill:#131b28;fill-rule:nonzero"
           inkscape:connector-curvature="0"
           d="m 751.46618,585.4841 c -0.28164,0 -0.46442,-0.22596 -0.40512,-0.50196 0,0 4.22638,-19.79648 4.22638,-19.79648"
           id="path4431" />
        <path
           style="fill:#131b28;fill-rule:nonzero"
           inkscape:connector-curvature="0"
           d="m 757.34001,584.98134 c 0,0 1.70922,-8.44945 1.70922,-8.44945 0,0 -1.70922,8.44945 -1.70922,8.44945 z"
           id="path4433" />
        <path
           style="fill:#131b28;fill-rule:nonzero"
           inkscape:connector-curvature="0"
           d="m 751.12241,585.23322 c -0.0343,-0.138 -0.0141,-0.47612 0.0456,-0.75213 0,0 2.0058,-9.3968 2.0058,-9.3968 0,0 -2.11312,9.89791 -2.11312,9.89791 -0.0593,0.27599 0.12347,0.50197 0.40511,0.50197 l 0.51328,0 c -0.28205,0 -0.82273,-0.11298 -0.85665,-0.25097 z"
           id="path4435" />
        <path
           style="fill:#131b28;fill-rule:nonzero"
           inkscape:connector-curvature="0"
           d="m 757.00615,585.37106 c -0.15333,0.0621 -0.51003,0.11298 -0.79205,0.11298 l 0.51324,0 c 0.28164,0 0.55842,-0.22596 0.61412,-0.50276 0,0 0.10168,-0.50197 0.10168,-0.50197 -0.0561,0.27599 -0.28325,0.8296 -0.43698,0.89175 z"
           id="path4437" />
        <path
           style="fill:#131b28;fill-rule:nonzero"
           inkscape:connector-curvature="0"
           d="m 758.19612,580.75662 c 0,0 0.75454,-3.72924 0.75454,-3.72924 -3.3e-4,0.002 -6.6e-4,0.006 -10e-4,0.007 0,0 -0.75332,3.72196 -0.75332,3.72196 z"
           id="path4439" />
        <path
           style="fill:#131b28;fill-rule:nonzero"
           inkscape:connector-curvature="0"
           d="m 774.87223,566.51168 c 0,0 0.23282,0.96196 0.23282,0.96196 0.0642,0.27519 -0.11379,0.49873 -0.39504,0.49952"
           id="path4441" />
        <path
           style="fill:#131b28;fill-rule:nonzero"
           inkscape:connector-curvature="0"
           d="m 757.44248,584.47957 c 0,0 0.75252,-3.72262 0.75252,-3.72262 0,0 -0.75252,3.72262 -0.75252,3.72262 z"
           id="path4443" />
        <path
           style="fill:#131b28;fill-rule:nonzero"
           inkscape:connector-curvature="0"
           d="m 774.64085,565.52632 c 0,0 0.2304,0.98536 0.2304,0.98536 0,0 -0.2304,-0.98536 -0.2304,-0.98536 z"
           id="path4445" />
        <path
           style="fill:#131b28;fill-rule:nonzero"
           inkscape:connector-curvature="0"
           d="m 758.94977,577.02771 c 0.0561,-0.27599 0.1489,-0.72307 0.20741,-0.99663 0,0 0.80577,-3.77518 0.80577,-3.77518 0,0 -0.91271,4.27629 -0.91271,4.27629 0,0 -0.10047,0.49549 -0.10047,0.49549 z"
           id="path4447" />
        <path
           style="fill:#131b28;fill-rule:nonzero"
           inkscape:connector-curvature="0"
           d="m 755.35672,564.86126 c -0.0561,0.26631 -0.12791,0.60282 -0.17552,0.82558 0,0 -2.00579,9.39745 -2.00579,9.39745 0,0 2.11312,-9.89856 2.11312,-9.89856 0,0 0.0682,-0.32442 0.0682,-0.32442 z"
           id="path4449" />
        <path
           style="fill:#131b28;fill-rule:nonzero"
           inkscape:connector-curvature="0"
           d="m 775.10362,567.47358 c 0,0 -0.23282,-0.96196 -0.23282,-0.96196 0,0 -0.2304,-0.98536 -0.2304,-0.98536 0,0 -0.11661,-0.49873 -0.11661,-0.49873 -0.45636,-1.77299 -1.796,-2.79627 -4.70468,-2.79627 0,0 -4.5285,-0.005 -4.5285,-0.005 0,0 -4.17051,-0.005 -4.17051,-0.005 l -0.35792,0 -4.3348,0 c -0.28164,0 -0.56047,0.22515 -0.61855,0.50114 l -3.3e-4,0 c 0,0 -0.2074,0.9805 -0.2074,0.9805 0,0 -0.24492,1.15804 -0.24492,1.15804 0,0 -0.0682,0.32442 -0.0682,0.32442 0,0 -2.11312,9.89857 -2.11312,9.89857 0,0 -2.0058,9.3968 -2.0058,9.3968 -0.0597,0.27599 -0.0799,0.61412 -0.0456,0.75212 0.0339,0.138 0.57459,0.25098 0.85662,0.25098 l 4.23365,0 c 0.28204,0 0.63875,-0.0508 0.79205,-0.11298 0.15373,-0.0621 0.38089,-0.61575 0.43699,-0.89175 0,0 0.75252,-3.72263 0.75252,-3.72263 0,0 0.75332,-3.72196 0.75332,-3.72196 3.3e-4,-0.002 6.6e-4,-0.005 10e-4,-0.007 0,0 0.10047,-0.49549 0.10047,-0.49549 0,0 0.91271,-4.27629 0.91271,-4.27629 0,0 0.80621,-3.77684 0.80621,-3.77684 0.0597,-0.27437 0.33732,-0.49873 0.61855,-0.49952 0,0 13.32105,-0.006 13.32105,-0.006 0.28124,-6.7e-4 0.4592,-0.22435 0.39504,-0.49953 z"
           id="path4451" />
        <path
           style="fill:#131b28;fill-rule:nonzero"
           inkscape:connector-curvature="0"
           d="m 792.25241,558.77569 c -0.28204,0.002 -0.74324,0.004 -1.02529,0.004 l -4.26373,0 c -0.28205,0 -0.64318,0.19046 -0.80217,0.42327 0,0 -9.4282,13.81258 -9.4282,13.81258 -0.15939,0.23322 -0.34096,0.19852 -0.4035,-0.0759 0,0 -0.69362,-3.04318 -0.69362,-3.04318 -0.0625,-0.27519 -0.345,-0.49953 -0.62665,-0.49953 l -6.06125,0 c -0.28205,0 -0.44908,0.22112 -0.37203,0.49229 0,0 2.71597,9.51447 2.71597,9.51447 0.0775,0.27115 0.0831,0.71663 0.0133,0.98939 0,0 -1.18386,4.60486 -1.18386,4.60486 -0.0702,0.27357 0.1033,0.49711 0.38535,0.49711 l 5.99051,0 c 0.28164,0 0.56973,-0.22354 0.63954,-0.49711 0,0 1.18429,-4.60486 1.18429,-4.60486 0.0698,-0.27276 0.26591,-0.68109 0.43579,-0.90626 0,0 15.30632,-20.3151 15.30632,-20.3151 0.16988,-0.22516 0.0779,-0.40836 -0.20376,-0.40631 0,0 -1.60673,0.0105 -1.60673,0.0105 z"
           id="path4453" />
        <path
           style="fill:#131b28;fill-rule:nonzero"
           inkscape:connector-curvature="0"
           d="m 744.09828,570.69178 c 0,0 -3.3e-4,-0.006 -3.3e-4,-0.006 -0.0355,0.30585 -0.31755,0.5302 -0.59921,0.5302 l -7.68457,0 c -0.2655,0 -0.40069,-0.18077 -0.36155,-0.4035 0.002,-0.006 0.003,-0.0121 0.007,-0.0177 0,0 -0.003,6.6e-4 -0.005,0.002 0.002,-0.009 0.002,-0.0169 0.004,-0.0258 0,0 0.0145,-0.0541 0.0351,-0.13074 0.73395,-1.95132 2.22895,-3.23203 5.03853,-3.23203 3.16304,0 3.78047,1.54541 3.56561,3.28287 z m -2.25436,-8.8699 c -9.86386,0 -12.20116,5.9872 -13.51244,12.02994 -1.31138,6.15908 -1.1984,11.91788 9.0084,11.91788 l 0.36235,0 c 0.0323,-6.6e-4 0.0654,-6.6e-4 0.0977,-6.6e-4 l 0.28568,0 0.1049,0 0.26793,0 c 0.0395,-6.7e-4 0.0791,-6.7e-4 0.11943,-6.7e-4 0.10169,0 0.20458,-6.6e-4 0.30747,-6.6e-4 l 0.0722,0 c 0.40389,-6.6e-4 0.81387,-0.003 1.22461,-0.004 l 0.0206,0 c 2.69578,-0.0105 5.39916,-0.0306 6.49427,-0.0395 0.28003,-0.004 0.55399,-0.22999 0.61171,-0.50355 0,0 0.41318,-2.01991 0.41318,-2.01991 0,0 0.0803,-0.39302 0.0803,-0.39302 0,0 0.49308,-2.4089 0.49308,-2.4089 0.0565,-0.27599 -0.12791,-0.50197 -0.40995,-0.50197 l -9.17632,0 c -3.64957,0 -4.73344,-0.97002 -4.33414,-3.82112 l 14.6687,0 c 0,0 -10e-4,0.002 -10e-4,0.002 0.004,0 0.007,-0.002 0.0101,-0.002 0.23322,-0.004 0.44869,-0.16463 0.53423,-0.37848 0.0162,-0.0412 0.0299,-0.0839 0.0355,-0.12831 0,0 -0.002,0.002 -0.002,0.002 2.17811,-8.21542 1.55347,-13.74812 -7.77712,-13.74812 z"
           id="path4455" />
        <path
           style="fill:#131b28;fill-rule:nonzero"
           inkscape:connector-curvature="0"
           d="m 695.22356,570.66038 c 0,0 -0.1388,0.49146 -0.1388,0.49146 0,0.002 -3.3e-4,0.002 -3.3e-4,0.002 0,0 -1.1076,3.92525 -1.1076,3.92525 0,0 -1.1072,3.92459 -1.1072,3.92459 -0.0767,0.27115 -0.36962,0.49308 -0.65207,0.49308 l -5.86259,0 c -4.44685,0 -5.52972,-3.47802 -4.44685,-8.60812 1.08261,-5.2471 3.20541,-8.50894 7.58209,-8.83916 5.98092,-0.45113 7.1775,3.75568 5.73334,8.61142 z m 4.02045,8.53407 c 0,0 2.76397,-6.7111 3.39175,-10.58776 0.85611,-5.18926 -1.74199,-12.71483 -11.7774,-12.71483 -9.97823,0 -14.31105,7.18511 -15.96445,14.99594 -1.65313,7.86735 0.51285,14.7672 10.43439,14.71067 0,0 7.82703,-0.029 7.82703,-0.029 0,0 7.31534,-0.0266 7.31534,-0.0266 0.28164,-0.002 0.56973,-0.22597 0.64156,-0.49794 0,0 1.27426,-4.8607 1.27426,-4.8607 0.071,-0.27277 -0.10128,-0.49711 -0.38291,-0.49873 0,0 -1.2214,-0.007 -1.2214,-0.007 0,0 -1.22098,-0.007 -1.22098,-0.007 -0.23968,-0.002 -0.37685,-0.15656 -0.3478,-0.36235 0.005,-0.0371 0.0137,-0.0751 0.0299,-0.11459 z"
           id="path4457" />
        <path
           style="fill:#131b28;fill-rule:nonzero"
           inkscape:connector-curvature="0"
           d="m 748.64,574.70264 c 0,0.18562 -0.1505,0.33653 -0.33653,0.33653 -0.18561,0 -0.33653,-0.1509 -0.33653,-0.33653 0,-0.1856 0.15091,-0.3357 0.33653,-0.3357 0.18601,0 0.33653,0.1501 0.33653,0.3357 z"
           id="path4459" />
        <path
           style="fill:#0868ac;fill-rule:nonzero"
           inkscape:connector-curvature="0"
           d="m 702.77326,593.81555 c 0,0 -1.6374,3.72923 -1.6374,3.72923 l -1.80769,0 c 0,0 0.14808,-3.38844 0.14808,-3.38844 0,0 -1.33075,3.38844 -1.33075,3.38844 l -1.75038,0 c 0,0 -0.046,-3.72923 -0.046,-3.72923 0,0 0.19328,-0.92077 0.19328,-0.92077 l 1.23955,0 c 0,0 -0.23887,3.68328 -0.23887,3.68328 0,0 1.37594,-3.68328 1.37594,-3.68328 l 1.7282,0 c 0,0 -0.12508,3.72923 -0.12508,3.72923 0,0 1.36463,-3.72923 1.36463,-3.72923 l 1.07976,0 c 0,0 -0.19327,0.92077 -0.19327,0.92077 z"
           id="path4467" />
        <path
           style="fill:#0868ac;fill-rule:nonzero"
           inkscape:connector-curvature="0"
           d="m 705.62589,594.91958 c 0.15938,-0.72794 0.11378,-0.86432 -0.26148,-0.86432 l -0.56854,0 c 0,0 -0.36396,1.70599 -0.36396,1.70599 0,0 -0.55724,1.78429 -0.55724,1.78429 l -1.05716,0 c 0,0 0.86389,-4.04722 0.86389,-4.04722 0,0 0.12549,-0.59155 0.12549,-0.59155 l 0.96639,0 c 0,0 0.12508,0.27277 0.12508,0.27277 0,0 0.55723,-0.32926 1.10237,-0.32926 1.16006,0 1.06926,0.8748 0.8187,2.06916 l -1.19354,0 z"
           id="path4469" />
        <path
           style="fill:#0868ac;fill-rule:nonzero"
           inkscape:connector-curvature="0"
           d="m 709.06027,592.31486 c -0.46564,0 -0.76141,-0.13638 -0.648,-0.70452 0.12508,-0.56894 0.48904,-0.70533 0.94338,-0.70533 0.45556,0 0.76221,0.13638 0.63713,0.70533 -0.11379,0.55684 -0.47734,0.70452 -0.93247,0.70452 z m -0.49992,5.23025 -1.04668,0 c 0,0 0.20498,-1.81897 0.20498,-1.81897 0,0 0.36397,-1.68258 0.36397,-1.68258 0,0 -0.72751,-0.15979 -0.72751,-0.15979 0,0 0.20458,-0.98856 0.20458,-0.98856 l 1.98927,0 c 0,0 -0.98857,4.6498 -0.98857,4.6498 z"
           id="path4471" />
        <path
           style="fill:#0868ac;fill-rule:nonzero"
           inkscape:connector-curvature="0"
           d="m 713.09625,593.88166 c 0,0 -1.30734,0.15978 -1.30734,0.15978 0,0 -0.37567,1.77379 -0.37567,1.77379 -0.10249,0.48904 -0.10249,0.62543 0.33006,0.62543 l 0.87519,0 c 0,0 -0.18198,0.93207 -0.18198,0.93207 0,0 -0.79529,0.23887 -1.13705,0.23887 -1.34162,0 -1.33035,-0.7392 -1.09107,-1.84237 0,0 0.36397,-1.73907 0.36397,-1.73907 0,0 -0.72793,-0.15898 -0.72793,-0.15898 0,0 0.21587,-0.9894 0.21587,-0.9894 l 0.76221,0 c 0,0 0.43216,-1.17176 0.43216,-1.17176 l 1.03458,0 c 0,0 -0.25057,1.17176 -0.25057,1.17176 l 1.27343,0 c 0,0 -0.21588,0.99987 -0.21588,0.99987 z"
           id="path4473" />
        <path
           style="fill:#0868ac;fill-rule:nonzero"
           inkscape:connector-curvature="0"
           d="m 715.81335,593.94116 c -0.61372,0 -0.93247,0.31876 -1.05715,0.88689 0,0 1.75077,-0.14768 1.75077,-0.14768 0.0795,-0.38654 0,-0.7392 -0.69362,-0.7392 z m -1.22745,1.72777 c -0.0803,0.56893 0.13598,0.76181 0.86349,0.76181 l 1.83027,0 c 0,0 -0.18158,0.86431 -0.18158,0.86431 0,0 -1.10277,0.30667 -1.92147,0.30667 -2.03525,0 -2.05825,-1.14756 -1.79639,-2.37581 0.26146,-1.20567 0.7275,-2.39842 2.69416,-2.39842 1.89929,0 1.99045,1.14756 1.52402,2.84145 l -3.01254,0 z"
           id="path4475" />
        <path
           style="fill:#0868ac;fill-rule:nonzero"
           inkscape:connector-curvature="0"
           d="m 721.76981,597.54412 -1.04545,0 c 0,0 0.20457,-1.81897 0.20457,-1.81897 0,0 0.7392,-3.45653 0.7392,-3.45653 0,0 -0.72833,-0.17028 -0.72833,-0.17028 0,0 0.21628,-0.98939 0.21628,-0.98939 l 1.99006,0 c 0,0 -1.37633,6.43509 -1.37633,6.43509 z"
           id="path4477" />
        <path
           style="fill:#0868ac;fill-rule:nonzero"
           inkscape:connector-curvature="0"
           d="m 725.54797,593.94116 c -0.61452,0 -0.93247,0.31876 -1.05798,0.88689 0,0 1.75117,-0.14768 1.75117,-0.14768 0.0791,-0.38654 0,-0.7392 -0.69322,-0.7392 z m -1.22825,1.72777 c -0.0795,0.56893 0.13679,0.76181 0.86389,0.76181 l 1.83067,0 c 0,0 -0.18198,0.86431 -0.18198,0.86431 0,0 -1.10317,0.30667 -1.92187,0.30667 -2.03525,0 -2.05746,-1.14756 -1.796,-2.37581 0.26187,-1.20567 0.7279,-2.39842 2.69459,-2.39842 1.89887,0 1.98967,1.14756 1.52402,2.84145 l -3.01333,0 z"
           id="path4479" />
        <path
           style="fill:#0868ac;fill-rule:nonzero"
           inkscape:connector-curvature="0"
           d="m 732.12917,593.99735 c 0,0 -1.33032,0.0113 -1.69389,0.0113 -0.77352,0 -0.85301,0.23806 -0.9095,0.48822 0,0 -0.046,0.22757 -0.046,0.22757 0,0 2.4561,0.18238 2.4561,0.18238 0,0 0.0113,0.78439 -0.0912,1.22746 -0.14768,0.7392 -0.9095,1.48891 -2.28501,1.48891 -0.68271,0 -1.78548,-0.26065 -1.78548,-0.26065 0,0 0.19327,-0.8982 0.19327,-0.8982 l 1.69429,0 c 0.75051,0 0.85301,-0.20498 0.89899,-0.40915 0,0 0.0565,-0.29536 0.0565,-0.29536 0,0 -2.41051,-0.18239 -2.41051,-0.18239 0,0 -0.0908,-0.60281 0.0339,-1.20484 0.18238,-0.8191 0.93208,-1.52363 2.30801,-1.52363 0.68232,0 1.78509,0.24937 1.78509,0.24937 0,0 -0.20458,0.89899 -0.20458,0.89899 z"
           id="path4481" />
        <path
           style="fill:#0868ac;fill-rule:nonzero"
           inkscape:connector-curvature="0"
           d="m 736.70064,593.99735 c 0,0 -1.32993,0.0113 -1.69389,0.0113 -0.77312,0 -0.85259,0.23806 -0.90951,0.48822 0,0 -0.046,0.22757 -0.046,0.22757 0,0 2.4565,0.18238 2.4565,0.18238 0,0 0.0113,0.78439 -0.0912,1.22746 -0.14768,0.7392 -0.9095,1.48891 -2.28544,1.48891 -0.68192,0 -1.78508,-0.26065 -1.78508,-0.26065 0,0 0.19327,-0.8982 0.19327,-0.8982 l 1.69429,0 c 0.75011,0 0.85258,-0.20498 0.89859,-0.40915 0,0 0.0565,-0.29536 0.0565,-0.29536 0,0 -2.41052,-0.18239 -2.41052,-0.18239 0,0 -0.0908,-0.60281 0.0339,-1.20484 0.18238,-0.8191 0.93208,-1.52363 2.30841,-1.52363 0.68192,0 1.78469,0.24937 1.78469,0.24937 0,0 -0.20457,0.89899 -0.20457,0.89899 z"
           id="path4483" />
        <path
           style="fill:#0868ac;fill-rule:nonzero"
           inkscape:connector-curvature="0"
           d="m 738.1319,598.28455 -0.90907,0 c 0,0 0.0339,-0.68271 0.0339,-0.68271 -0.33006,-0.0218 -0.50034,-0.26067 -0.42085,-0.65931 0.12509,-0.56815 0.47774,-0.7045 0.94378,-0.7045 0.45473,0 0.76099,0.13638 0.63673,0.7045 0,0 -0.28447,1.34205 -0.28447,1.34205 z"
           id="path4485" />
        <path
           style="fill:#0868ac;fill-rule:nonzero"
           inkscape:connector-curvature="0"
           d="m 744.21397,594.04363 c -0.68191,0 -0.92037,0.40915 -1.07976,1.15965 -0.15938,0.75051 -0.11379,1.19354 0.56814,1.19354 l 0.94378,0 c 0,0 0.52332,-2.35319 0.52332,-2.35319 l -0.95548,0 z m 1.55791,2.89873 c 0,0 -0.12549,0.60282 -0.12549,0.60282 0,0 -0.95429,-0.0113 -0.95429,-0.0113 0,0 -0.13679,-0.29537 -0.13679,-0.29537 0,0 -0.8417,0.36314 -1.40942,0.36314 -1.45583,0 -1.52402,-1.19354 -1.26255,-2.39841 0.26146,-1.22825 0.83,-2.38791 2.27413,-2.38791 0.52332,0 1.22785,0.26147 1.22785,0.26147 0,0 0.57984,-1.96666 0.57984,-1.96666 l 1.04629,0 c 0,0 -1.23956,5.83218 -1.23956,5.83218 z"
           id="path4487" />
        <path
           style="fill:#0868ac;fill-rule:nonzero"
           inkscape:connector-curvature="0"
           d="m 749.53579,593.99735 c -0.8865,0 -1.17136,0.49952 -1.33036,1.22745 -0.14768,0.73921 -0.0791,1.23956 0.7957,1.23956 0.90989,0 1.18306,-0.48905 1.34162,-1.23956 0.15978,-0.70532 0.11379,-1.22745 -0.807,-1.22745 z m -0.77269,3.61553 c -1.87629,0 -2.02437,-1.17097 -1.77418,-2.38791 0.26187,-1.21615 0.9212,-2.37581 2.79745,-2.37581 1.86416,0 2.03525,1.15966 1.77299,2.37581 -0.26106,1.23955 -0.92077,2.38791 -2.79626,2.38791 z"
           id="path4489" />
        <path
           style="fill:#0868ac;fill-rule:nonzero"
           inkscape:connector-curvature="0"
           d="m 759.40593,597.54412 c 0,0 0.20498,-1.79639 0.20498,-1.79639 0,0 0.10208,-0.51162 0.10208,-0.51162 0.14808,-0.68192 0.23887,-1.18227 -0.47774,-1.18227 l -0.55684,0 c 0.023,0.35266 -0.0456,0.75051 -0.13638,1.17096 0,0 -0.48865,2.31932 -0.48865,2.31932 l -1.05759,0 c 0,0 0.20458,-1.79639 0.20458,-1.79639 0,0 0.10208,-0.51162 0.10208,-0.51162 0.14808,-0.68192 0.23847,-1.18227 -0.47694,-1.18227 l -0.45517,0 c 0,0 -0.7505,3.49025 -0.7505,3.49025 l -1.21695,0 c 0,0 0.9894,-4.64981 0.9894,-4.64981 l 0.95508,0 c 0,0 0.14768,0.28406 0.14768,0.28406 0,0 0.64844,-0.34135 1.17136,-0.34135 0.39785,0 0.69362,0.18238 0.79609,0.40915 0.22717,-0.12509 0.87559,-0.40915 1.34206,-0.40915 1.45421,0 1.40942,1.18226 1.14756,2.3879 0,0 -0.48865,2.31932 -0.48865,2.31932 l -1.05759,0 z"
           id="path4491" />
        <path
           style="fill:#0868ac;fill-rule:nonzero"
           inkscape:connector-curvature="0"
           d="m 764.23853,593.99735 c -0.88729,0 -1.17136,0.49952 -1.33036,1.22745 -0.14767,0.73921 -0.0791,1.23956 0.7957,1.23956 0.9095,0 1.18306,-0.48905 1.34205,-1.23956 0.15898,-0.70532 0.11338,-1.22745 -0.80739,-1.22745 z m -0.77312,3.61553 c -1.87668,0 -2.02394,-1.17097 -1.77378,-2.38791 0.26146,-1.21615 0.92077,-2.37581 2.79706,-2.37581 1.86498,0 2.03524,1.15966 1.77338,2.37581 -0.26106,1.23955 -0.92077,2.38791 -2.79666,2.38791 z"
           id="path4493" />
        <path
           style="fill:#0868ac;fill-rule:nonzero"
           inkscape:connector-curvature="0"
           d="m 769.42151,594.91958 c 0.15898,-0.72794 0.11379,-0.86432 -0.26107,-0.86432 l -0.56893,0 c 0,0 -0.36397,1.70599 -0.36397,1.70599 0,0 -0.55724,1.78429 -0.55724,1.78429 l -1.05715,0 c 0,0 0.86388,-4.04722 0.86388,-4.04722 0,0 0.12549,-0.59155 0.12549,-0.59155 l 0.96639,0 c 0,0 0.12468,0.27277 0.12468,0.27277 0,0 0.55723,-0.32926 1.10356,-0.32926 1.15927,0 1.06807,0.8748 0.81791,2.06916 l -1.19354,0 z"
           id="path4495" />
        <path
           style="fill:#0868ac;fill-rule:nonzero"
           inkscape:connector-curvature="0"
           d="m 773.49385,593.94116 c -0.61333,0 -0.93208,0.31876 -1.05676,0.88689 0,0 1.74999,-0.14768 1.74999,-0.14768 0.0803,-0.38654 0,-0.7392 -0.69323,-0.7392 z m -1.22785,1.72777 c -0.0791,0.56893 0.13638,0.76181 0.86389,0.76181 l 1.83067,0 c 0,0 -0.18158,0.86431 -0.18158,0.86431 0,0 -1.10317,0.30667 -1.92147,0.30667 -2.03525,0 -2.05786,-1.14756 -1.79719,-2.37581 0.26187,-1.20567 0.72833,-2.39842 2.69499,-2.39842 1.89846,0 1.99006,1.14756 1.52362,2.84145 l -3.01294,0 z"
           id="path4497" />
        <path
           style="fill:#0868ac;fill-rule:nonzero"
           inkscape:connector-curvature="0"
           d="m 776.3002,597.61354 c -0.47774,0 -0.77269,-0.13638 -0.64761,-0.69323 0.11298,-0.56973 0.46564,-0.70532 0.94378,-0.70532 0.44303,0 0.74971,0.13557 0.63673,0.70532 -0.12589,0.54554 -0.48904,0.69323 -0.9329,0.69323 z"
           id="path4499" />
      </g>
    </g>
  </g>
</svg>
